<svg xmlns="http://www.w3.org/2000/svg" width="800" height="600" viewBox="0 0 800 600">
  <rect x="0.00" y="0.00" width="800.00" height="600.00" fill="#ffffff"/>
  <rect x="70.00" y="45.00" width="705.00" height="495.00" fill="#fcfcfc"/>
  <line x1="70.00" y1="540.00" x2="775.00" y2="540.00" stroke="#e6e6e6" stroke-width="0.40"/>
  <line x1="70.00" y1="490.50" x2="775.00" y2="490.50" stroke="#e6e6e6" stroke-width="0.40"/>
  <line x1="70.00" y1="441.00" x2="775.00" y2="441.00" stroke="#e6e6e6" stroke-width="0.40"/>
  <line x1="70.00" y1="391.50" x2="775.00" y2="391.50" stroke="#e6e6e6" stroke-width="0.40"/>
  <line x1="70.00" y1="342.00" x2="775.00" y2="342.00" stroke="#e6e6e6" stroke-width="0.40"/>
  <line x1="70.00" y1="292.50" x2="775.00" y2="292.50" stroke="#e6e6e6" stroke-width="0.40"/>
  <line x1="70.00" y1="243.00" x2="775.00" y2="243.00" stroke="#e6e6e6" stroke-width="0.40"/>
  <line x1="70.00" y1="193.50" x2="775.00" y2="193.50" stroke="#e6e6e6" stroke-width="0.40"/>
  <line x1="70.00" y1="144.00" x2="775.00" y2="144.00" stroke="#e6e6e6" stroke-width="0.40"/>
  <line x1="70.00" y1="94.50" x2="775.00" y2="94.50" stroke="#e6e6e6" stroke-width="0.40"/>
  <line x1="70.00" y1="45.00" x2="775.00" y2="45.00" stroke="#e6e6e6" stroke-width="0.40"/>
  <line x1="70.00" y1="45.00" x2="70.00" y2="540.00" stroke="#e6e6e6" stroke-width="0.40"/>
  <line x1="148.33" y1="45.00" x2="148.33" y2="540.00" stroke="#e6e6e6" stroke-width="0.40"/>
  <line x1="226.67" y1="45.00" x2="226.67" y2="540.00" stroke="#e6e6e6" stroke-width="0.40"/>
  <line x1="305.00" y1="45.00" x2="305.00" y2="540.00" stroke="#e6e6e6" stroke-width="0.40"/>
  <line x1="383.33" y1="45.00" x2="383.33" y2="540.00" stroke="#e6e6e6" stroke-width="0.40"/>
  <line x1="461.67" y1="45.00" x2="461.67" y2="540.00" stroke="#e6e6e6" stroke-width="0.40"/>
  <line x1="540.00" y1="45.00" x2="540.00" y2="540.00" stroke="#e6e6e6" stroke-width="0.40"/>
  <line x1="618.33" y1="45.00" x2="618.33" y2="540.00" stroke="#e6e6e6" stroke-width="0.40"/>
  <line x1="696.67" y1="45.00" x2="696.67" y2="540.00" stroke="#e6e6e6" stroke-width="0.40"/>
  <line x1="775.00" y1="45.00" x2="775.00" y2="540.00" stroke="#e6e6e6" stroke-width="0.40"/>
  <line x1="70.00" y1="540.00" x2="775.00" y2="540.00" stroke="#505050" stroke-width="1.00"/>
  <line x1="70.00" y1="45.00" x2="70.00" y2="540.00" stroke="#505050" stroke-width="1.00"/>
  <line x1="70.00" y1="540.00" x2="70.00" y2="545.00" stroke="#505050" stroke-width="1.00"/>
  <text x="70.00" y="557.00" font-size="10.0" fill="#323232" text-anchor="middle" font-family="sans-serif">-4</text>
  <line x1="148.33" y1="540.00" x2="148.33" y2="545.00" stroke="#505050" stroke-width="1.00"/>
  <text x="148.33" y="557.00" font-size="10.0" fill="#323232" text-anchor="middle" font-family="sans-serif">-2</text>
  <line x1="226.67" y1="540.00" x2="226.67" y2="545.00" stroke="#505050" stroke-width="1.00"/>
  <text x="226.67" y="557.00" font-size="10.0" fill="#323232" text-anchor="middle" font-family="sans-serif">0</text>
  <line x1="305.00" y1="540.00" x2="305.00" y2="545.00" stroke="#505050" stroke-width="1.00"/>
  <text x="305.00" y="557.00" font-size="10.0" fill="#323232" text-anchor="middle" font-family="sans-serif">2</text>
  <line x1="383.33" y1="540.00" x2="383.33" y2="545.00" stroke="#505050" stroke-width="1.00"/>
  <text x="383.33" y="557.00" font-size="10.0" fill="#323232" text-anchor="middle" font-family="sans-serif">4</text>
  <line x1="461.67" y1="540.00" x2="461.67" y2="545.00" stroke="#505050" stroke-width="1.00"/>
  <text x="461.67" y="557.00" font-size="10.0" fill="#323232" text-anchor="middle" font-family="sans-serif">6</text>
  <line x1="540.00" y1="540.00" x2="540.00" y2="545.00" stroke="#505050" stroke-width="1.00"/>
  <text x="540.00" y="557.00" font-size="10.0" fill="#323232" text-anchor="middle" font-family="sans-serif">8</text>
  <line x1="618.33" y1="540.00" x2="618.33" y2="545.00" stroke="#505050" stroke-width="1.00"/>
  <text x="618.33" y="557.00" font-size="10.0" fill="#323232" text-anchor="middle" font-family="sans-serif">10</text>
  <line x1="696.67" y1="540.00" x2="696.67" y2="545.00" stroke="#505050" stroke-width="1.00"/>
  <text x="696.67" y="557.00" font-size="10.0" fill="#323232" text-anchor="middle" font-family="sans-serif">12</text>
  <line x1="775.00" y1="540.00" x2="775.00" y2="545.00" stroke="#505050" stroke-width="1.00"/>
  <text x="775.00" y="557.00" font-size="10.0" fill="#323232" text-anchor="middle" font-family="sans-serif">14</text>
  <line x1="65.00" y1="540.00" x2="70.00" y2="540.00" stroke="#505050" stroke-width="1.00"/>
  <text x="61.00" y="543.50" font-size="10.0" fill="#323232" text-anchor="end" font-family="sans-serif">0</text>
  <line x1="65.00" y1="490.50" x2="70.00" y2="490.50" stroke="#505050" stroke-width="1.00"/>
  <text x="61.00" y="494.00" font-size="10.0" fill="#323232" text-anchor="end" font-family="sans-serif">0.020</text>
  <line x1="65.00" y1="441.00" x2="70.00" y2="441.00" stroke="#505050" stroke-width="1.00"/>
  <text x="61.00" y="444.50" font-size="10.0" fill="#323232" text-anchor="end" font-family="sans-serif">0.040</text>
  <line x1="65.00" y1="391.50" x2="70.00" y2="391.50" stroke="#505050" stroke-width="1.00"/>
  <text x="61.00" y="395.00" font-size="10.0" fill="#323232" text-anchor="end" font-family="sans-serif">0.060</text>
  <line x1="65.00" y1="342.00" x2="70.00" y2="342.00" stroke="#505050" stroke-width="1.00"/>
  <text x="61.00" y="345.50" font-size="10.0" fill="#323232" text-anchor="end" font-family="sans-serif">0.080</text>
  <line x1="65.00" y1="292.50" x2="70.00" y2="292.50" stroke="#505050" stroke-width="1.00"/>
  <text x="61.00" y="296.00" font-size="10.0" fill="#323232" text-anchor="end" font-family="sans-serif">0.100</text>
  <line x1="65.00" y1="243.00" x2="70.00" y2="243.00" stroke="#505050" stroke-width="1.00"/>
  <text x="61.00" y="246.50" font-size="10.0" fill="#323232" text-anchor="end" font-family="sans-serif">0.120</text>
  <line x1="65.00" y1="193.50" x2="70.00" y2="193.50" stroke="#505050" stroke-width="1.00"/>
  <text x="61.00" y="197.00" font-size="10.0" fill="#323232" text-anchor="end" font-family="sans-serif">0.140</text>
  <line x1="65.00" y1="144.00" x2="70.00" y2="144.00" stroke="#505050" stroke-width="1.00"/>
  <text x="61.00" y="147.50" font-size="10.0" fill="#323232" text-anchor="end" font-family="sans-serif">0.160</text>
  <line x1="65.00" y1="94.50" x2="70.00" y2="94.50" stroke="#505050" stroke-width="1.00"/>
  <text x="61.00" y="98.00" font-size="10.0" fill="#323232" text-anchor="end" font-family="sans-serif">0.180</text>
  <line x1="65.00" y1="45.00" x2="70.00" y2="45.00" stroke="#505050" stroke-width="1.00"/>
  <text x="61.00" y="48.50" font-size="10.0" fill="#323232" text-anchor="end" font-family="sans-serif">0.200</text>
  <polyline points="138.31,540.00 138.31,539.51 141.30,539.40 144.30,539.27 147.29,539.12 150.28,538.94 153.28,538.73 156.27,538.48 159.26,538.19 162.26,537.86 165.25,537.47 168.25,537.03 171.24,536.52 174.23,535.94 177.23,535.28 180.22,534.53 183.22,533.69 186.21,532.76 189.20,531.71 192.20,530.54 195.19,529.25 198.19,527.82 201.18,526.25 204.17,524.54 207.17,522.66 210.16,520.62 213.16,518.41 216.15,516.01 219.14,513.43 222.14,510.66 225.13,507.68 228.13,504.49 231.12,501.08 234.11,497.45 237.11,493.58 240.10,489.47 243.10,485.12 246.09,480.50 249.08,475.61 252.08,470.44 255.07,464.99 258.07,459.24 261.06,453.17 264.05,446.79 267.05,440.08 270.04,433.03 273.04,425.63 276.03,417.89 279.02,409.79 282.02,401.33 285.01,392.51 288.01,383.35 291.00,373.84 293.99,363.99 296.99,353.82 299.98,343.36 302.98,332.61 305.97,321.62 308.96,310.41 311.96,299.02 314.95,287.48 317.95,275.85 320.94,264.16 323.93,252.46 326.93,240.81 329.92,229.25 332.92,217.84 335.91,206.62 338.90,195.65 341.90,184.98 344.89,174.66 347.89,164.72 350.88,155.20 353.87,146.16 356.87,137.61 359.86,129.60 362.86,122.14 365.85,115.25 368.84,108.96 371.84,103.28 374.83,98.21 377.83,93.76 380.82,89.93 383.81,86.73 386.81,84.16 389.80,82.19 392.80,80.84 395.79,80.10 398.78,79.95 401.78,80.38 404.77,81.40 407.77,82.98 410.76,85.12 413.75,87.80 416.75,91.02 419.74,94.76 422.74,99.01 425.73,103.77 428.72,109.01 431.72,114.71 434.71,120.88 437.71,127.47 440.70,134.49 443.69,141.89 446.69,149.67 449.68,157.79 452.68,166.22 455.67,174.94 458.66,183.91 461.66,193.11 464.65,202.49 467.65,212.02 470.64,221.66 473.63,231.38 476.63,241.13 479.62,250.89 482.62,260.61 485.61,270.27 488.60,279.82 491.60,289.23 494.59,298.48 497.58,307.55 500.58,316.39 503.57,325.01 506.57,333.36 509.56,341.45 512.55,349.26 515.55,356.77 518.54,363.98 521.54,370.89 524.53,377.50 527.52,383.80 530.52,389.81 533.51,395.52 536.51,400.94 539.50,406.09 542.49,410.97 545.49,415.59 548.48,419.98 551.48,424.14 554.47,428.08 557.46,431.84 560.46,435.41 563.45,438.82 566.45,442.08 569.44,445.21 572.43,448.24 575.43,451.16 578.42,454.00 581.42,456.78 584.41,459.50 587.40,462.18 590.40,464.83 593.39,467.46 596.39,470.08 599.38,472.69 602.37,475.30 605.37,477.91 608.36,480.53 611.36,483.15 614.35,485.77 617.34,488.39 620.34,491.01 623.33,493.61 626.33,496.20 629.32,498.76 632.31,501.28 635.31,503.77 638.30,506.20 641.30,508.57 644.29,510.87 647.28,513.10 650.28,515.25 653.27,517.30 656.27,519.26 659.26,521.13 662.25,522.89 665.25,524.54 668.24,526.09 671.24,527.53 674.23,528.87 677.22,530.10 680.22,531.24 683.21,532.27 686.21,533.21 689.20,534.06 692.19,534.83 695.19,535.51 698.18,536.12 701.18,536.67 704.17,537.14 707.16,537.56 710.16,537.93 713.15,538.25 716.15,538.53 719.14,538.76 722.13,538.97 725.13,539.14 728.12,539.29 731.12,539.41 734.11,539.52 734.11,540.00" stroke="#1f77b4" stroke-width="0.00" fill="rgba(31,119,180,0.30)"/>
  <polyline points="138.31,539.51 141.30,539.40 144.30,539.27 147.29,539.12 150.28,538.94 153.28,538.73 156.27,538.48 159.26,538.19 162.26,537.86 165.25,537.47 168.25,537.03 171.24,536.52 174.23,535.94 177.23,535.28 180.22,534.53 183.22,533.69 186.21,532.76 189.20,531.71 192.20,530.54 195.19,529.25 198.19,527.82 201.18,526.25 204.17,524.54 207.17,522.66 210.16,520.62 213.16,518.41 216.15,516.01 219.14,513.43 222.14,510.66 225.13,507.68 228.13,504.49 231.12,501.08 234.11,497.45 237.11,493.58 240.10,489.47 243.10,485.12 246.09,480.50 249.08,475.61 252.08,470.44 255.07,464.99 258.07,459.24 261.06,453.17 264.05,446.79 267.05,440.08 270.04,433.03 273.04,425.63 276.03,417.89 279.02,409.79 282.02,401.33 285.01,392.51 288.01,383.35 291.00,373.84 293.99,363.99 296.99,353.82 299.98,343.36 302.98,332.61 305.97,321.62 308.96,310.41 311.96,299.02 314.95,287.48 317.95,275.85 320.94,264.16 323.93,252.46 326.93,240.81 329.92,229.25 332.92,217.84 335.91,206.62 338.90,195.65 341.90,184.98 344.89,174.66 347.89,164.72 350.88,155.20 353.87,146.16 356.87,137.61 359.86,129.60 362.86,122.14 365.85,115.25 368.84,108.96 371.84,103.28 374.83,98.21 377.83,93.76 380.82,89.93 383.81,86.73 386.81,84.16 389.80,82.19 392.80,80.84 395.79,80.10 398.78,79.95 401.78,80.38 404.77,81.40 407.77,82.98 410.76,85.12 413.75,87.80 416.75,91.02 419.74,94.76 422.74,99.01 425.73,103.77 428.72,109.01 431.72,114.71 434.71,120.88 437.71,127.47 440.70,134.49 443.69,141.89 446.69,149.67 449.68,157.79 452.68,166.22 455.67,174.94 458.66,183.91 461.66,193.11 464.65,202.49 467.65,212.02 470.64,221.66 473.63,231.38 476.63,241.13 479.62,250.89 482.62,260.61 485.61,270.27 488.60,279.82 491.60,289.23 494.59,298.48 497.58,307.55 500.58,316.39 503.57,325.01 506.57,333.36 509.56,341.45 512.55,349.26 515.55,356.77 518.54,363.98 521.54,370.89 524.53,377.50 527.52,383.80 530.52,389.81 533.51,395.52 536.51,400.94 539.50,406.09 542.49,410.97 545.49,415.59 548.48,419.98 551.48,424.14 554.47,428.08 557.46,431.84 560.46,435.41 563.45,438.82 566.45,442.08 569.44,445.21 572.43,448.24 575.43,451.16 578.42,454.00 581.42,456.78 584.41,459.50 587.40,462.18 590.40,464.83 593.39,467.46 596.39,470.08 599.38,472.69 602.37,475.30 605.37,477.91 608.36,480.53 611.36,483.15 614.35,485.77 617.34,488.39 620.34,491.01 623.33,493.61 626.33,496.20 629.32,498.76 632.31,501.28 635.31,503.77 638.30,506.20 641.30,508.57 644.29,510.87 647.28,513.10 650.28,515.25 653.27,517.30 656.27,519.26 659.26,521.13 662.25,522.89 665.25,524.54 668.24,526.09 671.24,527.53 674.23,528.87 677.22,530.10 680.22,531.24 683.21,532.27 686.21,533.21 689.20,534.06 692.19,534.83 695.19,535.51 698.18,536.12 701.18,536.67 704.17,537.14 707.16,537.56 710.16,537.93 713.15,538.25 716.15,538.53 719.14,538.76 722.13,538.97 725.13,539.14 728.12,539.29 731.12,539.41 734.11,539.52" stroke="#1f77b4" stroke-width="2.00" fill="none"/>
  <text x="422.50" y="35.00" font-size="16.0" fill="#323232" text-anchor="middle" font-family="sans-serif">5. Density Plot (geom_density)</text>
  <text x="422.50" y="595.00" font-size="12.0" fill="#323232" text-anchor="middle" font-family="sans-serif">Value</text>
  <text x="15.00" y="292.50" font-size="12.0" fill="#323232" text-anchor="middle" font-family="sans-serif" transform="rotate(-90.0,15.00,292.50)">Density</text>
</svg>
