<svg xmlns="http://www.w3.org/2000/svg" width="800" height="600" viewBox="0 0 800 600">
  <rect x="0.00" y="0.00" width="800.00" height="600.00" fill="#ffffff"/>
  <rect x="70.00" y="45.00" width="705.00" height="495.00" fill="#fcfcfc"/>
  <polyline points="422.50,187.31 433.50,187.89 444.37,189.61 455.00,192.46 465.28,196.41 475.09,201.40 484.33,207.40 492.88,214.33 500.67,222.12 507.60,230.67 513.60,239.91 518.59,249.72 522.54,260.00 525.39,270.63 527.11,281.50 527.69,292.50 527.11,303.50 525.39,314.37 522.54,325.00 518.59,335.28 513.60,345.09 507.60,354.33 592.70,416.16 604.69,397.69 614.69,378.07 622.58,357.51 628.28,336.24 631.72,314.49 632.88,292.50 631.72,270.51 628.28,248.76 622.58,227.49 614.69,206.93 604.69,187.31 592.70,168.84 578.84,151.73 563.27,136.16 546.16,122.30 527.69,110.31 508.07,100.31 487.51,92.42 466.24,86.72 444.49,83.28 422.50,82.12" stroke="#ffffff" stroke-width="1.50" fill="#1f77b4"/>
  <text x="563.08" y="220.87" font-size="10.0" fill="#404040" text-anchor="middle" font-family="sans-serif">Rent (35.0%)</text>
  <polyline points="507.60,354.33 500.67,362.88 492.88,370.67 484.33,377.60 475.09,383.60 465.28,388.59 455.00,392.54 444.37,395.39 433.50,397.11 422.50,397.69 411.50,397.11 400.63,395.39 390.00,392.54 379.72,388.59 369.91,383.60 360.67,377.60 298.84,462.70 317.31,474.69 336.93,484.69 357.49,492.58 378.76,498.28 400.51,501.72 422.50,502.88 444.49,501.72 466.24,498.28 487.51,492.58 508.07,484.69 527.69,474.69 546.16,462.70 563.27,448.84 578.84,433.27 592.70,416.16" stroke="#ffffff" stroke-width="1.50" fill="#ff7f0e"/>
  <text x="447.18" y="448.34" font-size="10.0" fill="#404040" text-anchor="middle" font-family="sans-serif">Food (25.0%)</text>
  <polyline points="360.67,377.60 352.12,370.67 344.33,362.88 337.40,354.33 331.40,345.09 326.41,335.28 322.46,325.00 319.61,314.37 317.89,303.50 317.31,292.50 212.12,292.50 213.28,314.49 216.72,336.24 222.42,357.51 230.31,378.07 240.31,397.69 252.30,416.16 266.16,433.27 281.73,448.84 298.84,462.70" stroke="#ffffff" stroke-width="1.50" fill="#2ca02c"/>
  <text x="281.92" y="364.13" font-size="10.0" fill="#404040" text-anchor="middle" font-family="sans-serif">Transport (15.0%)</text>
  <polyline points="317.31,292.50 317.89,281.50 319.61,270.63 322.46,260.00 326.41,249.72 331.40,239.91 337.40,230.67 344.33,222.12 352.12,214.33 360.67,207.40 298.84,122.30 281.73,136.16 266.16,151.73 252.30,168.84 240.31,187.31 230.31,206.93 222.42,227.49 216.72,248.76 213.28,270.51 212.12,292.50" stroke="#ffffff" stroke-width="1.50" fill="#d62728"/>
  <text x="281.92" y="220.87" font-size="10.0" fill="#404040" text-anchor="middle" font-family="sans-serif">Savings (15.0%)</text>
  <polyline points="360.67,207.40 369.91,201.40 379.72,196.41 390.00,192.46 400.63,189.61 411.50,187.89 422.50,187.31 422.50,82.12 400.51,83.28 378.76,86.72 357.49,92.42 336.93,100.31 317.31,110.31 298.84,122.30" stroke="#ffffff" stroke-width="1.50" fill="#9467bd"/>
  <text x="373.74" y="142.44" font-size="10.0" fill="#404040" text-anchor="middle" font-family="sans-serif">Entertainment (10.0%)</text>
  <text x="422.50" y="35.00" font-size="16.0" fill="#323232" text-anchor="middle" font-family="sans-serif">19. Donut Chart (geom_donut, 50% hole)</text>
</svg>
