<svg xmlns="http://www.w3.org/2000/svg" width="800" height="600" viewBox="0 0 800 600">
  <rect x="0.00" y="0.00" width="800.00" height="600.00" fill="#ffffff"/>
  <rect x="70.00" y="45.00" width="705.00" height="495.00" fill="#fcfcfc"/>
  <polyline points="422.50,292.50 422.50,82.12 435.71,82.54 448.87,83.78 461.92,85.85 474.82,88.73 487.51,92.42 499.94,96.90 512.07,102.15 523.85,108.15 535.22,114.87 546.16,122.30 556.60,130.40 566.51,139.14 575.86,148.49 584.60,158.40 592.70,168.84 600.13,179.78 606.85,191.15 612.85,202.93 618.10,215.06 622.58,227.49 422.50,292.50" stroke="#ffffff" stroke-width="1.00" fill="rgba(31,119,180,0.70)"/>
  <text x="554.97" y="110.17" font-size="10.0" fill="#323232" text-anchor="middle" font-family="sans-serif">Rent</text>
  <polyline points="422.50,292.50 565.41,246.06 568.05,255.13 570.11,264.34 571.58,273.67 572.47,283.06 572.77,292.50 572.47,301.94 571.58,311.33 570.11,320.66 568.05,329.87 565.41,338.94 562.22,347.82 558.47,356.48 554.18,364.89 549.38,373.02 544.07,380.83 538.28,388.28 532.04,395.37 525.37,402.04 518.28,408.28 510.83,414.07 422.50,292.50" stroke="#ffffff" stroke-width="1.00" fill="rgba(255,127,14,0.70)"/>
  <text x="636.84" y="362.14" font-size="10.0" fill="#323232" text-anchor="middle" font-family="sans-serif">Food</text>
  <polyline points="422.50,292.50 475.50,365.44 470.81,368.63 465.94,371.51 460.89,374.08 455.69,376.33 450.36,378.25 444.92,379.83 439.39,381.06 433.80,381.95 428.16,382.48 422.50,382.66 416.84,382.48 411.20,381.95 405.61,381.06 400.08,379.83 394.64,378.25 389.31,376.33 384.11,374.08 379.06,371.51 374.19,368.63 369.50,365.44 422.50,292.50" stroke="#ffffff" stroke-width="1.00" fill="rgba(44,160,44,0.70)"/>
  <text x="422.50" y="517.88" font-size="10.0" fill="#323232" text-anchor="middle" font-family="sans-serif">Transport</text>
  <polyline points="422.50,292.50 369.50,365.44 365.03,361.97 360.78,358.22 356.78,354.22 353.03,349.97 349.56,345.50 346.37,340.81 343.49,335.94 340.92,330.89 338.67,325.69 336.75,320.36 335.17,314.92 333.94,309.39 333.05,303.80 332.52,298.16 332.34,292.50 332.52,286.84 333.05,281.20 333.94,275.61 335.17,270.08 336.75,264.64 422.50,292.50" stroke="#ffffff" stroke-width="1.00" fill="rgba(214,39,40,0.70)"/>
  <text x="208.16" y="362.14" font-size="10.0" fill="#323232" text-anchor="middle" font-family="sans-serif">Savings</text>
  <polyline points="422.50,292.50 365.33,273.93 366.61,270.37 368.11,266.91 369.83,263.54 371.75,260.29 373.87,257.17 376.19,254.19 378.68,251.35 381.35,248.68 384.19,246.19 387.17,243.87 390.29,241.75 393.54,239.83 396.91,238.11 400.37,236.61 403.93,235.33 407.55,234.28 411.24,233.46 414.97,232.87 418.73,232.51 422.50,232.39 422.50,292.50" stroke="#ffffff" stroke-width="1.00" fill="rgba(148,103,189,0.70)"/>
  <text x="290.03" y="110.17" font-size="10.0" fill="#323232" text-anchor="middle" font-family="sans-serif">Entertainment</text>
  <text x="422.50" y="35.00" font-size="16.0" fill="#323232" text-anchor="middle" font-family="sans-serif">20. Rose Chart (geom_rose)</text>
</svg>
