<svg xmlns="http://www.w3.org/2000/svg" width="800" height="600" viewBox="0 0 800 600">
  <rect x="0.00" y="0.00" width="800.00" height="600.00" fill="#ffffff"/>
  <rect x="60.00" y="30.00" width="725.00" height="520.00" fill="#ffffff"/>
  <line x1="60.00" y1="550.00" x2="785.00" y2="550.00" stroke="#f0f0f0" stroke-width="0.30"/>
  <line x1="60.00" y1="498.00" x2="785.00" y2="498.00" stroke="#f0f0f0" stroke-width="0.30"/>
  <line x1="60.00" y1="446.00" x2="785.00" y2="446.00" stroke="#f0f0f0" stroke-width="0.30"/>
  <line x1="60.00" y1="394.00" x2="785.00" y2="394.00" stroke="#f0f0f0" stroke-width="0.30"/>
  <line x1="60.00" y1="342.00" x2="785.00" y2="342.00" stroke="#f0f0f0" stroke-width="0.30"/>
  <line x1="60.00" y1="290.00" x2="785.00" y2="290.00" stroke="#f0f0f0" stroke-width="0.30"/>
  <line x1="60.00" y1="238.00" x2="785.00" y2="238.00" stroke="#f0f0f0" stroke-width="0.30"/>
  <line x1="60.00" y1="186.00" x2="785.00" y2="186.00" stroke="#f0f0f0" stroke-width="0.30"/>
  <line x1="60.00" y1="134.00" x2="785.00" y2="134.00" stroke="#f0f0f0" stroke-width="0.30"/>
  <line x1="60.00" y1="82.00" x2="785.00" y2="82.00" stroke="#f0f0f0" stroke-width="0.30"/>
  <line x1="60.00" y1="30.00" x2="785.00" y2="30.00" stroke="#f0f0f0" stroke-width="0.30"/>
  <line x1="60.00" y1="30.00" x2="60.00" y2="550.00" stroke="#f0f0f0" stroke-width="0.30"/>
  <line x1="140.56" y1="30.00" x2="140.56" y2="550.00" stroke="#f0f0f0" stroke-width="0.30"/>
  <line x1="221.11" y1="30.00" x2="221.11" y2="550.00" stroke="#f0f0f0" stroke-width="0.30"/>
  <line x1="301.67" y1="30.00" x2="301.67" y2="550.00" stroke="#f0f0f0" stroke-width="0.30"/>
  <line x1="382.22" y1="30.00" x2="382.22" y2="550.00" stroke="#f0f0f0" stroke-width="0.30"/>
  <line x1="462.78" y1="30.00" x2="462.78" y2="550.00" stroke="#f0f0f0" stroke-width="0.30"/>
  <line x1="543.33" y1="30.00" x2="543.33" y2="550.00" stroke="#f0f0f0" stroke-width="0.30"/>
  <line x1="623.89" y1="30.00" x2="623.89" y2="550.00" stroke="#f0f0f0" stroke-width="0.30"/>
  <line x1="704.44" y1="30.00" x2="704.44" y2="550.00" stroke="#f0f0f0" stroke-width="0.30"/>
  <line x1="785.00" y1="30.00" x2="785.00" y2="550.00" stroke="#f0f0f0" stroke-width="0.30"/>
  <line x1="60.00" y1="550.00" x2="785.00" y2="550.00" stroke="#808080" stroke-width="0.50"/>
  <line x1="60.00" y1="30.00" x2="60.00" y2="550.00" stroke="#808080" stroke-width="0.50"/>
  <line x1="60.00" y1="550.00" x2="60.00" y2="554.00" stroke="#808080" stroke-width="0.50"/>
  <text x="60.00" y="565.00" font-size="9.0" fill="#808080" text-anchor="middle" font-family="sans-serif">1</text>
  <line x1="140.56" y1="550.00" x2="140.56" y2="554.00" stroke="#808080" stroke-width="0.50"/>
  <text x="140.56" y="565.00" font-size="9.0" fill="#808080" text-anchor="middle" font-family="sans-serif">2</text>
  <line x1="221.11" y1="550.00" x2="221.11" y2="554.00" stroke="#808080" stroke-width="0.50"/>
  <text x="221.11" y="565.00" font-size="9.0" fill="#808080" text-anchor="middle" font-family="sans-serif">3</text>
  <line x1="301.67" y1="550.00" x2="301.67" y2="554.00" stroke="#808080" stroke-width="0.50"/>
  <text x="301.67" y="565.00" font-size="9.0" fill="#808080" text-anchor="middle" font-family="sans-serif">4</text>
  <line x1="382.22" y1="550.00" x2="382.22" y2="554.00" stroke="#808080" stroke-width="0.50"/>
  <text x="382.22" y="565.00" font-size="9.0" fill="#808080" text-anchor="middle" font-family="sans-serif">5</text>
  <line x1="462.78" y1="550.00" x2="462.78" y2="554.00" stroke="#808080" stroke-width="0.50"/>
  <text x="462.78" y="565.00" font-size="9.0" fill="#808080" text-anchor="middle" font-family="sans-serif">6</text>
  <line x1="543.33" y1="550.00" x2="543.33" y2="554.00" stroke="#808080" stroke-width="0.50"/>
  <text x="543.33" y="565.00" font-size="9.0" fill="#808080" text-anchor="middle" font-family="sans-serif">7</text>
  <line x1="623.89" y1="550.00" x2="623.89" y2="554.00" stroke="#808080" stroke-width="0.50"/>
  <text x="623.89" y="565.00" font-size="9.0" fill="#808080" text-anchor="middle" font-family="sans-serif">8</text>
  <line x1="704.44" y1="550.00" x2="704.44" y2="554.00" stroke="#808080" stroke-width="0.50"/>
  <text x="704.44" y="565.00" font-size="9.0" fill="#808080" text-anchor="middle" font-family="sans-serif">9</text>
  <line x1="785.00" y1="550.00" x2="785.00" y2="554.00" stroke="#808080" stroke-width="0.50"/>
  <text x="785.00" y="565.00" font-size="9.0" fill="#808080" text-anchor="middle" font-family="sans-serif">10</text>
  <line x1="56.00" y1="550.00" x2="60.00" y2="550.00" stroke="#808080" stroke-width="0.50"/>
  <text x="52.00" y="553.15" font-size="9.0" fill="#808080" text-anchor="end" font-family="sans-serif">2</text>
  <line x1="56.00" y1="498.00" x2="60.00" y2="498.00" stroke="#808080" stroke-width="0.50"/>
  <text x="52.00" y="501.15" font-size="9.0" fill="#808080" text-anchor="end" font-family="sans-serif">3</text>
  <line x1="56.00" y1="446.00" x2="60.00" y2="446.00" stroke="#808080" stroke-width="0.50"/>
  <text x="52.00" y="449.15" font-size="9.0" fill="#808080" text-anchor="end" font-family="sans-serif">4</text>
  <line x1="56.00" y1="394.00" x2="60.00" y2="394.00" stroke="#808080" stroke-width="0.50"/>
  <text x="52.00" y="397.15" font-size="9.0" fill="#808080" text-anchor="end" font-family="sans-serif">5</text>
  <line x1="56.00" y1="342.00" x2="60.00" y2="342.00" stroke="#808080" stroke-width="0.50"/>
  <text x="52.00" y="345.15" font-size="9.0" fill="#808080" text-anchor="end" font-family="sans-serif">6</text>
  <line x1="56.00" y1="290.00" x2="60.00" y2="290.00" stroke="#808080" stroke-width="0.50"/>
  <text x="52.00" y="293.15" font-size="9.0" fill="#808080" text-anchor="end" font-family="sans-serif">7</text>
  <line x1="56.00" y1="238.00" x2="60.00" y2="238.00" stroke="#808080" stroke-width="0.50"/>
  <text x="52.00" y="241.15" font-size="9.0" fill="#808080" text-anchor="end" font-family="sans-serif">8</text>
  <line x1="56.00" y1="186.00" x2="60.00" y2="186.00" stroke="#808080" stroke-width="0.50"/>
  <text x="52.00" y="189.15" font-size="9.0" fill="#808080" text-anchor="end" font-family="sans-serif">9</text>
  <line x1="56.00" y1="134.00" x2="60.00" y2="134.00" stroke="#808080" stroke-width="0.50"/>
  <text x="52.00" y="137.15" font-size="9.0" fill="#808080" text-anchor="end" font-family="sans-serif">10</text>
  <line x1="56.00" y1="82.00" x2="60.00" y2="82.00" stroke="#808080" stroke-width="0.50"/>
  <text x="52.00" y="85.15" font-size="9.0" fill="#808080" text-anchor="end" font-family="sans-serif">11</text>
  <line x1="56.00" y1="30.00" x2="60.00" y2="30.00" stroke="#808080" stroke-width="0.50"/>
  <text x="52.00" y="33.15" font-size="9.0" fill="#808080" text-anchor="end" font-family="sans-serif">12</text>
  <circle cx="60.00" cy="534.40" r="3.50" fill="#1f77b4"/>
  <circle cx="140.56" cy="440.80" r="3.50" fill="#1f77b4"/>
  <circle cx="221.11" cy="456.40" r="3.50" fill="#1f77b4"/>
  <circle cx="301.67" cy="279.60" r="3.50" fill="#1f77b4"/>
  <circle cx="382.22" cy="316.00" r="3.50" fill="#1f77b4"/>
  <circle cx="462.78" cy="191.20" r="3.50" fill="#1f77b4"/>
  <circle cx="543.33" cy="248.40" r="3.50" fill="#1f77b4"/>
  <circle cx="623.89" cy="128.80" r="3.50" fill="#1f77b4"/>
  <circle cx="704.44" cy="160.00" r="3.50" fill="#1f77b4"/>
  <circle cx="785.00" cy="66.40" r="3.50" fill="#1f77b4"/>
  <polyline points="60.00,534.40 140.56,440.80 221.11,456.40 301.67,279.60 382.22,316.00 462.78,191.20 543.33,248.40 623.89,128.80 704.44,160.00 785.00,66.40" stroke="#ff7f0e" stroke-width="1.50" fill="none"/>
  <text x="422.50" y="20.00" font-size="14.0" fill="#808080" text-anchor="middle" font-family="sans-serif">Theme: Minimal</text>
  <text x="422.50" y="595.00" font-size="11.0" fill="#808080" text-anchor="middle" font-family="sans-serif">X</text>
  <text x="15.00" y="290.00" font-size="11.0" fill="#808080" text-anchor="middle" font-family="sans-serif" transform="rotate(-90.0,15.00,290.00)">Y</text>
  <rect x="713.40" y="40.00" width="61.60" height="44.80" fill="rgba(255,255,255,0.90)" stroke="#e5e5e5" stroke-width="0.50"/>
  <circle cx="725.00" cy="55.20" r="3.60" fill="#1f77b4"/>
  <text x="734.60" y="58.35" font-size="9.0" fill="#808080" text-anchor="start" font-family="sans-serif">Points</text>
  <line x1="721.40" y1="69.60" x2="728.60" y2="69.60" stroke="#ff7f0e" stroke-width="2.00"/>
  <text x="734.60" y="72.75" font-size="9.0" fill="#808080" text-anchor="start" font-family="sans-serif">Line</text>
</svg>
