<svg xmlns="http://www.w3.org/2000/svg" width="800" height="600" viewBox="0 0 800 600">
  <rect x="0.00" y="0.00" width="800.00" height="600.00" fill="#ffffff"/>
  <rect x="70.00" y="45.00" width="705.00" height="495.00" fill="#fcfcfc"/>
  <line x1="70.00" y1="485.00" x2="775.00" y2="485.00" stroke="#e6e6e6" stroke-width="0.40"/>
  <line x1="70.00" y1="347.50" x2="775.00" y2="347.50" stroke="#e6e6e6" stroke-width="0.40"/>
  <line x1="70.00" y1="210.00" x2="775.00" y2="210.00" stroke="#e6e6e6" stroke-width="0.40"/>
  <line x1="70.00" y1="45.00" x2="70.00" y2="540.00" stroke="#e6e6e6" stroke-width="0.40"/>
  <line x1="170.71" y1="45.00" x2="170.71" y2="540.00" stroke="#e6e6e6" stroke-width="0.40"/>
  <line x1="271.43" y1="45.00" x2="271.43" y2="540.00" stroke="#e6e6e6" stroke-width="0.40"/>
  <line x1="372.14" y1="45.00" x2="372.14" y2="540.00" stroke="#e6e6e6" stroke-width="0.40"/>
  <line x1="472.86" y1="45.00" x2="472.86" y2="540.00" stroke="#e6e6e6" stroke-width="0.40"/>
  <line x1="573.57" y1="45.00" x2="573.57" y2="540.00" stroke="#e6e6e6" stroke-width="0.40"/>
  <line x1="674.29" y1="45.00" x2="674.29" y2="540.00" stroke="#e6e6e6" stroke-width="0.40"/>
  <line x1="775.00" y1="45.00" x2="775.00" y2="540.00" stroke="#e6e6e6" stroke-width="0.40"/>
  <line x1="70.00" y1="540.00" x2="775.00" y2="540.00" stroke="#505050" stroke-width="1.00"/>
  <line x1="70.00" y1="45.00" x2="70.00" y2="540.00" stroke="#505050" stroke-width="1.00"/>
  <line x1="70.00" y1="540.00" x2="70.00" y2="545.00" stroke="#505050" stroke-width="1.00"/>
  <text x="70.00" y="557.00" font-size="10.0" fill="#323232" text-anchor="middle" font-family="sans-serif">1</text>
  <line x1="170.71" y1="540.00" x2="170.71" y2="545.00" stroke="#505050" stroke-width="1.00"/>
  <text x="170.71" y="557.00" font-size="10.0" fill="#323232" text-anchor="middle" font-family="sans-serif">2</text>
  <line x1="271.43" y1="540.00" x2="271.43" y2="545.00" stroke="#505050" stroke-width="1.00"/>
  <text x="271.43" y="557.00" font-size="10.0" fill="#323232" text-anchor="middle" font-family="sans-serif">3</text>
  <line x1="372.14" y1="540.00" x2="372.14" y2="545.00" stroke="#505050" stroke-width="1.00"/>
  <text x="372.14" y="557.00" font-size="10.0" fill="#323232" text-anchor="middle" font-family="sans-serif">4</text>
  <line x1="472.86" y1="540.00" x2="472.86" y2="545.00" stroke="#505050" stroke-width="1.00"/>
  <text x="472.86" y="557.00" font-size="10.0" fill="#323232" text-anchor="middle" font-family="sans-serif">5</text>
  <line x1="573.57" y1="540.00" x2="573.57" y2="545.00" stroke="#505050" stroke-width="1.00"/>
  <text x="573.57" y="557.00" font-size="10.0" fill="#323232" text-anchor="middle" font-family="sans-serif">6</text>
  <line x1="674.29" y1="540.00" x2="674.29" y2="545.00" stroke="#505050" stroke-width="1.00"/>
  <text x="674.29" y="557.00" font-size="10.0" fill="#323232" text-anchor="middle" font-family="sans-serif">7</text>
  <line x1="775.00" y1="540.00" x2="775.00" y2="545.00" stroke="#505050" stroke-width="1.00"/>
  <text x="775.00" y="557.00" font-size="10.0" fill="#323232" text-anchor="middle" font-family="sans-serif">8</text>
  <line x1="65.00" y1="485.00" x2="70.00" y2="485.00" stroke="#505050" stroke-width="1.00"/>
  <text x="61.00" y="488.50" font-size="10.0" fill="#323232" text-anchor="end" font-family="sans-serif">A</text>
  <line x1="65.00" y1="347.50" x2="70.00" y2="347.50" stroke="#505050" stroke-width="1.00"/>
  <text x="61.00" y="351.00" font-size="10.0" fill="#323232" text-anchor="end" font-family="sans-serif">B</text>
  <line x1="65.00" y1="210.00" x2="70.00" y2="210.00" stroke="#505050" stroke-width="1.00"/>
  <text x="61.00" y="213.50" font-size="10.0" fill="#323232" text-anchor="end" font-family="sans-serif">C</text>
  <rect x="-71.00" y="369.50" width="80.57" height="115.50" fill="#1f77b4" stroke="#ffffff" stroke-width="1.00"/>
  <rect x="29.71" y="380.50" width="80.57" height="104.50" fill="#1f77b4" stroke="#ffffff" stroke-width="1.00"/>
  <rect x="130.43" y="344.75" width="80.57" height="140.25" fill="#1f77b4" stroke="#ffffff" stroke-width="1.00"/>
  <rect x="231.14" y="358.50" width="80.57" height="126.50" fill="#1f77b4" stroke="#ffffff" stroke-width="1.00"/>
  <rect x="331.86" y="377.75" width="80.57" height="107.25" fill="#1f77b4" stroke="#ffffff" stroke-width="1.00"/>
  <rect x="432.57" y="289.75" width="80.57" height="195.25" fill="#1f77b4" stroke="#ffffff" stroke-width="1.00"/>
  <rect x="533.29" y="298.00" width="80.57" height="187.00" fill="#1f77b4" stroke="#ffffff" stroke-width="1.00"/>
  <rect x="634.00" y="278.75" width="80.57" height="206.25" fill="#1f77b4" stroke="#ffffff" stroke-width="1.00"/>
  <rect x="734.71" y="311.75" width="80.57" height="173.25" fill="#1f77b4" stroke="#ffffff" stroke-width="1.00"/>
  <rect x="835.43" y="267.75" width="80.57" height="217.25" fill="#1f77b4" stroke="#ffffff" stroke-width="1.00"/>
  <rect x="936.14" y="427.25" width="80.57" height="57.75" fill="#1f77b4" stroke="#ffffff" stroke-width="1.00"/>
  <rect x="1036.86" y="402.50" width="80.57" height="82.50" fill="#1f77b4" stroke="#ffffff" stroke-width="1.00"/>
  <rect x="1137.57" y="416.25" width="80.57" height="68.75" fill="#1f77b4" stroke="#ffffff" stroke-width="1.00"/>
  <rect x="1238.29" y="408.00" width="80.57" height="77.00" fill="#1f77b4" stroke="#ffffff" stroke-width="1.00"/>
  <rect x="1339.00" y="432.75" width="80.57" height="52.25" fill="#1f77b4" stroke="#ffffff" stroke-width="1.00"/>
  <text x="422.50" y="35.00" font-size="16.0" fill="#323232" text-anchor="middle" font-family="sans-serif">Coord Flip (horizontal bars)</text>
</svg>
