<svg xmlns="http://www.w3.org/2000/svg" width="800" height="600" viewBox="0 0 800 600">
  <rect x="0.00" y="0.00" width="800.00" height="600.00" fill="#ffffff"/>
  <rect x="70.00" y="45.00" width="705.00" height="495.00" fill="#fcfcfc"/>
  <line x1="70.00" y1="438.18" x2="775.00" y2="438.18" stroke="#e6e6e6" stroke-width="0.40"/>
  <line x1="70.00" y1="292.50" x2="775.00" y2="292.50" stroke="#e6e6e6" stroke-width="0.40"/>
  <line x1="70.00" y1="146.82" x2="775.00" y2="146.82" stroke="#e6e6e6" stroke-width="0.40"/>
  <line x1="70.00" y1="45.00" x2="70.00" y2="540.00" stroke="#e6e6e6" stroke-width="0.40"/>
  <line x1="140.50" y1="45.00" x2="140.50" y2="540.00" stroke="#e6e6e6" stroke-width="0.40"/>
  <line x1="211.00" y1="45.00" x2="211.00" y2="540.00" stroke="#e6e6e6" stroke-width="0.40"/>
  <line x1="281.50" y1="45.00" x2="281.50" y2="540.00" stroke="#e6e6e6" stroke-width="0.40"/>
  <line x1="352.00" y1="45.00" x2="352.00" y2="540.00" stroke="#e6e6e6" stroke-width="0.40"/>
  <line x1="422.50" y1="45.00" x2="422.50" y2="540.00" stroke="#e6e6e6" stroke-width="0.40"/>
  <line x1="493.00" y1="45.00" x2="493.00" y2="540.00" stroke="#e6e6e6" stroke-width="0.40"/>
  <line x1="563.50" y1="45.00" x2="563.50" y2="540.00" stroke="#e6e6e6" stroke-width="0.40"/>
  <line x1="634.00" y1="45.00" x2="634.00" y2="540.00" stroke="#e6e6e6" stroke-width="0.40"/>
  <line x1="704.50" y1="45.00" x2="704.50" y2="540.00" stroke="#e6e6e6" stroke-width="0.40"/>
  <line x1="775.00" y1="45.00" x2="775.00" y2="540.00" stroke="#e6e6e6" stroke-width="0.40"/>
  <line x1="70.00" y1="540.00" x2="775.00" y2="540.00" stroke="#505050" stroke-width="1.00"/>
  <line x1="70.00" y1="45.00" x2="70.00" y2="540.00" stroke="#505050" stroke-width="1.00"/>
  <line x1="70.00" y1="540.00" x2="70.00" y2="545.00" stroke="#505050" stroke-width="1.00"/>
  <text x="70.00" y="557.00" font-size="10.0" fill="#323232" text-anchor="middle" font-family="sans-serif">0</text>
  <line x1="140.50" y1="540.00" x2="140.50" y2="545.00" stroke="#505050" stroke-width="1.00"/>
  <text x="140.50" y="557.00" font-size="10.0" fill="#323232" text-anchor="middle" font-family="sans-serif">1000</text>
  <line x1="211.00" y1="540.00" x2="211.00" y2="545.00" stroke="#505050" stroke-width="1.00"/>
  <text x="211.00" y="557.00" font-size="10.0" fill="#323232" text-anchor="middle" font-family="sans-serif">2000</text>
  <line x1="281.50" y1="540.00" x2="281.50" y2="545.00" stroke="#505050" stroke-width="1.00"/>
  <text x="281.50" y="557.00" font-size="10.0" fill="#323232" text-anchor="middle" font-family="sans-serif">3000</text>
  <line x1="352.00" y1="540.00" x2="352.00" y2="545.00" stroke="#505050" stroke-width="1.00"/>
  <text x="352.00" y="557.00" font-size="10.0" fill="#323232" text-anchor="middle" font-family="sans-serif">4000</text>
  <line x1="422.50" y1="540.00" x2="422.50" y2="545.00" stroke="#505050" stroke-width="1.00"/>
  <text x="422.50" y="557.00" font-size="10.0" fill="#323232" text-anchor="middle" font-family="sans-serif">5000</text>
  <line x1="493.00" y1="540.00" x2="493.00" y2="545.00" stroke="#505050" stroke-width="1.00"/>
  <text x="493.00" y="557.00" font-size="10.0" fill="#323232" text-anchor="middle" font-family="sans-serif">6000</text>
  <line x1="563.50" y1="540.00" x2="563.50" y2="545.00" stroke="#505050" stroke-width="1.00"/>
  <text x="563.50" y="557.00" font-size="10.0" fill="#323232" text-anchor="middle" font-family="sans-serif">7000</text>
  <line x1="634.00" y1="540.00" x2="634.00" y2="545.00" stroke="#505050" stroke-width="1.00"/>
  <text x="634.00" y="557.00" font-size="10.0" fill="#323232" text-anchor="middle" font-family="sans-serif">8000</text>
  <line x1="704.50" y1="540.00" x2="704.50" y2="545.00" stroke="#505050" stroke-width="1.00"/>
  <text x="704.50" y="557.00" font-size="10.0" fill="#323232" text-anchor="middle" font-family="sans-serif">9000</text>
  <line x1="775.00" y1="540.00" x2="775.00" y2="545.00" stroke="#505050" stroke-width="1.00"/>
  <text x="775.00" y="557.00" font-size="10.0" fill="#323232" text-anchor="middle" font-family="sans-serif">10000</text>
  <line x1="65.00" y1="438.18" x2="70.00" y2="438.18" stroke="#505050" stroke-width="1.00"/>
  <text x="61.00" y="441.68" font-size="10.0" fill="#323232" text-anchor="end" font-family="sans-serif">10</text>
  <line x1="65.00" y1="292.50" x2="70.00" y2="292.50" stroke="#505050" stroke-width="1.00"/>
  <text x="61.00" y="296.00" font-size="10.0" fill="#323232" text-anchor="end" font-family="sans-serif">100</text>
  <line x1="65.00" y1="146.82" x2="70.00" y2="146.82" stroke="#505050" stroke-width="1.00"/>
  <text x="61.00" y="150.32" font-size="10.0" fill="#323232" text-anchor="end" font-family="sans-serif">1000</text>
  <circle cx="70.07" cy="540.00" r="4.00" fill="#1f77b4"/>
  <circle cx="70.70" cy="394.32" r="4.00" fill="#1f77b4"/>
  <circle cx="77.05" cy="266.85" r="4.00" fill="#1f77b4"/>
  <circle cx="140.50" cy="160.94" r="4.00" fill="#1f77b4"/>
  <circle cx="775.00" cy="45.00" r="4.00" fill="#1f77b4"/>
  <polyline points="70.07,540.00 70.70,394.32 77.05,266.85 140.50,160.94 775.00,45.00" stroke="#ff7f0e" stroke-width="2.00" fill="none"/>
  <text x="422.50" y="35.00" font-size="16.0" fill="#323232" text-anchor="middle" font-family="sans-serif">Log Scale Y (base 10)</text>
  <text x="422.50" y="595.00" font-size="12.0" fill="#323232" text-anchor="middle" font-family="sans-serif">X</text>
  <text x="15.00" y="292.50" font-size="12.0" fill="#323232" text-anchor="middle" font-family="sans-serif" transform="rotate(-90.0,15.00,292.50)">Y (log)</text>
  <rect x="699.00" y="55.00" width="66.00" height="48.00" fill="rgba(255,255,255,0.90)" stroke="#e5e5e5" stroke-width="0.50"/>
  <circle cx="711.00" cy="71.00" r="4.00" fill="#1f77b4"/>
  <text x="721.00" y="74.50" font-size="10.0" fill="#323232" text-anchor="start" font-family="sans-serif">Points</text>
  <line x1="707.00" y1="87.00" x2="715.00" y2="87.00" stroke="#ff7f0e" stroke-width="2.00"/>
  <text x="721.00" y="90.50" font-size="10.0" fill="#323232" text-anchor="start" font-family="sans-serif">Line</text>
</svg>
