<svg xmlns="http://www.w3.org/2000/svg" width="800" height="600" viewBox="0 0 800 600">
  <rect x="0.00" y="0.00" width="800.00" height="600.00" fill="#ffffff"/>
  <rect x="70.00" y="45.00" width="705.00" height="495.00" fill="#fcfcfc"/>
  <line x1="70.00" y1="540.00" x2="775.00" y2="540.00" stroke="#e6e6e6" stroke-width="0.40"/>
  <line x1="70.00" y1="490.50" x2="775.00" y2="490.50" stroke="#e6e6e6" stroke-width="0.40"/>
  <line x1="70.00" y1="441.00" x2="775.00" y2="441.00" stroke="#e6e6e6" stroke-width="0.40"/>
  <line x1="70.00" y1="391.50" x2="775.00" y2="391.50" stroke="#e6e6e6" stroke-width="0.40"/>
  <line x1="70.00" y1="342.00" x2="775.00" y2="342.00" stroke="#e6e6e6" stroke-width="0.40"/>
  <line x1="70.00" y1="292.50" x2="775.00" y2="292.50" stroke="#e6e6e6" stroke-width="0.40"/>
  <line x1="70.00" y1="243.00" x2="775.00" y2="243.00" stroke="#e6e6e6" stroke-width="0.40"/>
  <line x1="70.00" y1="193.50" x2="775.00" y2="193.50" stroke="#e6e6e6" stroke-width="0.40"/>
  <line x1="70.00" y1="144.00" x2="775.00" y2="144.00" stroke="#e6e6e6" stroke-width="0.40"/>
  <line x1="70.00" y1="94.50" x2="775.00" y2="94.50" stroke="#e6e6e6" stroke-width="0.40"/>
  <line x1="70.00" y1="45.00" x2="775.00" y2="45.00" stroke="#e6e6e6" stroke-width="0.40"/>
  <line x1="70.00" y1="45.00" x2="70.00" y2="540.00" stroke="#e6e6e6" stroke-width="0.40"/>
  <line x1="148.33" y1="45.00" x2="148.33" y2="540.00" stroke="#e6e6e6" stroke-width="0.40"/>
  <line x1="226.67" y1="45.00" x2="226.67" y2="540.00" stroke="#e6e6e6" stroke-width="0.40"/>
  <line x1="305.00" y1="45.00" x2="305.00" y2="540.00" stroke="#e6e6e6" stroke-width="0.40"/>
  <line x1="383.33" y1="45.00" x2="383.33" y2="540.00" stroke="#e6e6e6" stroke-width="0.40"/>
  <line x1="461.67" y1="45.00" x2="461.67" y2="540.00" stroke="#e6e6e6" stroke-width="0.40"/>
  <line x1="540.00" y1="45.00" x2="540.00" y2="540.00" stroke="#e6e6e6" stroke-width="0.40"/>
  <line x1="618.33" y1="45.00" x2="618.33" y2="540.00" stroke="#e6e6e6" stroke-width="0.40"/>
  <line x1="696.67" y1="45.00" x2="696.67" y2="540.00" stroke="#e6e6e6" stroke-width="0.40"/>
  <line x1="775.00" y1="45.00" x2="775.00" y2="540.00" stroke="#e6e6e6" stroke-width="0.40"/>
  <line x1="70.00" y1="540.00" x2="775.00" y2="540.00" stroke="#505050" stroke-width="1.00"/>
  <line x1="70.00" y1="45.00" x2="70.00" y2="540.00" stroke="#505050" stroke-width="1.00"/>
  <line x1="70.00" y1="540.00" x2="70.00" y2="545.00" stroke="#505050" stroke-width="1.00"/>
  <text x="70.00" y="557.00" font-size="10.0" fill="#323232" text-anchor="middle" font-family="sans-serif">-4</text>
  <line x1="148.33" y1="540.00" x2="148.33" y2="545.00" stroke="#505050" stroke-width="1.00"/>
  <text x="148.33" y="557.00" font-size="10.0" fill="#323232" text-anchor="middle" font-family="sans-serif">-2</text>
  <line x1="226.67" y1="540.00" x2="226.67" y2="545.00" stroke="#505050" stroke-width="1.00"/>
  <text x="226.67" y="557.00" font-size="10.0" fill="#323232" text-anchor="middle" font-family="sans-serif">0</text>
  <line x1="305.00" y1="540.00" x2="305.00" y2="545.00" stroke="#505050" stroke-width="1.00"/>
  <text x="305.00" y="557.00" font-size="10.0" fill="#323232" text-anchor="middle" font-family="sans-serif">2</text>
  <line x1="383.33" y1="540.00" x2="383.33" y2="545.00" stroke="#505050" stroke-width="1.00"/>
  <text x="383.33" y="557.00" font-size="10.0" fill="#323232" text-anchor="middle" font-family="sans-serif">4</text>
  <line x1="461.67" y1="540.00" x2="461.67" y2="545.00" stroke="#505050" stroke-width="1.00"/>
  <text x="461.67" y="557.00" font-size="10.0" fill="#323232" text-anchor="middle" font-family="sans-serif">6</text>
  <line x1="540.00" y1="540.00" x2="540.00" y2="545.00" stroke="#505050" stroke-width="1.00"/>
  <text x="540.00" y="557.00" font-size="10.0" fill="#323232" text-anchor="middle" font-family="sans-serif">8</text>
  <line x1="618.33" y1="540.00" x2="618.33" y2="545.00" stroke="#505050" stroke-width="1.00"/>
  <text x="618.33" y="557.00" font-size="10.0" fill="#323232" text-anchor="middle" font-family="sans-serif">10</text>
  <line x1="696.67" y1="540.00" x2="696.67" y2="545.00" stroke="#505050" stroke-width="1.00"/>
  <text x="696.67" y="557.00" font-size="10.0" fill="#323232" text-anchor="middle" font-family="sans-serif">12</text>
  <line x1="775.00" y1="540.00" x2="775.00" y2="545.00" stroke="#505050" stroke-width="1.00"/>
  <text x="775.00" y="557.00" font-size="10.0" fill="#323232" text-anchor="middle" font-family="sans-serif">14</text>
  <line x1="65.00" y1="540.00" x2="70.00" y2="540.00" stroke="#505050" stroke-width="1.00"/>
  <text x="61.00" y="543.50" font-size="10.0" fill="#323232" text-anchor="end" font-family="sans-serif">0</text>
  <line x1="65.00" y1="490.50" x2="70.00" y2="490.50" stroke="#505050" stroke-width="1.00"/>
  <text x="61.00" y="494.00" font-size="10.0" fill="#323232" text-anchor="end" font-family="sans-serif">0.200</text>
  <line x1="65.00" y1="441.00" x2="70.00" y2="441.00" stroke="#505050" stroke-width="1.00"/>
  <text x="61.00" y="444.50" font-size="10.0" fill="#323232" text-anchor="end" font-family="sans-serif">0.400</text>
  <line x1="65.00" y1="391.50" x2="70.00" y2="391.50" stroke="#505050" stroke-width="1.00"/>
  <text x="61.00" y="395.00" font-size="10.0" fill="#323232" text-anchor="end" font-family="sans-serif">0.600</text>
  <line x1="65.00" y1="342.00" x2="70.00" y2="342.00" stroke="#505050" stroke-width="1.00"/>
  <text x="61.00" y="345.50" font-size="10.0" fill="#323232" text-anchor="end" font-family="sans-serif">0.800</text>
  <line x1="65.00" y1="292.50" x2="70.00" y2="292.50" stroke="#505050" stroke-width="1.00"/>
  <text x="61.00" y="296.00" font-size="10.0" fill="#323232" text-anchor="end" font-family="sans-serif">1</text>
  <line x1="65.00" y1="243.00" x2="70.00" y2="243.00" stroke="#505050" stroke-width="1.00"/>
  <text x="61.00" y="246.50" font-size="10.0" fill="#323232" text-anchor="end" font-family="sans-serif">1.20</text>
  <line x1="65.00" y1="193.50" x2="70.00" y2="193.50" stroke="#505050" stroke-width="1.00"/>
  <text x="61.00" y="197.00" font-size="10.0" fill="#323232" text-anchor="end" font-family="sans-serif">1.40</text>
  <line x1="65.00" y1="144.00" x2="70.00" y2="144.00" stroke="#505050" stroke-width="1.00"/>
  <text x="61.00" y="147.50" font-size="10.0" fill="#323232" text-anchor="end" font-family="sans-serif">1.60</text>
  <line x1="65.00" y1="94.50" x2="70.00" y2="94.50" stroke="#505050" stroke-width="1.00"/>
  <text x="61.00" y="98.00" font-size="10.0" fill="#323232" text-anchor="end" font-family="sans-serif">1.80</text>
  <line x1="65.00" y1="45.00" x2="70.00" y2="45.00" stroke="#505050" stroke-width="1.00"/>
  <text x="61.00" y="48.50" font-size="10.0" fill="#323232" text-anchor="end" font-family="sans-serif">2</text>
  <rect x="273.67" y="292.50" width="16.25" height="247.50" fill="#1f77b4" stroke="#ffffff" stroke-width="1.00"/>
  <rect x="289.92" y="540.00" width="16.25" height="0.00" fill="#1f77b4" stroke="#ffffff" stroke-width="1.00"/>
  <rect x="306.18" y="540.00" width="16.25" height="0.00" fill="#1f77b4" stroke="#ffffff" stroke-width="1.00"/>
  <rect x="322.43" y="45.00" width="16.25" height="495.00" fill="#1f77b4" stroke="#ffffff" stroke-width="1.00"/>
  <rect x="338.68" y="292.50" width="16.25" height="247.50" fill="#1f77b4" stroke="#ffffff" stroke-width="1.00"/>
  <rect x="354.94" y="45.00" width="16.25" height="495.00" fill="#1f77b4" stroke="#ffffff" stroke-width="1.00"/>
  <rect x="371.19" y="45.00" width="16.25" height="495.00" fill="#1f77b4" stroke="#ffffff" stroke-width="1.00"/>
  <rect x="387.45" y="45.00" width="16.25" height="495.00" fill="#1f77b4" stroke="#ffffff" stroke-width="1.00"/>
  <rect x="403.70" y="292.50" width="16.25" height="247.50" fill="#1f77b4" stroke="#ffffff" stroke-width="1.00"/>
  <rect x="419.95" y="45.00" width="16.25" height="495.00" fill="#1f77b4" stroke="#ffffff" stroke-width="1.00"/>
  <rect x="436.21" y="292.50" width="16.25" height="247.50" fill="#1f77b4" stroke="#ffffff" stroke-width="1.00"/>
  <rect x="452.46" y="45.00" width="16.25" height="495.00" fill="#1f77b4" stroke="#ffffff" stroke-width="1.00"/>
  <rect x="468.72" y="292.50" width="16.25" height="247.50" fill="#1f77b4" stroke="#ffffff" stroke-width="1.00"/>
  <rect x="484.97" y="540.00" width="16.25" height="0.00" fill="#1f77b4" stroke="#ffffff" stroke-width="1.00"/>
  <rect x="501.23" y="292.50" width="16.25" height="247.50" fill="#1f77b4" stroke="#ffffff" stroke-width="1.00"/>
  <rect x="517.48" y="540.00" width="16.25" height="0.00" fill="#1f77b4" stroke="#ffffff" stroke-width="1.00"/>
  <rect x="533.73" y="292.50" width="16.25" height="247.50" fill="#1f77b4" stroke="#ffffff" stroke-width="1.00"/>
  <rect x="549.99" y="540.00" width="16.25" height="0.00" fill="#1f77b4" stroke="#ffffff" stroke-width="1.00"/>
  <rect x="566.24" y="540.00" width="16.25" height="0.00" fill="#1f77b4" stroke="#ffffff" stroke-width="1.00"/>
  <rect x="582.50" y="292.50" width="16.25" height="247.50" fill="#1f77b4" stroke="#ffffff" stroke-width="1.00"/>
  <polyline points="138.31,540.00 138.31,539.95 141.30,539.94 144.30,539.93 147.29,539.91 150.28,539.89 153.28,539.87 156.27,539.85 159.26,539.82 162.26,539.79 165.25,539.75 168.25,539.70 171.24,539.65 174.23,539.59 177.23,539.53 180.22,539.45 183.22,539.37 186.21,539.28 189.20,539.17 192.20,539.05 195.19,538.92 198.19,538.78 201.18,538.63 204.17,538.45 207.17,538.27 210.16,538.06 213.16,537.84 216.15,537.60 219.14,537.34 222.14,537.07 225.13,536.77 228.13,536.45 231.12,536.11 234.11,535.74 237.11,535.36 240.10,534.95 243.10,534.51 246.09,534.05 249.08,533.56 252.08,533.04 255.07,532.50 258.07,531.92 261.06,531.32 264.05,530.68 267.05,530.01 270.04,529.30 273.04,528.56 276.03,527.79 279.02,526.98 282.02,526.13 285.01,525.25 288.01,524.33 291.00,523.38 293.99,522.40 296.99,521.38 299.98,520.34 302.98,519.26 305.97,518.16 308.96,517.04 311.96,515.90 314.95,514.75 317.95,513.58 320.94,512.42 323.93,511.25 326.93,510.08 329.92,508.92 332.92,507.78 335.91,506.66 338.90,505.57 341.90,504.50 344.89,503.47 347.89,502.47 350.88,501.52 353.87,500.62 356.87,499.76 359.86,498.96 362.86,498.21 365.85,497.53 368.84,496.90 371.84,496.33 374.83,495.82 377.83,495.38 380.82,494.99 383.81,494.67 386.81,494.42 389.80,494.22 392.80,494.08 395.79,494.01 398.78,493.99 401.78,494.04 404.77,494.14 407.77,494.30 410.76,494.51 413.75,494.78 416.75,495.10 419.74,495.48 422.74,495.90 425.73,496.38 428.72,496.90 431.72,497.47 434.71,498.09 437.71,498.75 440.70,499.45 443.69,500.19 446.69,500.97 449.68,501.78 452.68,502.62 455.67,503.49 458.66,504.39 461.66,505.31 464.65,506.25 467.65,507.20 470.64,508.17 473.63,509.14 476.63,510.11 479.62,511.09 482.62,512.06 485.61,513.03 488.60,513.98 491.60,514.92 494.59,515.85 497.58,516.75 500.58,517.64 503.57,518.50 506.57,519.34 509.56,520.15 512.55,520.93 515.55,521.68 518.54,522.40 521.54,523.09 524.53,523.75 527.52,524.38 530.52,524.98 533.51,525.55 536.51,526.09 539.50,526.61 542.49,527.10 545.49,527.56 548.48,528.00 551.48,528.41 554.47,528.81 557.46,529.18 560.46,529.54 563.45,529.88 566.45,530.21 569.44,530.52 572.43,530.82 575.43,531.12 578.42,531.40 581.42,531.68 584.41,531.95 587.40,532.22 590.40,532.48 593.39,532.75 596.39,533.01 599.38,533.27 602.37,533.53 605.37,533.79 608.36,534.05 611.36,534.32 614.35,534.58 617.34,534.84 620.34,535.10 623.33,535.36 626.33,535.62 629.32,535.88 632.31,536.13 635.31,536.38 638.30,536.62 641.30,536.86 644.29,537.09 647.28,537.31 650.28,537.52 653.27,537.73 656.27,537.93 659.26,538.11 662.25,538.29 665.25,538.45 668.24,538.61 671.24,538.75 674.23,538.89 677.22,539.01 680.22,539.12 683.21,539.23 686.21,539.32 689.20,539.41 692.19,539.48 695.19,539.55 698.18,539.61 701.18,539.67 704.17,539.71 707.16,539.76 710.16,539.79 713.15,539.82 716.15,539.85 719.14,539.88 722.13,539.90 725.13,539.91 728.12,539.93 731.12,539.94 734.11,539.95 734.11,540.00" stroke="#ff7f0e" stroke-width="0.00" fill="rgba(255,127,14,0.30)"/>
  <polyline points="138.31,539.95 141.30,539.94 144.30,539.93 147.29,539.91 150.28,539.89 153.28,539.87 156.27,539.85 159.26,539.82 162.26,539.79 165.25,539.75 168.25,539.70 171.24,539.65 174.23,539.59 177.23,539.53 180.22,539.45 183.22,539.37 186.21,539.28 189.20,539.17 192.20,539.05 195.19,538.92 198.19,538.78 201.18,538.63 204.17,538.45 207.17,538.27 210.16,538.06 213.16,537.84 216.15,537.60 219.14,537.34 222.14,537.07 225.13,536.77 228.13,536.45 231.12,536.11 234.11,535.74 237.11,535.36 240.10,534.95 243.10,534.51 246.09,534.05 249.08,533.56 252.08,533.04 255.07,532.50 258.07,531.92 261.06,531.32 264.05,530.68 267.05,530.01 270.04,529.30 273.04,528.56 276.03,527.79 279.02,526.98 282.02,526.13 285.01,525.25 288.01,524.33 291.00,523.38 293.99,522.40 296.99,521.38 299.98,520.34 302.98,519.26 305.97,518.16 308.96,517.04 311.96,515.90 314.95,514.75 317.95,513.58 320.94,512.42 323.93,511.25 326.93,510.08 329.92,508.92 332.92,507.78 335.91,506.66 338.90,505.57 341.90,504.50 344.89,503.47 347.89,502.47 350.88,501.52 353.87,500.62 356.87,499.76 359.86,498.96 362.86,498.21 365.85,497.53 368.84,496.90 371.84,496.33 374.83,495.82 377.83,495.38 380.82,494.99 383.81,494.67 386.81,494.42 389.80,494.22 392.80,494.08 395.79,494.01 398.78,493.99 401.78,494.04 404.77,494.14 407.77,494.30 410.76,494.51 413.75,494.78 416.75,495.10 419.74,495.48 422.74,495.90 425.73,496.38 428.72,496.90 431.72,497.47 434.71,498.09 437.71,498.75 440.70,499.45 443.69,500.19 446.69,500.97 449.68,501.78 452.68,502.62 455.67,503.49 458.66,504.39 461.66,505.31 464.65,506.25 467.65,507.20 470.64,508.17 473.63,509.14 476.63,510.11 479.62,511.09 482.62,512.06 485.61,513.03 488.60,513.98 491.60,514.92 494.59,515.85 497.58,516.75 500.58,517.64 503.57,518.50 506.57,519.34 509.56,520.15 512.55,520.93 515.55,521.68 518.54,522.40 521.54,523.09 524.53,523.75 527.52,524.38 530.52,524.98 533.51,525.55 536.51,526.09 539.50,526.61 542.49,527.10 545.49,527.56 548.48,528.00 551.48,528.41 554.47,528.81 557.46,529.18 560.46,529.54 563.45,529.88 566.45,530.21 569.44,530.52 572.43,530.82 575.43,531.12 578.42,531.40 581.42,531.68 584.41,531.95 587.40,532.22 590.40,532.48 593.39,532.75 596.39,533.01 599.38,533.27 602.37,533.53 605.37,533.79 608.36,534.05 611.36,534.32 614.35,534.58 617.34,534.84 620.34,535.10 623.33,535.36 626.33,535.62 629.32,535.88 632.31,536.13 635.31,536.38 638.30,536.62 641.30,536.86 644.29,537.09 647.28,537.31 650.28,537.52 653.27,537.73 656.27,537.93 659.26,538.11 662.25,538.29 665.25,538.45 668.24,538.61 671.24,538.75 674.23,538.89 677.22,539.01 680.22,539.12 683.21,539.23 686.21,539.32 689.20,539.41 692.19,539.48 695.19,539.55 698.18,539.61 701.18,539.67 704.17,539.71 707.16,539.76 710.16,539.79 713.15,539.82 716.15,539.85 719.14,539.88 722.13,539.90 725.13,539.91 728.12,539.93 731.12,539.94 734.11,539.95" stroke="#ff7f0e" stroke-width="2.00" fill="none"/>
  <text x="422.50" y="35.00" font-size="16.0" fill="#323232" text-anchor="middle" font-family="sans-serif">8.1 Distribution Plot (vizor_displot)</text>
  <rect x="681.00" y="55.00" width="84.00" height="48.00" fill="rgba(255,255,255,0.90)" stroke="#e5e5e5" stroke-width="0.50"/>
  <rect x="689.00" y="67.00" width="8.00" height="8.00" fill="#1f77b4"/>
  <text x="703.00" y="74.50" font-size="10.0" fill="#323232" text-anchor="start" font-family="sans-serif">Histogram</text>
  <line x1="689.00" y1="87.00" x2="697.00" y2="87.00" stroke="#ff7f0e" stroke-width="2.00"/>
  <text x="703.00" y="90.50" font-size="10.0" fill="#323232" text-anchor="start" font-family="sans-serif">Density</text>
</svg>
