<svg xmlns="http://www.w3.org/2000/svg" width="800" height="600" viewBox="0 0 800 600">
  <rect x="0.00" y="0.00" width="800.00" height="600.00" fill="#ffffff"/>
  <rect x="70.00" y="45.00" width="705.00" height="495.00" fill="#fcfcfc"/>
  <line x1="70.00" y1="540.00" x2="775.00" y2="540.00" stroke="#e6e6e6" stroke-width="0.40"/>
  <line x1="70.00" y1="469.29" x2="775.00" y2="469.29" stroke="#e6e6e6" stroke-width="0.40"/>
  <line x1="70.00" y1="398.57" x2="775.00" y2="398.57" stroke="#e6e6e6" stroke-width="0.40"/>
  <line x1="70.00" y1="327.86" x2="775.00" y2="327.86" stroke="#e6e6e6" stroke-width="0.40"/>
  <line x1="70.00" y1="257.14" x2="775.00" y2="257.14" stroke="#e6e6e6" stroke-width="0.40"/>
  <line x1="70.00" y1="186.43" x2="775.00" y2="186.43" stroke="#e6e6e6" stroke-width="0.40"/>
  <line x1="70.00" y1="115.71" x2="775.00" y2="115.71" stroke="#e6e6e6" stroke-width="0.40"/>
  <line x1="70.00" y1="45.00" x2="775.00" y2="45.00" stroke="#e6e6e6" stroke-width="0.40"/>
  <line x1="187.50" y1="45.00" x2="187.50" y2="540.00" stroke="#e6e6e6" stroke-width="0.40"/>
  <line x1="422.50" y1="45.00" x2="422.50" y2="540.00" stroke="#e6e6e6" stroke-width="0.40"/>
  <line x1="657.50" y1="45.00" x2="657.50" y2="540.00" stroke="#e6e6e6" stroke-width="0.40"/>
  <line x1="70.00" y1="540.00" x2="775.00" y2="540.00" stroke="#505050" stroke-width="1.00"/>
  <line x1="70.00" y1="45.00" x2="70.00" y2="540.00" stroke="#505050" stroke-width="1.00"/>
  <line x1="187.50" y1="540.00" x2="187.50" y2="545.00" stroke="#505050" stroke-width="1.00"/>
  <text x="187.50" y="557.00" font-size="10.0" fill="#323232" text-anchor="middle" font-family="sans-serif">A</text>
  <line x1="422.50" y1="540.00" x2="422.50" y2="545.00" stroke="#505050" stroke-width="1.00"/>
  <text x="422.50" y="557.00" font-size="10.0" fill="#323232" text-anchor="middle" font-family="sans-serif">B</text>
  <line x1="657.50" y1="540.00" x2="657.50" y2="545.00" stroke="#505050" stroke-width="1.00"/>
  <text x="657.50" y="557.00" font-size="10.0" fill="#323232" text-anchor="middle" font-family="sans-serif">C</text>
  <line x1="65.00" y1="540.00" x2="70.00" y2="540.00" stroke="#505050" stroke-width="1.00"/>
  <text x="61.00" y="543.50" font-size="10.0" fill="#323232" text-anchor="end" font-family="sans-serif">1</text>
  <line x1="65.00" y1="469.29" x2="70.00" y2="469.29" stroke="#505050" stroke-width="1.00"/>
  <text x="61.00" y="472.79" font-size="10.0" fill="#323232" text-anchor="end" font-family="sans-serif">2</text>
  <line x1="65.00" y1="398.57" x2="70.00" y2="398.57" stroke="#505050" stroke-width="1.00"/>
  <text x="61.00" y="402.07" font-size="10.0" fill="#323232" text-anchor="end" font-family="sans-serif">3</text>
  <line x1="65.00" y1="327.86" x2="70.00" y2="327.86" stroke="#505050" stroke-width="1.00"/>
  <text x="61.00" y="331.36" font-size="10.0" fill="#323232" text-anchor="end" font-family="sans-serif">4</text>
  <line x1="65.00" y1="257.14" x2="70.00" y2="257.14" stroke="#505050" stroke-width="1.00"/>
  <text x="61.00" y="260.64" font-size="10.0" fill="#323232" text-anchor="end" font-family="sans-serif">5</text>
  <line x1="65.00" y1="186.43" x2="70.00" y2="186.43" stroke="#505050" stroke-width="1.00"/>
  <text x="61.00" y="189.93" font-size="10.0" fill="#323232" text-anchor="end" font-family="sans-serif">6</text>
  <line x1="65.00" y1="115.71" x2="70.00" y2="115.71" stroke="#505050" stroke-width="1.00"/>
  <text x="61.00" y="119.21" font-size="10.0" fill="#323232" text-anchor="end" font-family="sans-serif">7</text>
  <line x1="65.00" y1="45.00" x2="70.00" y2="45.00" stroke="#505050" stroke-width="1.00"/>
  <text x="61.00" y="48.50" font-size="10.0" fill="#323232" text-anchor="end" font-family="sans-serif">8</text>
  <rect x="105.25" y="285.43" width="164.50" height="49.50" fill="rgba(31,119,180,0.30)" stroke="#1f77b4" stroke-width="1.50"/>
  <line x1="105.25" y1="313.71" x2="269.75" y2="313.71" stroke="#1f77b4" stroke-width="2.00"/>
  <line x1="187.50" y1="334.93" x2="187.50" y2="342.00" stroke="#1f77b4" stroke-width="1.00"/>
  <line x1="187.50" y1="285.43" x2="187.50" y2="250.07" stroke="#1f77b4" stroke-width="1.00"/>
  <line x1="138.15" y1="342.00" x2="236.85" y2="342.00" stroke="#1f77b4" stroke-width="1.00"/>
  <line x1="138.15" y1="250.07" x2="236.85" y2="250.07" stroke="#1f77b4" stroke-width="1.00"/>
  <rect x="340.25" y="80.36" width="164.50" height="49.50" fill="rgba(31,119,180,0.30)" stroke="#1f77b4" stroke-width="1.50"/>
  <line x1="340.25" y1="108.64" x2="504.75" y2="108.64" stroke="#1f77b4" stroke-width="2.00"/>
  <line x1="422.50" y1="129.86" x2="422.50" y2="165.21" stroke="#1f77b4" stroke-width="1.00"/>
  <line x1="422.50" y1="80.36" x2="422.50" y2="52.07" stroke="#1f77b4" stroke-width="1.00"/>
  <line x1="373.15" y1="165.21" x2="471.85" y2="165.21" stroke="#1f77b4" stroke-width="1.00"/>
  <line x1="373.15" y1="52.07" x2="471.85" y2="52.07" stroke="#1f77b4" stroke-width="1.00"/>
  <rect x="575.25" y="412.71" width="164.50" height="49.50" fill="rgba(31,119,180,0.30)" stroke="#1f77b4" stroke-width="1.50"/>
  <line x1="575.25" y1="433.93" x2="739.75" y2="433.93" stroke="#1f77b4" stroke-width="2.00"/>
  <line x1="657.50" y1="462.21" x2="657.50" y2="476.36" stroke="#1f77b4" stroke-width="1.00"/>
  <line x1="657.50" y1="412.71" x2="657.50" y2="398.57" stroke="#1f77b4" stroke-width="1.00"/>
  <line x1="608.15" y1="476.36" x2="706.85" y2="476.36" stroke="#1f77b4" stroke-width="1.00"/>
  <line x1="608.15" y1="398.57" x2="706.85" y2="398.57" stroke="#1f77b4" stroke-width="1.00"/>
  <text x="422.50" y="35.00" font-size="16.0" fill="#323232" text-anchor="middle" font-family="sans-serif">8.2 Catplot: Box</text>
</svg>
