<svg xmlns="http://www.w3.org/2000/svg" width="800" height="600" viewBox="0 0 800 600">
  <rect x="0.00" y="0.00" width="800.00" height="600.00" fill="#ffffff"/>
  <rect x="70.00" y="45.00" width="705.00" height="495.00" fill="#fcfcfc"/>
  <line x1="70.00" y1="540.00" x2="775.00" y2="540.00" stroke="#e6e6e6" stroke-width="0.40"/>
  <line x1="70.00" y1="478.12" x2="775.00" y2="478.12" stroke="#e6e6e6" stroke-width="0.40"/>
  <line x1="70.00" y1="416.25" x2="775.00" y2="416.25" stroke="#e6e6e6" stroke-width="0.40"/>
  <line x1="70.00" y1="354.38" x2="775.00" y2="354.38" stroke="#e6e6e6" stroke-width="0.40"/>
  <line x1="70.00" y1="292.50" x2="775.00" y2="292.50" stroke="#e6e6e6" stroke-width="0.40"/>
  <line x1="70.00" y1="230.62" x2="775.00" y2="230.62" stroke="#e6e6e6" stroke-width="0.40"/>
  <line x1="70.00" y1="168.75" x2="775.00" y2="168.75" stroke="#e6e6e6" stroke-width="0.40"/>
  <line x1="70.00" y1="106.88" x2="775.00" y2="106.88" stroke="#e6e6e6" stroke-width="0.40"/>
  <line x1="70.00" y1="45.00" x2="775.00" y2="45.00" stroke="#e6e6e6" stroke-width="0.40"/>
  <line x1="70.00" y1="45.00" x2="70.00" y2="540.00" stroke="#e6e6e6" stroke-width="0.40"/>
  <line x1="148.33" y1="45.00" x2="148.33" y2="540.00" stroke="#e6e6e6" stroke-width="0.40"/>
  <line x1="226.67" y1="45.00" x2="226.67" y2="540.00" stroke="#e6e6e6" stroke-width="0.40"/>
  <line x1="305.00" y1="45.00" x2="305.00" y2="540.00" stroke="#e6e6e6" stroke-width="0.40"/>
  <line x1="383.33" y1="45.00" x2="383.33" y2="540.00" stroke="#e6e6e6" stroke-width="0.40"/>
  <line x1="461.67" y1="45.00" x2="461.67" y2="540.00" stroke="#e6e6e6" stroke-width="0.40"/>
  <line x1="540.00" y1="45.00" x2="540.00" y2="540.00" stroke="#e6e6e6" stroke-width="0.40"/>
  <line x1="618.33" y1="45.00" x2="618.33" y2="540.00" stroke="#e6e6e6" stroke-width="0.40"/>
  <line x1="696.67" y1="45.00" x2="696.67" y2="540.00" stroke="#e6e6e6" stroke-width="0.40"/>
  <line x1="775.00" y1="45.00" x2="775.00" y2="540.00" stroke="#e6e6e6" stroke-width="0.40"/>
  <line x1="70.00" y1="540.00" x2="775.00" y2="540.00" stroke="#505050" stroke-width="1.00"/>
  <line x1="70.00" y1="45.00" x2="70.00" y2="540.00" stroke="#505050" stroke-width="1.00"/>
  <line x1="70.00" y1="540.00" x2="70.00" y2="545.00" stroke="#505050" stroke-width="1.00"/>
  <text x="70.00" y="557.00" font-size="10.0" fill="#323232" text-anchor="middle" font-family="sans-serif">-4</text>
  <line x1="148.33" y1="540.00" x2="148.33" y2="545.00" stroke="#505050" stroke-width="1.00"/>
  <text x="148.33" y="557.00" font-size="10.0" fill="#323232" text-anchor="middle" font-family="sans-serif">-2</text>
  <line x1="226.67" y1="540.00" x2="226.67" y2="545.00" stroke="#505050" stroke-width="1.00"/>
  <text x="226.67" y="557.00" font-size="10.0" fill="#323232" text-anchor="middle" font-family="sans-serif">0</text>
  <line x1="305.00" y1="540.00" x2="305.00" y2="545.00" stroke="#505050" stroke-width="1.00"/>
  <text x="305.00" y="557.00" font-size="10.0" fill="#323232" text-anchor="middle" font-family="sans-serif">2</text>
  <line x1="383.33" y1="540.00" x2="383.33" y2="545.00" stroke="#505050" stroke-width="1.00"/>
  <text x="383.33" y="557.00" font-size="10.0" fill="#323232" text-anchor="middle" font-family="sans-serif">4</text>
  <line x1="461.67" y1="540.00" x2="461.67" y2="545.00" stroke="#505050" stroke-width="1.00"/>
  <text x="461.67" y="557.00" font-size="10.0" fill="#323232" text-anchor="middle" font-family="sans-serif">6</text>
  <line x1="540.00" y1="540.00" x2="540.00" y2="545.00" stroke="#505050" stroke-width="1.00"/>
  <text x="540.00" y="557.00" font-size="10.0" fill="#323232" text-anchor="middle" font-family="sans-serif">8</text>
  <line x1="618.33" y1="540.00" x2="618.33" y2="545.00" stroke="#505050" stroke-width="1.00"/>
  <text x="618.33" y="557.00" font-size="10.0" fill="#323232" text-anchor="middle" font-family="sans-serif">10</text>
  <line x1="696.67" y1="540.00" x2="696.67" y2="545.00" stroke="#505050" stroke-width="1.00"/>
  <text x="696.67" y="557.00" font-size="10.0" fill="#323232" text-anchor="middle" font-family="sans-serif">12</text>
  <line x1="775.00" y1="540.00" x2="775.00" y2="545.00" stroke="#505050" stroke-width="1.00"/>
  <text x="775.00" y="557.00" font-size="10.0" fill="#323232" text-anchor="middle" font-family="sans-serif">14</text>
  <line x1="65.00" y1="540.00" x2="70.00" y2="540.00" stroke="#505050" stroke-width="1.00"/>
  <text x="61.00" y="543.50" font-size="10.0" fill="#323232" text-anchor="end" font-family="sans-serif">0</text>
  <line x1="65.00" y1="478.12" x2="70.00" y2="478.12" stroke="#505050" stroke-width="1.00"/>
  <text x="61.00" y="481.62" font-size="10.0" fill="#323232" text-anchor="end" font-family="sans-serif">0.500</text>
  <line x1="65.00" y1="416.25" x2="70.00" y2="416.25" stroke="#505050" stroke-width="1.00"/>
  <text x="61.00" y="419.75" font-size="10.0" fill="#323232" text-anchor="end" font-family="sans-serif">1</text>
  <line x1="65.00" y1="354.38" x2="70.00" y2="354.38" stroke="#505050" stroke-width="1.00"/>
  <text x="61.00" y="357.88" font-size="10.0" fill="#323232" text-anchor="end" font-family="sans-serif">1.50</text>
  <line x1="65.00" y1="292.50" x2="70.00" y2="292.50" stroke="#505050" stroke-width="1.00"/>
  <text x="61.00" y="296.00" font-size="10.0" fill="#323232" text-anchor="end" font-family="sans-serif">2</text>
  <line x1="65.00" y1="230.62" x2="70.00" y2="230.62" stroke="#505050" stroke-width="1.00"/>
  <text x="61.00" y="234.12" font-size="10.0" fill="#323232" text-anchor="end" font-family="sans-serif">2.50</text>
  <line x1="65.00" y1="168.75" x2="70.00" y2="168.75" stroke="#505050" stroke-width="1.00"/>
  <text x="61.00" y="172.25" font-size="10.0" fill="#323232" text-anchor="end" font-family="sans-serif">3</text>
  <line x1="65.00" y1="106.88" x2="70.00" y2="106.88" stroke="#505050" stroke-width="1.00"/>
  <text x="61.00" y="110.38" font-size="10.0" fill="#323232" text-anchor="end" font-family="sans-serif">3.50</text>
  <line x1="65.00" y1="45.00" x2="70.00" y2="45.00" stroke="#505050" stroke-width="1.00"/>
  <text x="61.00" y="48.50" font-size="10.0" fill="#323232" text-anchor="end" font-family="sans-serif">4</text>
  <rect x="273.67" y="416.25" width="32.51" height="123.75" fill="#1f77b4" stroke="#ffffff" stroke-width="1.00"/>
  <rect x="306.18" y="292.50" width="32.51" height="247.50" fill="#1f77b4" stroke="#ffffff" stroke-width="1.00"/>
  <rect x="338.68" y="168.75" width="32.51" height="371.25" fill="#1f77b4" stroke="#ffffff" stroke-width="1.00"/>
  <rect x="371.19" y="45.00" width="32.51" height="495.00" fill="#1f77b4" stroke="#ffffff" stroke-width="1.00"/>
  <rect x="403.70" y="168.75" width="32.51" height="371.25" fill="#1f77b4" stroke="#ffffff" stroke-width="1.00"/>
  <rect x="436.21" y="168.75" width="32.51" height="371.25" fill="#1f77b4" stroke="#ffffff" stroke-width="1.00"/>
  <rect x="468.72" y="416.25" width="32.51" height="123.75" fill="#1f77b4" stroke="#ffffff" stroke-width="1.00"/>
  <rect x="501.23" y="416.25" width="32.51" height="123.75" fill="#1f77b4" stroke="#ffffff" stroke-width="1.00"/>
  <rect x="533.73" y="416.25" width="32.51" height="123.75" fill="#1f77b4" stroke="#ffffff" stroke-width="1.00"/>
  <rect x="566.24" y="416.25" width="32.51" height="123.75" fill="#1f77b4" stroke="#ffffff" stroke-width="1.00"/>
  <polyline points="138.31,540.00 138.31,539.98 141.30,539.97 144.30,539.96 147.29,539.96 150.28,539.95 153.28,539.94 156.27,539.92 159.26,539.91 162.26,539.89 165.25,539.87 168.25,539.85 171.24,539.83 174.23,539.80 177.23,539.76 180.22,539.73 183.22,539.68 186.21,539.64 189.20,539.59 192.20,539.53 195.19,539.46 198.19,539.39 201.18,539.31 204.17,539.23 207.17,539.13 210.16,539.03 213.16,538.92 216.15,538.80 219.14,538.67 222.14,538.53 225.13,538.38 228.13,538.22 231.12,538.05 234.11,537.87 237.11,537.68 240.10,537.47 243.10,537.26 246.09,537.02 249.08,536.78 252.08,536.52 255.07,536.25 258.07,535.96 261.06,535.66 264.05,535.34 267.05,535.00 270.04,534.65 273.04,534.28 276.03,533.89 279.02,533.49 282.02,533.07 285.01,532.63 288.01,532.17 291.00,531.69 293.99,531.20 296.99,530.69 299.98,530.17 302.98,529.63 305.97,529.08 308.96,528.52 311.96,527.95 314.95,527.37 317.95,526.79 320.94,526.21 323.93,525.62 326.93,525.04 329.92,524.46 332.92,523.89 335.91,523.33 338.90,522.78 341.90,522.25 344.89,521.73 347.89,521.24 350.88,520.76 353.87,520.31 356.87,519.88 359.86,519.48 362.86,519.11 365.85,518.76 368.84,518.45 371.84,518.16 374.83,517.91 377.83,517.69 380.82,517.50 383.81,517.34 386.81,517.21 389.80,517.11 392.80,517.04 395.79,517.00 398.78,517.00 401.78,517.02 404.77,517.07 407.77,517.15 410.76,517.26 413.75,517.39 416.75,517.55 419.74,517.74 422.74,517.95 425.73,518.19 428.72,518.45 431.72,518.74 434.71,519.04 437.71,519.37 440.70,519.72 443.69,520.09 446.69,520.48 449.68,520.89 452.68,521.31 455.67,521.75 458.66,522.20 461.66,522.66 464.65,523.12 467.65,523.60 470.64,524.08 473.63,524.57 476.63,525.06 479.62,525.54 482.62,526.03 485.61,526.51 488.60,526.99 491.60,527.46 494.59,527.92 497.58,528.38 500.58,528.82 503.57,529.25 506.57,529.67 509.56,530.07 512.55,530.46 515.55,530.84 518.54,531.20 521.54,531.54 524.53,531.88 527.52,532.19 530.52,532.49 533.51,532.78 536.51,533.05 539.50,533.30 542.49,533.55 545.49,533.78 548.48,534.00 551.48,534.21 554.47,534.40 557.46,534.59 560.46,534.77 563.45,534.94 566.45,535.10 569.44,535.26 572.43,535.41 575.43,535.56 578.42,535.70 581.42,535.84 584.41,535.97 587.40,536.11 590.40,536.24 593.39,536.37 596.39,536.50 599.38,536.63 602.37,536.76 605.37,536.90 608.36,537.03 611.36,537.16 614.35,537.29 617.34,537.42 620.34,537.55 623.33,537.68 626.33,537.81 629.32,537.94 632.31,538.06 635.31,538.19 638.30,538.31 641.30,538.43 644.29,538.54 647.28,538.66 650.28,538.76 653.27,538.87 656.27,538.96 659.26,539.06 662.25,539.14 665.25,539.23 668.24,539.30 671.24,539.38 674.23,539.44 677.22,539.51 680.22,539.56 683.21,539.61 686.21,539.66 689.20,539.70 692.19,539.74 695.19,539.78 698.18,539.81 701.18,539.83 704.17,539.86 707.16,539.88 710.16,539.90 713.15,539.91 716.15,539.93 719.14,539.94 722.13,539.95 725.13,539.96 728.12,539.96 731.12,539.97 734.11,539.98 734.11,540.00" stroke="#ff7f0e" stroke-width="0.00" fill="rgba(255,127,14,0.30)"/>
  <polyline points="138.31,539.98 141.30,539.97 144.30,539.96 147.29,539.96 150.28,539.95 153.28,539.94 156.27,539.92 159.26,539.91 162.26,539.89 165.25,539.87 168.25,539.85 171.24,539.83 174.23,539.80 177.23,539.76 180.22,539.73 183.22,539.68 186.21,539.64 189.20,539.59 192.20,539.53 195.19,539.46 198.19,539.39 201.18,539.31 204.17,539.23 207.17,539.13 210.16,539.03 213.16,538.92 216.15,538.80 219.14,538.67 222.14,538.53 225.13,538.38 228.13,538.22 231.12,538.05 234.11,537.87 237.11,537.68 240.10,537.47 243.10,537.26 246.09,537.02 249.08,536.78 252.08,536.52 255.07,536.25 258.07,535.96 261.06,535.66 264.05,535.34 267.05,535.00 270.04,534.65 273.04,534.28 276.03,533.89 279.02,533.49 282.02,533.07 285.01,532.63 288.01,532.17 291.00,531.69 293.99,531.20 296.99,530.69 299.98,530.17 302.98,529.63 305.97,529.08 308.96,528.52 311.96,527.95 314.95,527.37 317.95,526.79 320.94,526.21 323.93,525.62 326.93,525.04 329.92,524.46 332.92,523.89 335.91,523.33 338.90,522.78 341.90,522.25 344.89,521.73 347.89,521.24 350.88,520.76 353.87,520.31 356.87,519.88 359.86,519.48 362.86,519.11 365.85,518.76 368.84,518.45 371.84,518.16 374.83,517.91 377.83,517.69 380.82,517.50 383.81,517.34 386.81,517.21 389.80,517.11 392.80,517.04 395.79,517.00 398.78,517.00 401.78,517.02 404.77,517.07 407.77,517.15 410.76,517.26 413.75,517.39 416.75,517.55 419.74,517.74 422.74,517.95 425.73,518.19 428.72,518.45 431.72,518.74 434.71,519.04 437.71,519.37 440.70,519.72 443.69,520.09 446.69,520.48 449.68,520.89 452.68,521.31 455.67,521.75 458.66,522.20 461.66,522.66 464.65,523.12 467.65,523.60 470.64,524.08 473.63,524.57 476.63,525.06 479.62,525.54 482.62,526.03 485.61,526.51 488.60,526.99 491.60,527.46 494.59,527.92 497.58,528.38 500.58,528.82 503.57,529.25 506.57,529.67 509.56,530.07 512.55,530.46 515.55,530.84 518.54,531.20 521.54,531.54 524.53,531.88 527.52,532.19 530.52,532.49 533.51,532.78 536.51,533.05 539.50,533.30 542.49,533.55 545.49,533.78 548.48,534.00 551.48,534.21 554.47,534.40 557.46,534.59 560.46,534.77 563.45,534.94 566.45,535.10 569.44,535.26 572.43,535.41 575.43,535.56 578.42,535.70 581.42,535.84 584.41,535.97 587.40,536.11 590.40,536.24 593.39,536.37 596.39,536.50 599.38,536.63 602.37,536.76 605.37,536.90 608.36,537.03 611.36,537.16 614.35,537.29 617.34,537.42 620.34,537.55 623.33,537.68 626.33,537.81 629.32,537.94 632.31,538.06 635.31,538.19 638.30,538.31 641.30,538.43 644.29,538.54 647.28,538.66 650.28,538.76 653.27,538.87 656.27,538.96 659.26,539.06 662.25,539.14 665.25,539.23 668.24,539.30 671.24,539.38 674.23,539.44 677.22,539.51 680.22,539.56 683.21,539.61 686.21,539.66 689.20,539.70 692.19,539.74 695.19,539.78 698.18,539.81 701.18,539.83 704.17,539.86 707.16,539.88 710.16,539.90 713.15,539.91 716.15,539.93 719.14,539.94 722.13,539.95 725.13,539.96 728.12,539.96 731.12,539.97 734.11,539.98" stroke="#ff7f0e" stroke-width="2.00" fill="none"/>
  <line x1="273.67" y1="540.00" x2="273.67" y2="532.00" stroke="#2ca02c" stroke-width="0.80"/>
  <line x1="324.58" y1="540.00" x2="324.58" y2="532.00" stroke="#2ca02c" stroke-width="0.80"/>
  <line x1="336.33" y1="540.00" x2="336.33" y2="532.00" stroke="#2ca02c" stroke-width="0.80"/>
  <line x1="348.08" y1="540.00" x2="348.08" y2="532.00" stroke="#2ca02c" stroke-width="0.80"/>
  <line x1="355.92" y1="540.00" x2="355.92" y2="532.00" stroke="#2ca02c" stroke-width="0.80"/>
  <line x1="363.75" y1="540.00" x2="363.75" y2="532.00" stroke="#2ca02c" stroke-width="0.80"/>
  <line x1="371.58" y1="540.00" x2="371.58" y2="532.00" stroke="#2ca02c" stroke-width="0.80"/>
  <line x1="383.33" y1="540.00" x2="383.33" y2="532.00" stroke="#2ca02c" stroke-width="0.80"/>
  <line x1="391.17" y1="540.00" x2="391.17" y2="532.00" stroke="#2ca02c" stroke-width="0.80"/>
  <line x1="402.92" y1="540.00" x2="402.92" y2="532.00" stroke="#2ca02c" stroke-width="0.80"/>
  <line x1="414.67" y1="540.00" x2="414.67" y2="532.00" stroke="#2ca02c" stroke-width="0.80"/>
  <line x1="422.50" y1="540.00" x2="422.50" y2="532.00" stroke="#2ca02c" stroke-width="0.80"/>
  <line x1="430.33" y1="540.00" x2="430.33" y2="532.00" stroke="#2ca02c" stroke-width="0.80"/>
  <line x1="442.08" y1="540.00" x2="442.08" y2="532.00" stroke="#2ca02c" stroke-width="0.80"/>
  <line x1="453.83" y1="540.00" x2="453.83" y2="532.00" stroke="#2ca02c" stroke-width="0.80"/>
  <line x1="461.67" y1="540.00" x2="461.67" y2="532.00" stroke="#2ca02c" stroke-width="0.80"/>
  <line x1="473.42" y1="540.00" x2="473.42" y2="532.00" stroke="#2ca02c" stroke-width="0.80"/>
  <line x1="504.75" y1="540.00" x2="504.75" y2="532.00" stroke="#2ca02c" stroke-width="0.80"/>
  <line x1="540.00" y1="540.00" x2="540.00" y2="532.00" stroke="#2ca02c" stroke-width="0.80"/>
  <line x1="598.75" y1="540.00" x2="598.75" y2="532.00" stroke="#2ca02c" stroke-width="0.80"/>
  <text x="422.50" y="35.00" font-size="16.0" fill="#323232" text-anchor="middle" font-family="sans-serif">Histogram + Density + Rug</text>
  <text x="422.50" y="52.60" font-size="12.0" fill="#808080" text-anchor="middle" font-family="sans-serif">Three-layer distribution view</text>
  <rect x="681.00" y="55.00" width="84.00" height="64.00" fill="rgba(255,255,255,0.90)" stroke="#e5e5e5" stroke-width="0.50"/>
  <rect x="689.00" y="67.00" width="8.00" height="8.00" fill="#1f77b4"/>
  <text x="703.00" y="74.50" font-size="10.0" fill="#323232" text-anchor="start" font-family="sans-serif">Histogram</text>
  <line x1="689.00" y1="87.00" x2="697.00" y2="87.00" stroke="#ff7f0e" stroke-width="2.00"/>
  <text x="703.00" y="90.50" font-size="10.0" fill="#323232" text-anchor="start" font-family="sans-serif">Density</text>
  <rect x="689.00" y="99.00" width="8.00" height="8.00" fill="#2ca02c"/>
  <text x="703.00" y="106.50" font-size="10.0" fill="#323232" text-anchor="start" font-family="sans-serif">Rug</text>
</svg>
