<svg xmlns="http://www.w3.org/2000/svg" width="800" height="600" viewBox="0 0 800 600">
  <rect x="0.00" y="0.00" width="800.00" height="600.00" fill="#ffffff"/>
  <rect x="70.00" y="45.00" width="705.00" height="495.00" fill="#fcfcfc"/>
  <line x1="70.00" y1="540.00" x2="775.00" y2="540.00" stroke="#e6e6e6" stroke-width="0.40"/>
  <line x1="70.00" y1="469.29" x2="775.00" y2="469.29" stroke="#e6e6e6" stroke-width="0.40"/>
  <line x1="70.00" y1="398.57" x2="775.00" y2="398.57" stroke="#e6e6e6" stroke-width="0.40"/>
  <line x1="70.00" y1="327.86" x2="775.00" y2="327.86" stroke="#e6e6e6" stroke-width="0.40"/>
  <line x1="70.00" y1="257.14" x2="775.00" y2="257.14" stroke="#e6e6e6" stroke-width="0.40"/>
  <line x1="70.00" y1="186.43" x2="775.00" y2="186.43" stroke="#e6e6e6" stroke-width="0.40"/>
  <line x1="70.00" y1="115.71" x2="775.00" y2="115.71" stroke="#e6e6e6" stroke-width="0.40"/>
  <line x1="70.00" y1="45.00" x2="775.00" y2="45.00" stroke="#e6e6e6" stroke-width="0.40"/>
  <line x1="187.50" y1="45.00" x2="187.50" y2="540.00" stroke="#e6e6e6" stroke-width="0.40"/>
  <line x1="422.50" y1="45.00" x2="422.50" y2="540.00" stroke="#e6e6e6" stroke-width="0.40"/>
  <line x1="657.50" y1="45.00" x2="657.50" y2="540.00" stroke="#e6e6e6" stroke-width="0.40"/>
  <line x1="70.00" y1="540.00" x2="775.00" y2="540.00" stroke="#505050" stroke-width="1.00"/>
  <line x1="70.00" y1="45.00" x2="70.00" y2="540.00" stroke="#505050" stroke-width="1.00"/>
  <line x1="187.50" y1="540.00" x2="187.50" y2="545.00" stroke="#505050" stroke-width="1.00"/>
  <text x="187.50" y="557.00" font-size="10.0" fill="#323232" text-anchor="middle" font-family="sans-serif">A</text>
  <line x1="422.50" y1="540.00" x2="422.50" y2="545.00" stroke="#505050" stroke-width="1.00"/>
  <text x="422.50" y="557.00" font-size="10.0" fill="#323232" text-anchor="middle" font-family="sans-serif">B</text>
  <line x1="657.50" y1="540.00" x2="657.50" y2="545.00" stroke="#505050" stroke-width="1.00"/>
  <text x="657.50" y="557.00" font-size="10.0" fill="#323232" text-anchor="middle" font-family="sans-serif">C</text>
  <line x1="65.00" y1="540.00" x2="70.00" y2="540.00" stroke="#505050" stroke-width="1.00"/>
  <text x="61.00" y="543.50" font-size="10.0" fill="#323232" text-anchor="end" font-family="sans-serif">1</text>
  <line x1="65.00" y1="469.29" x2="70.00" y2="469.29" stroke="#505050" stroke-width="1.00"/>
  <text x="61.00" y="472.79" font-size="10.0" fill="#323232" text-anchor="end" font-family="sans-serif">2</text>
  <line x1="65.00" y1="398.57" x2="70.00" y2="398.57" stroke="#505050" stroke-width="1.00"/>
  <text x="61.00" y="402.07" font-size="10.0" fill="#323232" text-anchor="end" font-family="sans-serif">3</text>
  <line x1="65.00" y1="327.86" x2="70.00" y2="327.86" stroke="#505050" stroke-width="1.00"/>
  <text x="61.00" y="331.36" font-size="10.0" fill="#323232" text-anchor="end" font-family="sans-serif">4</text>
  <line x1="65.00" y1="257.14" x2="70.00" y2="257.14" stroke="#505050" stroke-width="1.00"/>
  <text x="61.00" y="260.64" font-size="10.0" fill="#323232" text-anchor="end" font-family="sans-serif">5</text>
  <line x1="65.00" y1="186.43" x2="70.00" y2="186.43" stroke="#505050" stroke-width="1.00"/>
  <text x="61.00" y="189.93" font-size="10.0" fill="#323232" text-anchor="end" font-family="sans-serif">6</text>
  <line x1="65.00" y1="115.71" x2="70.00" y2="115.71" stroke="#505050" stroke-width="1.00"/>
  <text x="61.00" y="119.21" font-size="10.0" fill="#323232" text-anchor="end" font-family="sans-serif">7</text>
  <line x1="65.00" y1="45.00" x2="70.00" y2="45.00" stroke="#505050" stroke-width="1.00"/>
  <text x="61.00" y="48.50" font-size="10.0" fill="#323232" text-anchor="end" font-family="sans-serif">8</text>
  <polyline points="187.94,429.31 188.26,423.87 188.79,418.43 189.62,412.99 190.87,407.55 192.67,402.11 195.18,396.67 198.53,391.23 202.84,385.79 208.17,380.35 214.48,374.91 221.64,369.47 229.41,364.03 237.44,358.59 245.33,353.15 252.63,347.71 258.95,342.27 263.95,336.84 267.44,331.40 269.35,325.96 269.75,320.52 268.83,315.08 266.86,309.64 264.13,304.20 260.91,298.76 257.46,293.32 253.93,287.88 250.43,282.44 246.98,277.00 243.56,271.56 240.10,266.12 236.52,260.68 232.75,255.24 228.75,249.80 224.51,244.36 220.10,238.92 215.62,233.48 211.18,228.04 206.94,222.60 203.03,217.16 199.55,211.72 196.58,206.28 194.13,200.84 192.19,195.40 190.71,189.96 189.63,184.52 188.86,179.08 188.35,173.64 188.01,168.20 187.79,162.76 187.21,162.76 186.99,168.20 186.65,173.64 186.14,179.08 185.37,184.52 184.29,189.96 182.81,195.40 180.87,200.84 178.42,206.28 175.45,211.72 171.97,217.16 168.06,222.60 163.82,228.04 159.38,233.48 154.90,238.92 150.49,244.36 146.25,249.80 142.25,255.24 138.48,260.68 134.90,266.12 131.44,271.56 128.02,277.00 124.57,282.44 121.07,287.88 117.54,293.32 114.09,298.76 110.87,304.20 108.14,309.64 106.17,315.08 105.25,320.52 105.65,325.96 107.56,331.40 111.05,336.84 116.05,342.27 122.37,347.71 129.67,353.15 137.56,358.59 145.59,364.03 153.36,369.47 160.52,374.91 166.83,380.35 172.16,385.79 176.47,391.23 179.82,396.67 182.33,402.11 184.13,407.55 185.38,412.99 186.21,418.43 186.74,423.87 187.06,429.31" stroke="#1f77b4" stroke-width="1.00" fill="rgba(31,119,180,0.30)"/>
  <line x1="106.66" y1="313.71" x2="268.34" y2="313.71" stroke="#ffffff" stroke-width="2.00"/>
  <circle cx="187.50" cy="313.71" r="3.00" fill="#ffffff"/>
  <polyline points="422.81,265.95 423.05,259.53 423.42,253.11 424.01,246.69 424.89,240.26 426.14,233.84 427.87,227.42 430.17,221.00 433.11,214.58 436.73,208.16 441.03,201.74 445.94,195.32 451.38,188.90 457.19,182.48 463.22,176.06 469.28,169.64 475.21,163.22 480.86,156.80 486.11,150.38 490.85,143.96 494.99,137.54 498.46,131.11 501.20,124.69 503.18,118.27 504.37,111.85 504.75,105.43 504.33,99.01 503.10,92.59 501.08,86.17 498.26,79.75 494.65,73.33 490.27,66.91 485.19,60.49 479.48,54.07 473.31,47.65 466.84,45.00 460.31,45.00 453.94,45.00 447.96,45.00 442.55,45.00 437.83,45.00 433.88,45.00 430.68,45.00 428.20,45.00 426.34,45.00 425.00,45.00 424.08,45.00 423.46,45.00 423.07,45.00 422.82,45.00 422.18,45.00 421.93,45.00 421.54,45.00 420.92,45.00 420.00,45.00 418.66,45.00 416.80,45.00 414.32,45.00 411.12,45.00 407.17,45.00 402.45,45.00 397.04,45.00 391.06,45.00 384.69,45.00 378.16,45.00 371.69,47.65 365.52,54.07 359.81,60.49 354.73,66.91 350.35,73.33 346.74,79.75 343.92,86.17 341.90,92.59 340.67,99.01 340.25,105.43 340.63,111.85 341.82,118.27 343.80,124.69 346.54,131.11 350.01,137.54 354.15,143.96 358.89,150.38 364.14,156.80 369.79,163.22 375.72,169.64 381.78,176.06 387.81,182.48 393.62,188.90 399.06,195.32 403.97,201.74 408.27,208.16 411.89,214.58 414.83,221.00 417.13,227.42 418.86,233.84 420.11,240.26 420.99,246.69 421.58,253.11 421.95,259.53 422.19,265.95" stroke="#1f77b4" stroke-width="1.00" fill="rgba(31,119,180,0.30)"/>
  <line x1="340.44" y1="108.64" x2="504.56" y2="108.64" stroke="#ffffff" stroke-width="2.00"/>
  <circle cx="422.50" cy="108.64" r="3.00" fill="#ffffff"/>
  <polyline points="657.87,540.00 658.15,540.00 658.59,540.00 659.28,537.60 660.31,532.95 661.79,528.29 663.85,523.63 666.61,518.97 670.16,514.32 674.55,509.66 679.77,505.00 685.73,500.34 692.24,495.68 699.06,491.03 705.89,486.37 712.40,481.71 718.32,477.05 723.43,472.40 727.61,467.74 730.86,463.08 733.29,458.42 735.07,453.77 736.39,449.11 737.44,444.45 738.32,439.79 739.07,435.14 739.60,430.48 739.75,425.82 739.31,421.16 738.05,416.50 735.76,411.85 732.32,407.19 727.70,402.53 722.00,397.87 715.43,393.22 708.26,388.56 700.85,383.90 693.53,379.24 686.62,374.59 680.36,369.93 674.93,365.27 670.39,360.61 666.75,355.96 663.93,351.30 661.83,346.64 660.33,341.98 659.29,337.32 658.60,332.67 658.15,328.01 657.87,323.35 657.13,323.35 656.85,328.01 656.40,332.67 655.71,337.32 654.67,341.98 653.17,346.64 651.07,351.30 648.25,355.96 644.61,360.61 640.07,365.27 634.64,369.93 628.38,374.59 621.47,379.24 614.15,383.90 606.74,388.56 599.57,393.22 593.00,397.87 587.30,402.53 582.68,407.19 579.24,411.85 576.95,416.50 575.69,421.16 575.25,425.82 575.40,430.48 575.93,435.14 576.68,439.79 577.56,444.45 578.61,449.11 579.93,453.77 581.71,458.42 584.14,463.08 587.39,467.74 591.57,472.40 596.68,477.05 602.60,481.71 609.11,486.37 615.94,491.03 622.76,495.68 629.27,500.34 635.23,505.00 640.45,509.66 644.84,514.32 648.39,518.97 651.15,523.63 653.21,528.29 654.69,532.95 655.72,537.60 656.41,540.00 656.85,540.00 657.13,540.00" stroke="#1f77b4" stroke-width="1.00" fill="rgba(31,119,180,0.30)"/>
  <line x1="575.80" y1="433.93" x2="739.20" y2="433.93" stroke="#ffffff" stroke-width="2.00"/>
  <circle cx="657.50" cy="433.93" r="3.00" fill="#ffffff"/>
  <rect x="105.25" y="285.43" width="164.50" height="49.50" fill="rgba(255,127,14,0.30)" stroke="#ff7f0e" stroke-width="1.50"/>
  <line x1="105.25" y1="313.71" x2="269.75" y2="313.71" stroke="#ff7f0e" stroke-width="2.00"/>
  <line x1="187.50" y1="334.93" x2="187.50" y2="342.00" stroke="#ff7f0e" stroke-width="1.00"/>
  <line x1="187.50" y1="285.43" x2="187.50" y2="250.07" stroke="#ff7f0e" stroke-width="1.00"/>
  <line x1="138.15" y1="342.00" x2="236.85" y2="342.00" stroke="#ff7f0e" stroke-width="1.00"/>
  <line x1="138.15" y1="250.07" x2="236.85" y2="250.07" stroke="#ff7f0e" stroke-width="1.00"/>
  <rect x="340.25" y="80.36" width="164.50" height="49.50" fill="rgba(255,127,14,0.30)" stroke="#ff7f0e" stroke-width="1.50"/>
  <line x1="340.25" y1="108.64" x2="504.75" y2="108.64" stroke="#ff7f0e" stroke-width="2.00"/>
  <line x1="422.50" y1="129.86" x2="422.50" y2="165.21" stroke="#ff7f0e" stroke-width="1.00"/>
  <line x1="422.50" y1="80.36" x2="422.50" y2="52.07" stroke="#ff7f0e" stroke-width="1.00"/>
  <line x1="373.15" y1="165.21" x2="471.85" y2="165.21" stroke="#ff7f0e" stroke-width="1.00"/>
  <line x1="373.15" y1="52.07" x2="471.85" y2="52.07" stroke="#ff7f0e" stroke-width="1.00"/>
  <rect x="575.25" y="412.71" width="164.50" height="49.50" fill="rgba(255,127,14,0.30)" stroke="#ff7f0e" stroke-width="1.50"/>
  <line x1="575.25" y1="433.93" x2="739.75" y2="433.93" stroke="#ff7f0e" stroke-width="2.00"/>
  <line x1="657.50" y1="462.21" x2="657.50" y2="476.36" stroke="#ff7f0e" stroke-width="1.00"/>
  <line x1="657.50" y1="412.71" x2="657.50" y2="398.57" stroke="#ff7f0e" stroke-width="1.00"/>
  <line x1="608.15" y1="476.36" x2="706.85" y2="476.36" stroke="#ff7f0e" stroke-width="1.00"/>
  <line x1="608.15" y1="398.57" x2="706.85" y2="398.57" stroke="#ff7f0e" stroke-width="1.00"/>
  <circle cx="117.00" cy="313.71" r="3.00" fill="rgba(44,160,44,0.60)"/>
  <circle cx="187.50" cy="342.00" r="3.00" fill="rgba(44,160,44,0.60)"/>
  <circle cx="152.25" cy="250.07" r="3.00" fill="rgba(44,160,44,0.60)"/>
  <circle cx="222.75" cy="285.43" r="3.00" fill="rgba(44,160,44,0.60)"/>
  <circle cx="134.62" cy="334.93" r="3.00" fill="rgba(44,160,44,0.60)"/>
  <circle cx="352.00" cy="108.64" r="3.00" fill="rgba(44,160,44,0.60)"/>
  <circle cx="422.50" cy="129.86" r="3.00" fill="rgba(44,160,44,0.60)"/>
  <circle cx="387.25" cy="80.36" r="3.00" fill="rgba(44,160,44,0.60)"/>
  <circle cx="457.75" cy="165.21" r="3.00" fill="rgba(44,160,44,0.60)"/>
  <circle cx="369.62" cy="52.07" r="3.00" fill="rgba(44,160,44,0.60)"/>
  <circle cx="587.00" cy="462.21" r="3.00" fill="rgba(44,160,44,0.60)"/>
  <circle cx="657.50" cy="398.57" r="3.00" fill="rgba(44,160,44,0.60)"/>
  <circle cx="622.25" cy="433.93" r="3.00" fill="rgba(44,160,44,0.60)"/>
  <circle cx="692.75" cy="412.71" r="3.00" fill="rgba(44,160,44,0.60)"/>
  <circle cx="604.62" cy="476.36" r="3.00" fill="rgba(44,160,44,0.60)"/>
  <text x="422.50" y="35.00" font-size="16.0" fill="#323232" text-anchor="middle" font-family="sans-serif">Violin + Box + Strip Overlay</text>
  <rect x="699.00" y="55.00" width="66.00" height="64.00" fill="rgba(255,255,255,0.90)" stroke="#e5e5e5" stroke-width="0.50"/>
  <rect x="707.00" y="67.00" width="8.00" height="8.00" fill="#1f77b4"/>
  <text x="721.00" y="74.50" font-size="10.0" fill="#323232" text-anchor="start" font-family="sans-serif">Violin</text>
  <rect x="707.00" y="83.00" width="8.00" height="8.00" fill="#ff7f0e"/>
  <text x="721.00" y="90.50" font-size="10.0" fill="#323232" text-anchor="start" font-family="sans-serif">Box</text>
  <circle cx="711.00" cy="103.00" r="4.00" fill="#2ca02c"/>
  <text x="721.00" y="106.50" font-size="10.0" fill="#323232" text-anchor="start" font-family="sans-serif">Strip</text>
</svg>
