<svg xmlns="http://www.w3.org/2000/svg" width="800" height="600" viewBox="0 0 800 600">
  <rect x="0.00" y="0.00" width="800.00" height="600.00" fill="#ffffff"/>
  <rect x="60.00" y="30.00" width="725.00" height="520.00" fill="#ffffff"/>
  <line x1="60.00" y1="550.00" x2="785.00" y2="550.00" stroke="#f0f0f0" stroke-width="0.30"/>
  <line x1="60.00" y1="463.33" x2="785.00" y2="463.33" stroke="#f0f0f0" stroke-width="0.30"/>
  <line x1="60.00" y1="376.67" x2="785.00" y2="376.67" stroke="#f0f0f0" stroke-width="0.30"/>
  <line x1="60.00" y1="290.00" x2="785.00" y2="290.00" stroke="#f0f0f0" stroke-width="0.30"/>
  <line x1="60.00" y1="203.33" x2="785.00" y2="203.33" stroke="#f0f0f0" stroke-width="0.30"/>
  <line x1="60.00" y1="116.67" x2="785.00" y2="116.67" stroke="#f0f0f0" stroke-width="0.30"/>
  <line x1="60.00" y1="30.00" x2="785.00" y2="30.00" stroke="#f0f0f0" stroke-width="0.30"/>
  <line x1="60.00" y1="30.00" x2="60.00" y2="550.00" stroke="#f0f0f0" stroke-width="0.30"/>
  <line x1="140.56" y1="30.00" x2="140.56" y2="550.00" stroke="#f0f0f0" stroke-width="0.30"/>
  <line x1="221.11" y1="30.00" x2="221.11" y2="550.00" stroke="#f0f0f0" stroke-width="0.30"/>
  <line x1="301.67" y1="30.00" x2="301.67" y2="550.00" stroke="#f0f0f0" stroke-width="0.30"/>
  <line x1="382.22" y1="30.00" x2="382.22" y2="550.00" stroke="#f0f0f0" stroke-width="0.30"/>
  <line x1="462.78" y1="30.00" x2="462.78" y2="550.00" stroke="#f0f0f0" stroke-width="0.30"/>
  <line x1="543.33" y1="30.00" x2="543.33" y2="550.00" stroke="#f0f0f0" stroke-width="0.30"/>
  <line x1="623.89" y1="30.00" x2="623.89" y2="550.00" stroke="#f0f0f0" stroke-width="0.30"/>
  <line x1="704.44" y1="30.00" x2="704.44" y2="550.00" stroke="#f0f0f0" stroke-width="0.30"/>
  <line x1="785.00" y1="30.00" x2="785.00" y2="550.00" stroke="#f0f0f0" stroke-width="0.30"/>
  <line x1="60.00" y1="550.00" x2="785.00" y2="550.00" stroke="#808080" stroke-width="0.50"/>
  <line x1="60.00" y1="30.00" x2="60.00" y2="550.00" stroke="#808080" stroke-width="0.50"/>
  <line x1="60.00" y1="550.00" x2="60.00" y2="554.00" stroke="#808080" stroke-width="0.50"/>
  <text x="60.00" y="565.00" font-size="9.0" fill="#808080" text-anchor="middle" font-family="sans-serif">1</text>
  <line x1="140.56" y1="550.00" x2="140.56" y2="554.00" stroke="#808080" stroke-width="0.50"/>
  <text x="140.56" y="565.00" font-size="9.0" fill="#808080" text-anchor="middle" font-family="sans-serif">2</text>
  <line x1="221.11" y1="550.00" x2="221.11" y2="554.00" stroke="#808080" stroke-width="0.50"/>
  <text x="221.11" y="565.00" font-size="9.0" fill="#808080" text-anchor="middle" font-family="sans-serif">3</text>
  <line x1="301.67" y1="550.00" x2="301.67" y2="554.00" stroke="#808080" stroke-width="0.50"/>
  <text x="301.67" y="565.00" font-size="9.0" fill="#808080" text-anchor="middle" font-family="sans-serif">4</text>
  <line x1="382.22" y1="550.00" x2="382.22" y2="554.00" stroke="#808080" stroke-width="0.50"/>
  <text x="382.22" y="565.00" font-size="9.0" fill="#808080" text-anchor="middle" font-family="sans-serif">5</text>
  <line x1="462.78" y1="550.00" x2="462.78" y2="554.00" stroke="#808080" stroke-width="0.50"/>
  <text x="462.78" y="565.00" font-size="9.0" fill="#808080" text-anchor="middle" font-family="sans-serif">6</text>
  <line x1="543.33" y1="550.00" x2="543.33" y2="554.00" stroke="#808080" stroke-width="0.50"/>
  <text x="543.33" y="565.00" font-size="9.0" fill="#808080" text-anchor="middle" font-family="sans-serif">7</text>
  <line x1="623.89" y1="550.00" x2="623.89" y2="554.00" stroke="#808080" stroke-width="0.50"/>
  <text x="623.89" y="565.00" font-size="9.0" fill="#808080" text-anchor="middle" font-family="sans-serif">8</text>
  <line x1="704.44" y1="550.00" x2="704.44" y2="554.00" stroke="#808080" stroke-width="0.50"/>
  <text x="704.44" y="565.00" font-size="9.0" fill="#808080" text-anchor="middle" font-family="sans-serif">9</text>
  <line x1="785.00" y1="550.00" x2="785.00" y2="554.00" stroke="#808080" stroke-width="0.50"/>
  <text x="785.00" y="565.00" font-size="9.0" fill="#808080" text-anchor="middle" font-family="sans-serif">10</text>
  <line x1="56.00" y1="550.00" x2="60.00" y2="550.00" stroke="#808080" stroke-width="0.50"/>
  <text x="52.00" y="553.15" font-size="9.0" fill="#808080" text-anchor="end" font-family="sans-serif">0</text>
  <line x1="56.00" y1="463.33" x2="60.00" y2="463.33" stroke="#808080" stroke-width="0.50"/>
  <text x="52.00" y="466.48" font-size="9.0" fill="#808080" text-anchor="end" font-family="sans-serif">0.500</text>
  <line x1="56.00" y1="376.67" x2="60.00" y2="376.67" stroke="#808080" stroke-width="0.50"/>
  <text x="52.00" y="379.82" font-size="9.0" fill="#808080" text-anchor="end" font-family="sans-serif">1</text>
  <line x1="56.00" y1="290.00" x2="60.00" y2="290.00" stroke="#808080" stroke-width="0.50"/>
  <text x="52.00" y="293.15" font-size="9.0" fill="#808080" text-anchor="end" font-family="sans-serif">1.50</text>
  <line x1="56.00" y1="203.33" x2="60.00" y2="203.33" stroke="#808080" stroke-width="0.50"/>
  <text x="52.00" y="206.48" font-size="9.0" fill="#808080" text-anchor="end" font-family="sans-serif">2</text>
  <line x1="56.00" y1="116.67" x2="60.00" y2="116.67" stroke="#808080" stroke-width="0.50"/>
  <text x="52.00" y="119.82" font-size="9.0" fill="#808080" text-anchor="end" font-family="sans-serif">2.50</text>
  <line x1="56.00" y1="30.00" x2="60.00" y2="30.00" stroke="#808080" stroke-width="0.50"/>
  <text x="52.00" y="33.15" font-size="9.0" fill="#808080" text-anchor="end" font-family="sans-serif">3</text>
  <rect x="76.11" y="376.67" width="55.72" height="173.33" fill="#1f77b4" stroke="#ffffff" stroke-width="1.00"/>
  <rect x="131.83" y="376.67" width="55.72" height="173.33" fill="#1f77b4" stroke="#ffffff" stroke-width="1.00"/>
  <rect x="187.55" y="203.33" width="55.72" height="346.67" fill="#1f77b4" stroke="#ffffff" stroke-width="1.00"/>
  <rect x="243.26" y="30.00" width="55.72" height="520.00" fill="#1f77b4" stroke="#ffffff" stroke-width="1.00"/>
  <rect x="298.98" y="30.00" width="55.72" height="520.00" fill="#1f77b4" stroke="#ffffff" stroke-width="1.00"/>
  <rect x="354.70" y="30.00" width="55.72" height="520.00" fill="#1f77b4" stroke="#ffffff" stroke-width="1.00"/>
  <rect x="410.42" y="30.00" width="55.72" height="520.00" fill="#1f77b4" stroke="#ffffff" stroke-width="1.00"/>
  <rect x="466.13" y="376.67" width="55.72" height="173.33" fill="#1f77b4" stroke="#ffffff" stroke-width="1.00"/>
  <rect x="521.85" y="376.67" width="55.72" height="173.33" fill="#1f77b4" stroke="#ffffff" stroke-width="1.00"/>
  <rect x="577.57" y="376.67" width="55.72" height="173.33" fill="#1f77b4" stroke="#ffffff" stroke-width="1.00"/>
  <rect x="633.29" y="550.00" width="55.72" height="0.00" fill="#1f77b4" stroke="#ffffff" stroke-width="1.00"/>
  <rect x="689.00" y="376.67" width="55.72" height="173.33" fill="#1f77b4" stroke="#ffffff" stroke-width="1.00"/>
  <text x="422.50" y="20.00" font-size="14.0" fill="#808080" text-anchor="middle" font-family="sans-serif">Histogram — Minimal Theme</text>
</svg>
