<svg xmlns="http://www.w3.org/2000/svg" width="800" height="600" viewBox="0 0 800 600">
  <rect x="0.00" y="0.00" width="800.00" height="600.00" fill="#ffffff"/>
  <rect x="65.00" y="35.00" width="715.00" height="510.00" fill="#ffffff"/>
  <line x1="65.00" y1="545.00" x2="780.00" y2="545.00" stroke="rgba(0,0,0,0.00)" stroke-width="0.00"/>
  <line x1="65.00" y1="472.14" x2="780.00" y2="472.14" stroke="rgba(0,0,0,0.00)" stroke-width="0.00"/>
  <line x1="65.00" y1="399.29" x2="780.00" y2="399.29" stroke="rgba(0,0,0,0.00)" stroke-width="0.00"/>
  <line x1="65.00" y1="326.43" x2="780.00" y2="326.43" stroke="rgba(0,0,0,0.00)" stroke-width="0.00"/>
  <line x1="65.00" y1="253.57" x2="780.00" y2="253.57" stroke="rgba(0,0,0,0.00)" stroke-width="0.00"/>
  <line x1="65.00" y1="180.71" x2="780.00" y2="180.71" stroke="rgba(0,0,0,0.00)" stroke-width="0.00"/>
  <line x1="65.00" y1="107.86" x2="780.00" y2="107.86" stroke="rgba(0,0,0,0.00)" stroke-width="0.00"/>
  <line x1="65.00" y1="35.00" x2="780.00" y2="35.00" stroke="rgba(0,0,0,0.00)" stroke-width="0.00"/>
  <line x1="184.17" y1="35.00" x2="184.17" y2="545.00" stroke="rgba(0,0,0,0.00)" stroke-width="0.00"/>
  <line x1="422.50" y1="35.00" x2="422.50" y2="545.00" stroke="rgba(0,0,0,0.00)" stroke-width="0.00"/>
  <line x1="660.83" y1="35.00" x2="660.83" y2="545.00" stroke="rgba(0,0,0,0.00)" stroke-width="0.00"/>
  <line x1="65.00" y1="545.00" x2="780.00" y2="545.00" stroke="#000000" stroke-width="1.20"/>
  <line x1="65.00" y1="35.00" x2="65.00" y2="545.00" stroke="#000000" stroke-width="1.20"/>
  <line x1="184.17" y1="545.00" x2="184.17" y2="550.00" stroke="#000000" stroke-width="1.20"/>
  <text x="184.17" y="562.00" font-size="10.0" fill="#000000" text-anchor="middle" font-family="sans-serif">A</text>
  <line x1="422.50" y1="545.00" x2="422.50" y2="550.00" stroke="#000000" stroke-width="1.20"/>
  <text x="422.50" y="562.00" font-size="10.0" fill="#000000" text-anchor="middle" font-family="sans-serif">B</text>
  <line x1="660.83" y1="545.00" x2="660.83" y2="550.00" stroke="#000000" stroke-width="1.20"/>
  <text x="660.83" y="562.00" font-size="10.0" fill="#000000" text-anchor="middle" font-family="sans-serif">C</text>
  <line x1="60.00" y1="545.00" x2="65.00" y2="545.00" stroke="#000000" stroke-width="1.20"/>
  <text x="56.00" y="548.50" font-size="10.0" fill="#000000" text-anchor="end" font-family="sans-serif">1</text>
  <line x1="60.00" y1="472.14" x2="65.00" y2="472.14" stroke="#000000" stroke-width="1.20"/>
  <text x="56.00" y="475.64" font-size="10.0" fill="#000000" text-anchor="end" font-family="sans-serif">2</text>
  <line x1="60.00" y1="399.29" x2="65.00" y2="399.29" stroke="#000000" stroke-width="1.20"/>
  <text x="56.00" y="402.79" font-size="10.0" fill="#000000" text-anchor="end" font-family="sans-serif">3</text>
  <line x1="60.00" y1="326.43" x2="65.00" y2="326.43" stroke="#000000" stroke-width="1.20"/>
  <text x="56.00" y="329.93" font-size="10.0" fill="#000000" text-anchor="end" font-family="sans-serif">4</text>
  <line x1="60.00" y1="253.57" x2="65.00" y2="253.57" stroke="#000000" stroke-width="1.20"/>
  <text x="56.00" y="257.07" font-size="10.0" fill="#000000" text-anchor="end" font-family="sans-serif">5</text>
  <line x1="60.00" y1="180.71" x2="65.00" y2="180.71" stroke="#000000" stroke-width="1.20"/>
  <text x="56.00" y="184.21" font-size="10.0" fill="#000000" text-anchor="end" font-family="sans-serif">6</text>
  <line x1="60.00" y1="107.86" x2="65.00" y2="107.86" stroke="#000000" stroke-width="1.20"/>
  <text x="56.00" y="111.36" font-size="10.0" fill="#000000" text-anchor="end" font-family="sans-serif">7</text>
  <line x1="60.00" y1="35.00" x2="65.00" y2="35.00" stroke="#000000" stroke-width="1.20"/>
  <text x="56.00" y="38.50" font-size="10.0" fill="#000000" text-anchor="end" font-family="sans-serif">8</text>
  <polyline points="184.61,430.96 184.94,425.35 185.48,419.75 186.32,414.15 187.58,408.54 189.41,402.94 191.95,397.33 195.35,391.73 199.73,386.12 205.13,380.52 211.53,374.91 218.79,369.31 226.67,363.70 234.82,358.10 242.81,352.49 250.22,346.89 256.63,341.28 261.70,335.68 265.24,330.07 267.17,324.47 267.58,318.86 266.65,313.26 264.66,307.65 261.88,302.05 258.62,296.45 255.12,290.84 251.54,285.24 247.99,279.63 244.49,274.03 241.02,268.42 237.52,262.82 233.89,257.21 230.06,251.61 226.00,246.00 221.71,240.40 217.23,234.79 212.68,229.19 208.18,223.58 203.88,217.98 199.92,212.37 196.39,206.77 193.37,201.16 190.89,195.56 188.92,189.95 187.42,184.35 186.32,178.75 185.55,173.14 185.02,167.54 184.68,161.93 184.46,156.33 183.87,156.33 183.65,161.93 183.31,167.54 182.78,173.14 182.01,178.75 180.91,184.35 179.41,189.95 177.44,195.56 174.96,201.16 171.94,206.77 168.42,212.37 164.45,217.98 160.15,223.58 155.65,229.19 151.10,234.79 146.63,240.40 142.33,246.00 138.27,251.61 134.45,257.21 130.82,262.82 127.31,268.42 123.84,274.03 120.35,279.63 116.80,285.24 113.22,290.84 109.71,296.45 106.45,302.05 103.68,307.65 101.68,313.26 100.75,318.86 101.16,324.47 103.09,330.07 106.63,335.68 111.71,341.28 118.11,346.89 125.52,352.49 133.52,358.10 141.66,363.70 149.54,369.31 156.80,374.91 163.20,380.52 168.61,386.12 172.98,391.73 176.38,397.33 178.92,402.94 180.75,408.54 182.01,414.15 182.85,419.75 183.39,425.35 183.73,430.96" stroke="#1f77b4" stroke-width="1.00" fill="rgba(31,119,180,0.30)"/>
  <line x1="102.18" y1="311.86" x2="266.15" y2="311.86" stroke="#ffffff" stroke-width="2.00"/>
  <circle cx="184.17" cy="311.86" r="3.00" fill="#ffffff"/>
  <polyline points="422.82,262.64 423.05,256.03 423.44,249.41 424.03,242.80 424.92,236.18 426.19,229.57 427.95,222.95 430.28,216.34 433.26,209.72 436.93,203.11 441.29,196.49 446.28,189.88 451.79,183.26 457.68,176.65 463.79,170.03 469.94,163.42 475.96,156.80 481.69,150.19 487.02,143.57 491.82,136.95 496.02,130.34 499.53,123.72 502.32,117.11 504.32,110.49 505.53,103.88 505.92,97.26 505.49,90.65 504.25,84.03 502.19,77.42 499.33,70.80 495.67,64.19 491.23,57.57 486.08,50.96 480.29,44.34 474.03,37.73 467.47,35.00 460.84,35.00 454.39,35.00 448.32,35.00 442.83,35.00 438.05,35.00 434.04,35.00 430.80,35.00 428.28,35.00 426.39,35.00 425.04,35.00 424.10,35.00 423.47,35.00 423.07,35.00 422.83,35.00 422.17,35.00 421.93,35.00 421.53,35.00 420.90,35.00 419.96,35.00 418.61,35.00 416.72,35.00 414.20,35.00 410.96,35.00 406.95,35.00 402.17,35.00 396.68,35.00 390.61,35.00 384.16,35.00 377.53,35.00 370.97,37.73 364.71,44.34 358.92,50.96 353.77,57.57 349.33,64.19 345.67,70.80 342.81,77.42 340.75,84.03 339.51,90.65 339.08,97.26 339.47,103.88 340.68,110.49 342.68,117.11 345.47,123.72 348.98,130.34 353.18,136.95 357.98,143.57 363.31,150.19 369.04,156.80 375.06,163.42 381.21,170.03 387.32,176.65 393.21,183.26 398.72,189.88 403.71,196.49 408.07,203.11 411.74,209.72 414.72,216.34 417.05,222.95 418.81,229.57 420.08,236.18 420.97,242.80 421.56,249.41 421.95,256.03 422.18,262.64" stroke="#1f77b4" stroke-width="1.00" fill="rgba(31,119,180,0.30)"/>
  <line x1="339.28" y1="100.57" x2="505.72" y2="100.57" stroke="#ffffff" stroke-width="2.00"/>
  <circle cx="422.50" cy="100.57" r="3.00" fill="#ffffff"/>
  <polyline points="661.21,545.00 661.49,545.00 661.94,545.00 662.64,542.53 663.68,537.73 665.19,532.93 667.28,528.13 670.07,523.34 673.67,518.54 678.13,513.74 683.42,508.94 689.46,504.14 696.07,499.34 702.99,494.54 709.91,489.74 716.52,484.95 722.52,480.15 727.69,475.35 731.93,470.55 735.24,465.75 737.70,460.95 739.50,456.15 740.85,451.35 741.91,446.56 742.80,441.76 743.56,436.96 744.09,432.16 744.25,427.36 743.80,422.56 742.52,417.76 740.20,412.96 736.71,408.17 732.03,403.37 726.25,398.57 719.58,393.77 712.31,388.97 704.79,384.17 697.37,379.37 690.36,374.57 684.02,369.77 678.51,364.98 673.91,360.18 670.21,355.38 667.36,350.58 665.23,345.78 663.70,340.98 662.65,336.18 661.94,331.38 661.49,326.59 661.21,321.79 660.46,321.79 660.18,326.59 659.72,331.38 659.02,336.18 657.96,340.98 656.44,345.78 654.31,350.58 651.45,355.38 647.76,360.18 643.16,364.98 637.65,369.77 631.30,374.57 624.30,379.37 616.87,384.17 609.35,388.97 602.09,393.77 595.42,398.57 589.64,403.37 584.96,408.17 581.47,412.96 579.15,417.76 577.86,422.56 577.42,427.36 577.57,432.16 578.11,436.96 578.86,441.76 579.76,446.56 580.82,451.35 582.16,456.15 583.96,460.95 586.43,465.75 589.73,470.55 593.97,475.35 599.15,480.15 605.15,484.95 611.76,489.74 618.68,494.54 625.60,499.34 632.20,504.14 638.25,508.94 643.54,513.74 647.99,518.54 651.59,523.34 654.39,528.13 656.48,532.93 657.99,537.73 659.03,542.53 659.73,545.00 660.18,545.00 660.46,545.00" stroke="#1f77b4" stroke-width="1.00" fill="rgba(31,119,180,0.30)"/>
  <line x1="577.97" y1="435.71" x2="743.70" y2="435.71" stroke="#ffffff" stroke-width="2.00"/>
  <circle cx="660.83" cy="435.71" r="3.00" fill="#ffffff"/>
  <text x="422.50" y="25.00" font-size="14.0" fill="#000000" text-anchor="middle" font-family="sans-serif">Violin — Publication Theme</text>
</svg>
