<svg xmlns="http://www.w3.org/2000/svg" width="800" height="600" viewBox="0 0 800 600">
  <rect x="0.00" y="0.00" width="800.00" height="600.00" fill="#ffffff"/>
  <rect x="60.00" y="30.00" width="725.00" height="520.00" fill="#ffffff"/>
  <polyline points="422.50,290.00 422.50,69.00 445.60,70.21 468.45,73.83 490.79,79.82 512.39,88.11 533.00,98.61 552.40,111.21 570.38,125.76 586.74,142.12 601.29,160.10 613.89,179.50 624.39,200.11 632.68,221.71 638.67,244.05 642.29,266.90 643.50,290.00 642.29,313.10 638.67,335.95 632.68,358.29 624.39,379.89 613.89,400.50 601.29,419.90 422.50,290.00" stroke="#ffffff" stroke-width="1.50" fill="#1f77b4"/>
  <text x="550.49" y="224.78" font-size="9.0" fill="#404040" text-anchor="middle" font-family="sans-serif">Rent (35.0%)</text>
  <polyline points="422.50,290.00 601.29,419.90 586.74,437.88 570.38,454.24 552.40,468.79 533.00,481.39 512.39,491.89 490.79,500.18 468.45,506.17 445.60,509.79 422.50,511.00 399.40,509.79 376.55,506.17 354.21,500.18 332.61,491.89 312.00,481.39 292.60,468.79 422.50,290.00" stroke="#ffffff" stroke-width="1.50" fill="#ff7f0e"/>
  <text x="444.97" y="431.88" font-size="9.0" fill="#404040" text-anchor="middle" font-family="sans-serif">Food (25.0%)</text>
  <polyline points="422.50,290.00 292.60,468.79 274.62,454.24 258.26,437.88 243.71,419.90 231.11,400.50 220.61,379.89 212.32,358.29 206.33,335.95 202.71,313.10 201.50,290.00 422.50,290.00" stroke="#ffffff" stroke-width="1.50" fill="#2ca02c"/>
  <text x="294.51" y="355.22" font-size="9.0" fill="#404040" text-anchor="middle" font-family="sans-serif">Transport (15.0%)</text>
  <polyline points="422.50,290.00 201.50,290.00 202.71,266.90 206.33,244.05 212.32,221.71 220.61,200.11 231.11,179.50 243.71,160.10 258.26,142.12 274.62,125.76 292.60,111.21 422.50,290.00" stroke="#ffffff" stroke-width="1.50" fill="#d62728"/>
  <text x="294.51" y="224.78" font-size="9.0" fill="#404040" text-anchor="middle" font-family="sans-serif">Savings (15.0%)</text>
  <polyline points="422.50,290.00 292.60,111.21 312.00,98.61 332.61,88.11 354.21,79.82 376.55,73.83 399.40,70.21 422.50,69.00 422.50,290.00" stroke="#ffffff" stroke-width="1.50" fill="#9467bd"/>
  <text x="378.11" y="153.38" font-size="9.0" fill="#404040" text-anchor="middle" font-family="sans-serif">Entertainment (10.0%)</text>
  <text x="422.50" y="20.00" font-size="14.0" fill="#808080" text-anchor="middle" font-family="sans-serif">Pie Chart — Minimal Theme</text>
</svg>
