<svg xmlns="http://www.w3.org/2000/svg" width="800" height="600" viewBox="0 0 800 600">
  <rect x="0.00" y="0.00" width="800.00" height="600.00" fill="#ffffff"/>
  <rect x="65.00" y="35.00" width="715.00" height="510.00" fill="#ffffff"/>
  <line x1="65.00" y1="545.00" x2="780.00" y2="545.00" stroke="rgba(0,0,0,0.00)" stroke-width="0.00"/>
  <line x1="65.00" y1="494.00" x2="780.00" y2="494.00" stroke="rgba(0,0,0,0.00)" stroke-width="0.00"/>
  <line x1="65.00" y1="443.00" x2="780.00" y2="443.00" stroke="rgba(0,0,0,0.00)" stroke-width="0.00"/>
  <line x1="65.00" y1="392.00" x2="780.00" y2="392.00" stroke="rgba(0,0,0,0.00)" stroke-width="0.00"/>
  <line x1="65.00" y1="341.00" x2="780.00" y2="341.00" stroke="rgba(0,0,0,0.00)" stroke-width="0.00"/>
  <line x1="65.00" y1="290.00" x2="780.00" y2="290.00" stroke="rgba(0,0,0,0.00)" stroke-width="0.00"/>
  <line x1="65.00" y1="239.00" x2="780.00" y2="239.00" stroke="rgba(0,0,0,0.00)" stroke-width="0.00"/>
  <line x1="65.00" y1="188.00" x2="780.00" y2="188.00" stroke="rgba(0,0,0,0.00)" stroke-width="0.00"/>
  <line x1="65.00" y1="137.00" x2="780.00" y2="137.00" stroke="rgba(0,0,0,0.00)" stroke-width="0.00"/>
  <line x1="65.00" y1="86.00" x2="780.00" y2="86.00" stroke="rgba(0,0,0,0.00)" stroke-width="0.00"/>
  <line x1="65.00" y1="35.00" x2="780.00" y2="35.00" stroke="rgba(0,0,0,0.00)" stroke-width="0.00"/>
  <line x1="65.00" y1="35.00" x2="65.00" y2="545.00" stroke="rgba(0,0,0,0.00)" stroke-width="0.00"/>
  <line x1="167.14" y1="35.00" x2="167.14" y2="545.00" stroke="rgba(0,0,0,0.00)" stroke-width="0.00"/>
  <line x1="269.29" y1="35.00" x2="269.29" y2="545.00" stroke="rgba(0,0,0,0.00)" stroke-width="0.00"/>
  <line x1="371.43" y1="35.00" x2="371.43" y2="545.00" stroke="rgba(0,0,0,0.00)" stroke-width="0.00"/>
  <line x1="473.57" y1="35.00" x2="473.57" y2="545.00" stroke="rgba(0,0,0,0.00)" stroke-width="0.00"/>
  <line x1="575.71" y1="35.00" x2="575.71" y2="545.00" stroke="rgba(0,0,0,0.00)" stroke-width="0.00"/>
  <line x1="677.86" y1="35.00" x2="677.86" y2="545.00" stroke="rgba(0,0,0,0.00)" stroke-width="0.00"/>
  <line x1="780.00" y1="35.00" x2="780.00" y2="545.00" stroke="rgba(0,0,0,0.00)" stroke-width="0.00"/>
  <line x1="65.00" y1="545.00" x2="780.00" y2="545.00" stroke="#000000" stroke-width="1.20"/>
  <line x1="65.00" y1="35.00" x2="65.00" y2="545.00" stroke="#000000" stroke-width="1.20"/>
  <line x1="65.00" y1="545.00" x2="65.00" y2="550.00" stroke="#000000" stroke-width="1.20"/>
  <text x="65.00" y="562.00" font-size="10.0" fill="#000000" text-anchor="middle" font-family="sans-serif">1</text>
  <line x1="167.14" y1="545.00" x2="167.14" y2="550.00" stroke="#000000" stroke-width="1.20"/>
  <text x="167.14" y="562.00" font-size="10.0" fill="#000000" text-anchor="middle" font-family="sans-serif">2</text>
  <line x1="269.29" y1="545.00" x2="269.29" y2="550.00" stroke="#000000" stroke-width="1.20"/>
  <text x="269.29" y="562.00" font-size="10.0" fill="#000000" text-anchor="middle" font-family="sans-serif">3</text>
  <line x1="371.43" y1="545.00" x2="371.43" y2="550.00" stroke="#000000" stroke-width="1.20"/>
  <text x="371.43" y="562.00" font-size="10.0" fill="#000000" text-anchor="middle" font-family="sans-serif">4</text>
  <line x1="473.57" y1="545.00" x2="473.57" y2="550.00" stroke="#000000" stroke-width="1.20"/>
  <text x="473.57" y="562.00" font-size="10.0" fill="#000000" text-anchor="middle" font-family="sans-serif">5</text>
  <line x1="575.71" y1="545.00" x2="575.71" y2="550.00" stroke="#000000" stroke-width="1.20"/>
  <text x="575.71" y="562.00" font-size="10.0" fill="#000000" text-anchor="middle" font-family="sans-serif">6</text>
  <line x1="677.86" y1="545.00" x2="677.86" y2="550.00" stroke="#000000" stroke-width="1.20"/>
  <text x="677.86" y="562.00" font-size="10.0" fill="#000000" text-anchor="middle" font-family="sans-serif">7</text>
  <line x1="780.00" y1="545.00" x2="780.00" y2="550.00" stroke="#000000" stroke-width="1.20"/>
  <text x="780.00" y="562.00" font-size="10.0" fill="#000000" text-anchor="middle" font-family="sans-serif">8</text>
  <line x1="60.00" y1="545.00" x2="65.00" y2="545.00" stroke="#000000" stroke-width="1.20"/>
  <text x="56.00" y="548.50" font-size="10.0" fill="#000000" text-anchor="end" font-family="sans-serif">1</text>
  <line x1="60.00" y1="494.00" x2="65.00" y2="494.00" stroke="#000000" stroke-width="1.20"/>
  <text x="56.00" y="497.50" font-size="10.0" fill="#000000" text-anchor="end" font-family="sans-serif">1.20</text>
  <line x1="60.00" y1="443.00" x2="65.00" y2="443.00" stroke="#000000" stroke-width="1.20"/>
  <text x="56.00" y="446.50" font-size="10.0" fill="#000000" text-anchor="end" font-family="sans-serif">1.40</text>
  <line x1="60.00" y1="392.00" x2="65.00" y2="392.00" stroke="#000000" stroke-width="1.20"/>
  <text x="56.00" y="395.50" font-size="10.0" fill="#000000" text-anchor="end" font-family="sans-serif">1.60</text>
  <line x1="60.00" y1="341.00" x2="65.00" y2="341.00" stroke="#000000" stroke-width="1.20"/>
  <text x="56.00" y="344.50" font-size="10.0" fill="#000000" text-anchor="end" font-family="sans-serif">1.80</text>
  <line x1="60.00" y1="290.00" x2="65.00" y2="290.00" stroke="#000000" stroke-width="1.20"/>
  <text x="56.00" y="293.50" font-size="10.0" fill="#000000" text-anchor="end" font-family="sans-serif">2</text>
  <line x1="60.00" y1="239.00" x2="65.00" y2="239.00" stroke="#000000" stroke-width="1.20"/>
  <text x="56.00" y="242.50" font-size="10.0" fill="#000000" text-anchor="end" font-family="sans-serif">2.20</text>
  <line x1="60.00" y1="188.00" x2="65.00" y2="188.00" stroke="#000000" stroke-width="1.20"/>
  <text x="56.00" y="191.50" font-size="10.0" fill="#000000" text-anchor="end" font-family="sans-serif">2.40</text>
  <line x1="60.00" y1="137.00" x2="65.00" y2="137.00" stroke="#000000" stroke-width="1.20"/>
  <text x="56.00" y="140.50" font-size="10.0" fill="#000000" text-anchor="end" font-family="sans-serif">2.60</text>
  <line x1="60.00" y1="86.00" x2="65.00" y2="86.00" stroke="#000000" stroke-width="1.20"/>
  <text x="56.00" y="89.50" font-size="10.0" fill="#000000" text-anchor="end" font-family="sans-serif">2.80</text>
  <line x1="60.00" y1="35.00" x2="65.00" y2="35.00" stroke="#000000" stroke-width="1.20"/>
  <text x="56.00" y="38.50" font-size="10.0" fill="#000000" text-anchor="end" font-family="sans-serif">3</text>
  <polyline points="65.00,545.00 167.14,545.00 167.14,545.00 269.29,545.00 269.29,290.00 371.43,290.00 371.43,290.00 473.57,290.00 473.57,35.00 575.71,35.00 575.71,35.00 677.86,35.00 677.86,290.00 780.00,290.00 780.00,545.00" stroke="#1f77b4" stroke-width="2.00" fill="none"/>
  <text x="422.50" y="25.00" font-size="14.0" fill="#000000" text-anchor="middle" font-family="sans-serif">Step Line — Publication Theme</text>
</svg>
