<svg xmlns="http://www.w3.org/2000/svg" width="800" height="600" viewBox="0 0 800 600">
  <rect x="0.00" y="0.00" width="800.00" height="600.00" fill="#ffffff"/>
  <rect x="60.00" y="30.00" width="725.00" height="520.00" fill="#ffffff"/>
  <line x1="60.00" y1="550.00" x2="785.00" y2="550.00" stroke="#f0f0f0" stroke-width="0.30"/>
  <line x1="60.00" y1="498.00" x2="785.00" y2="498.00" stroke="#f0f0f0" stroke-width="0.30"/>
  <line x1="60.00" y1="446.00" x2="785.00" y2="446.00" stroke="#f0f0f0" stroke-width="0.30"/>
  <line x1="60.00" y1="394.00" x2="785.00" y2="394.00" stroke="#f0f0f0" stroke-width="0.30"/>
  <line x1="60.00" y1="342.00" x2="785.00" y2="342.00" stroke="#f0f0f0" stroke-width="0.30"/>
  <line x1="60.00" y1="290.00" x2="785.00" y2="290.00" stroke="#f0f0f0" stroke-width="0.30"/>
  <line x1="60.00" y1="238.00" x2="785.00" y2="238.00" stroke="#f0f0f0" stroke-width="0.30"/>
  <line x1="60.00" y1="186.00" x2="785.00" y2="186.00" stroke="#f0f0f0" stroke-width="0.30"/>
  <line x1="60.00" y1="134.00" x2="785.00" y2="134.00" stroke="#f0f0f0" stroke-width="0.30"/>
  <line x1="60.00" y1="82.00" x2="785.00" y2="82.00" stroke="#f0f0f0" stroke-width="0.30"/>
  <line x1="60.00" y1="30.00" x2="785.00" y2="30.00" stroke="#f0f0f0" stroke-width="0.30"/>
  <line x1="60.00" y1="30.00" x2="60.00" y2="550.00" stroke="#f0f0f0" stroke-width="0.30"/>
  <line x1="140.56" y1="30.00" x2="140.56" y2="550.00" stroke="#f0f0f0" stroke-width="0.30"/>
  <line x1="221.11" y1="30.00" x2="221.11" y2="550.00" stroke="#f0f0f0" stroke-width="0.30"/>
  <line x1="301.67" y1="30.00" x2="301.67" y2="550.00" stroke="#f0f0f0" stroke-width="0.30"/>
  <line x1="382.22" y1="30.00" x2="382.22" y2="550.00" stroke="#f0f0f0" stroke-width="0.30"/>
  <line x1="462.78" y1="30.00" x2="462.78" y2="550.00" stroke="#f0f0f0" stroke-width="0.30"/>
  <line x1="543.33" y1="30.00" x2="543.33" y2="550.00" stroke="#f0f0f0" stroke-width="0.30"/>
  <line x1="623.89" y1="30.00" x2="623.89" y2="550.00" stroke="#f0f0f0" stroke-width="0.30"/>
  <line x1="704.44" y1="30.00" x2="704.44" y2="550.00" stroke="#f0f0f0" stroke-width="0.30"/>
  <line x1="785.00" y1="30.00" x2="785.00" y2="550.00" stroke="#f0f0f0" stroke-width="0.30"/>
  <line x1="60.00" y1="550.00" x2="785.00" y2="550.00" stroke="#808080" stroke-width="0.50"/>
  <line x1="60.00" y1="30.00" x2="60.00" y2="550.00" stroke="#808080" stroke-width="0.50"/>
  <line x1="60.00" y1="550.00" x2="60.00" y2="554.00" stroke="#808080" stroke-width="0.50"/>
  <text x="60.00" y="565.00" font-size="9.0" fill="#808080" text-anchor="middle" font-family="sans-serif">1</text>
  <line x1="140.56" y1="550.00" x2="140.56" y2="554.00" stroke="#808080" stroke-width="0.50"/>
  <text x="140.56" y="565.00" font-size="9.0" fill="#808080" text-anchor="middle" font-family="sans-serif">2</text>
  <line x1="221.11" y1="550.00" x2="221.11" y2="554.00" stroke="#808080" stroke-width="0.50"/>
  <text x="221.11" y="565.00" font-size="9.0" fill="#808080" text-anchor="middle" font-family="sans-serif">3</text>
  <line x1="301.67" y1="550.00" x2="301.67" y2="554.00" stroke="#808080" stroke-width="0.50"/>
  <text x="301.67" y="565.00" font-size="9.0" fill="#808080" text-anchor="middle" font-family="sans-serif">4</text>
  <line x1="382.22" y1="550.00" x2="382.22" y2="554.00" stroke="#808080" stroke-width="0.50"/>
  <text x="382.22" y="565.00" font-size="9.0" fill="#808080" text-anchor="middle" font-family="sans-serif">5</text>
  <line x1="462.78" y1="550.00" x2="462.78" y2="554.00" stroke="#808080" stroke-width="0.50"/>
  <text x="462.78" y="565.00" font-size="9.0" fill="#808080" text-anchor="middle" font-family="sans-serif">6</text>
  <line x1="543.33" y1="550.00" x2="543.33" y2="554.00" stroke="#808080" stroke-width="0.50"/>
  <text x="543.33" y="565.00" font-size="9.0" fill="#808080" text-anchor="middle" font-family="sans-serif">7</text>
  <line x1="623.89" y1="550.00" x2="623.89" y2="554.00" stroke="#808080" stroke-width="0.50"/>
  <text x="623.89" y="565.00" font-size="9.0" fill="#808080" text-anchor="middle" font-family="sans-serif">8</text>
  <line x1="704.44" y1="550.00" x2="704.44" y2="554.00" stroke="#808080" stroke-width="0.50"/>
  <text x="704.44" y="565.00" font-size="9.0" fill="#808080" text-anchor="middle" font-family="sans-serif">9</text>
  <line x1="785.00" y1="550.00" x2="785.00" y2="554.00" stroke="#808080" stroke-width="0.50"/>
  <text x="785.00" y="565.00" font-size="9.0" fill="#808080" text-anchor="middle" font-family="sans-serif">10</text>
  <line x1="56.00" y1="550.00" x2="60.00" y2="550.00" stroke="#808080" stroke-width="0.50"/>
  <text x="52.00" y="553.15" font-size="9.0" fill="#808080" text-anchor="end" font-family="sans-serif">0</text>
  <line x1="56.00" y1="498.00" x2="60.00" y2="498.00" stroke="#808080" stroke-width="0.50"/>
  <text x="52.00" y="501.15" font-size="9.0" fill="#808080" text-anchor="end" font-family="sans-serif">0.100</text>
  <line x1="56.00" y1="446.00" x2="60.00" y2="446.00" stroke="#808080" stroke-width="0.50"/>
  <text x="52.00" y="449.15" font-size="9.0" fill="#808080" text-anchor="end" font-family="sans-serif">0.200</text>
  <line x1="56.00" y1="394.00" x2="60.00" y2="394.00" stroke="#808080" stroke-width="0.50"/>
  <text x="52.00" y="397.15" font-size="9.0" fill="#808080" text-anchor="end" font-family="sans-serif">0.300</text>
  <line x1="56.00" y1="342.00" x2="60.00" y2="342.00" stroke="#808080" stroke-width="0.50"/>
  <text x="52.00" y="345.15" font-size="9.0" fill="#808080" text-anchor="end" font-family="sans-serif">0.400</text>
  <line x1="56.00" y1="290.00" x2="60.00" y2="290.00" stroke="#808080" stroke-width="0.50"/>
  <text x="52.00" y="293.15" font-size="9.0" fill="#808080" text-anchor="end" font-family="sans-serif">0.500</text>
  <line x1="56.00" y1="238.00" x2="60.00" y2="238.00" stroke="#808080" stroke-width="0.50"/>
  <text x="52.00" y="241.15" font-size="9.0" fill="#808080" text-anchor="end" font-family="sans-serif">0.600</text>
  <line x1="56.00" y1="186.00" x2="60.00" y2="186.00" stroke="#808080" stroke-width="0.50"/>
  <text x="52.00" y="189.15" font-size="9.0" fill="#808080" text-anchor="end" font-family="sans-serif">0.700</text>
  <line x1="56.00" y1="134.00" x2="60.00" y2="134.00" stroke="#808080" stroke-width="0.50"/>
  <text x="52.00" y="137.15" font-size="9.0" fill="#808080" text-anchor="end" font-family="sans-serif">0.800</text>
  <line x1="56.00" y1="82.00" x2="60.00" y2="82.00" stroke="#808080" stroke-width="0.50"/>
  <text x="52.00" y="85.15" font-size="9.0" fill="#808080" text-anchor="end" font-family="sans-serif">0.900</text>
  <line x1="56.00" y1="30.00" x2="60.00" y2="30.00" stroke="#808080" stroke-width="0.50"/>
  <text x="52.00" y="33.15" font-size="9.0" fill="#808080" text-anchor="end" font-family="sans-serif">1</text>
  <polyline points="76.11,524.00 180.83,524.00 180.83,498.00 205.00,498.00 205.00,472.00 229.17,472.00 229.17,446.00 245.28,446.00 245.28,420.00 261.39,420.00 261.39,394.00 277.50,394.00 277.50,368.00 301.67,368.00 301.67,342.00 317.78,342.00 317.78,316.00 341.94,316.00 341.94,290.00 366.11,290.00 366.11,264.00 382.22,264.00 382.22,238.00 398.33,238.00 398.33,212.00 422.50,212.00 422.50,186.00 446.67,186.00 446.67,160.00 462.78,160.00 462.78,134.00 486.94,134.00 486.94,108.00 551.39,108.00 551.39,82.00 623.89,82.00 623.89,56.00 744.72,56.00 744.72,30.00" stroke="#1f77b4" stroke-width="1.50" fill="none"/>
  <text x="422.50" y="20.00" font-size="14.0" fill="#808080" text-anchor="middle" font-family="sans-serif">ECDF — Minimal Theme</text>
</svg>
