<svg xmlns="http://www.w3.org/2000/svg" width="800" height="600" viewBox="0 0 800 600">
  <rect x="0.00" y="0.00" width="800.00" height="600.00" fill="#ffffff"/>
  <rect x="65.00" y="35.00" width="715.00" height="510.00" fill="#ffffff"/>
  <polyline points="422.50,290.00 422.50,73.25 436.11,73.68 449.67,74.96 463.11,77.09 476.40,80.06 489.48,83.86 502.29,88.47 514.79,93.88 526.92,100.06 538.64,106.99 549.90,114.65 560.66,122.99 570.88,132.00 580.50,141.62 589.51,151.84 597.85,162.60 605.51,173.86 612.44,185.58 618.62,197.71 624.03,210.21 628.64,223.02 422.50,290.00" stroke="#ffffff" stroke-width="1.00" fill="rgba(31,119,180,0.70)"/>
  <text x="558.72" y="102.51" font-size="10.0" fill="#000000" text-anchor="middle" font-family="sans-serif">Rent</text>
  <polyline points="422.50,290.00 569.74,242.16 572.46,251.50 574.58,260.99 576.10,270.60 577.02,280.28 577.32,290.00 577.02,299.72 576.10,309.40 574.58,319.01 572.46,328.50 569.74,337.84 566.45,346.99 562.59,355.92 558.17,364.59 553.22,372.96 547.75,381.00 541.79,388.69 535.36,395.98 528.48,402.86 521.19,409.29 513.50,415.25 422.50,290.00" stroke="#ffffff" stroke-width="1.00" fill="rgba(255,127,14,0.70)"/>
  <text x="642.91" y="361.61" font-size="10.0" fill="#000000" text-anchor="middle" font-family="sans-serif">Food</text>
  <polyline points="422.50,290.00 477.10,365.15 472.27,368.43 467.25,371.40 462.05,374.05 456.70,376.37 451.21,378.35 445.60,379.97 439.91,381.25 434.14,382.16 428.33,382.71 422.50,382.89 416.67,382.71 410.86,382.16 405.09,381.25 399.40,379.97 393.79,378.35 388.30,376.37 382.95,374.05 377.75,371.40 372.73,368.43 367.90,365.15 422.50,290.00" stroke="#ffffff" stroke-width="1.00" fill="rgba(44,160,44,0.70)"/>
  <text x="422.50" y="521.75" font-size="10.0" fill="#000000" text-anchor="middle" font-family="sans-serif">Transport</text>
  <polyline points="422.50,290.00 367.90,365.15 363.29,361.58 358.91,357.72 354.78,353.59 350.92,349.21 347.35,344.60 344.07,339.77 341.10,334.75 338.45,329.55 336.13,324.20 334.15,318.71 332.53,313.10 331.25,307.41 330.34,301.64 329.79,295.83 329.61,290.00 329.79,284.17 330.34,278.36 331.25,272.59 332.53,266.90 334.15,261.29 422.50,290.00" stroke="#ffffff" stroke-width="1.00" fill="rgba(214,39,40,0.70)"/>
  <text x="202.09" y="361.61" font-size="10.0" fill="#000000" text-anchor="middle" font-family="sans-serif">Savings</text>
  <polyline points="422.50,290.00 363.60,270.86 364.92,267.20 366.47,263.63 368.23,260.17 370.21,256.82 372.40,253.60 374.78,250.53 377.36,247.61 380.11,244.86 383.03,242.28 386.10,239.90 389.32,237.71 392.67,235.73 396.13,233.97 399.70,232.42 403.36,231.10 407.10,230.02 410.90,229.17 414.74,228.56 418.61,228.19 422.50,228.07 422.50,290.00" stroke="#ffffff" stroke-width="1.00" fill="rgba(148,103,189,0.70)"/>
  <text x="286.28" y="102.51" font-size="10.0" fill="#000000" text-anchor="middle" font-family="sans-serif">Entertainment</text>
  <text x="422.50" y="25.00" font-size="14.0" fill="#000000" text-anchor="middle" font-family="sans-serif">Rose Chart — Publication Theme</text>
</svg>
