<svg xmlns="http://www.w3.org/2000/svg" width="800" height="600" viewBox="0 0 800 600">
  <rect x="0.00" y="0.00" width="800.00" height="600.00" fill="#ffffff"/>
  <rect x="70.00" y="45.00" width="705.00" height="495.00" fill="#fcfcfc"/>
  <line x1="70.00" y1="540.00" x2="775.00" y2="540.00" stroke="#e6e6e6" stroke-width="0.40"/>
  <line x1="70.00" y1="498.75" x2="775.00" y2="498.75" stroke="#e6e6e6" stroke-width="0.40"/>
  <line x1="70.00" y1="457.50" x2="775.00" y2="457.50" stroke="#e6e6e6" stroke-width="0.40"/>
  <line x1="70.00" y1="416.25" x2="775.00" y2="416.25" stroke="#e6e6e6" stroke-width="0.40"/>
  <line x1="70.00" y1="375.00" x2="775.00" y2="375.00" stroke="#e6e6e6" stroke-width="0.40"/>
  <line x1="70.00" y1="333.75" x2="775.00" y2="333.75" stroke="#e6e6e6" stroke-width="0.40"/>
  <line x1="70.00" y1="292.50" x2="775.00" y2="292.50" stroke="#e6e6e6" stroke-width="0.40"/>
  <line x1="70.00" y1="251.25" x2="775.00" y2="251.25" stroke="#e6e6e6" stroke-width="0.40"/>
  <line x1="70.00" y1="210.00" x2="775.00" y2="210.00" stroke="#e6e6e6" stroke-width="0.40"/>
  <line x1="70.00" y1="168.75" x2="775.00" y2="168.75" stroke="#e6e6e6" stroke-width="0.40"/>
  <line x1="70.00" y1="127.50" x2="775.00" y2="127.50" stroke="#e6e6e6" stroke-width="0.40"/>
  <line x1="70.00" y1="86.25" x2="775.00" y2="86.25" stroke="#e6e6e6" stroke-width="0.40"/>
  <line x1="70.00" y1="45.00" x2="775.00" y2="45.00" stroke="#e6e6e6" stroke-width="0.40"/>
  <line x1="70.00" y1="45.00" x2="70.00" y2="540.00" stroke="#e6e6e6" stroke-width="0.40"/>
  <line x1="134.09" y1="45.00" x2="134.09" y2="540.00" stroke="#e6e6e6" stroke-width="0.40"/>
  <line x1="198.18" y1="45.00" x2="198.18" y2="540.00" stroke="#e6e6e6" stroke-width="0.40"/>
  <line x1="262.27" y1="45.00" x2="262.27" y2="540.00" stroke="#e6e6e6" stroke-width="0.40"/>
  <line x1="326.36" y1="45.00" x2="326.36" y2="540.00" stroke="#e6e6e6" stroke-width="0.40"/>
  <line x1="390.45" y1="45.00" x2="390.45" y2="540.00" stroke="#e6e6e6" stroke-width="0.40"/>
  <line x1="454.55" y1="45.00" x2="454.55" y2="540.00" stroke="#e6e6e6" stroke-width="0.40"/>
  <line x1="518.64" y1="45.00" x2="518.64" y2="540.00" stroke="#e6e6e6" stroke-width="0.40"/>
  <line x1="582.73" y1="45.00" x2="582.73" y2="540.00" stroke="#e6e6e6" stroke-width="0.40"/>
  <line x1="646.82" y1="45.00" x2="646.82" y2="540.00" stroke="#e6e6e6" stroke-width="0.40"/>
  <line x1="710.91" y1="45.00" x2="710.91" y2="540.00" stroke="#e6e6e6" stroke-width="0.40"/>
  <line x1="775.00" y1="45.00" x2="775.00" y2="540.00" stroke="#e6e6e6" stroke-width="0.40"/>
  <line x1="70.00" y1="540.00" x2="775.00" y2="540.00" stroke="#505050" stroke-width="1.00"/>
  <line x1="70.00" y1="45.00" x2="70.00" y2="540.00" stroke="#505050" stroke-width="1.00"/>
  <line x1="70.00" y1="540.00" x2="70.00" y2="545.00" stroke="#505050" stroke-width="1.00"/>
  <text x="70.00" y="557.00" font-size="10.0" fill="#323232" text-anchor="middle" font-family="sans-serif">0</text>
  <line x1="134.09" y1="540.00" x2="134.09" y2="545.00" stroke="#505050" stroke-width="1.00"/>
  <text x="134.09" y="557.00" font-size="10.0" fill="#323232" text-anchor="middle" font-family="sans-serif">1</text>
  <line x1="198.18" y1="540.00" x2="198.18" y2="545.00" stroke="#505050" stroke-width="1.00"/>
  <text x="198.18" y="557.00" font-size="10.0" fill="#323232" text-anchor="middle" font-family="sans-serif">2</text>
  <line x1="262.27" y1="540.00" x2="262.27" y2="545.00" stroke="#505050" stroke-width="1.00"/>
  <text x="262.27" y="557.00" font-size="10.0" fill="#323232" text-anchor="middle" font-family="sans-serif">3</text>
  <line x1="326.36" y1="540.00" x2="326.36" y2="545.00" stroke="#505050" stroke-width="1.00"/>
  <text x="326.36" y="557.00" font-size="10.0" fill="#323232" text-anchor="middle" font-family="sans-serif">4</text>
  <line x1="390.45" y1="540.00" x2="390.45" y2="545.00" stroke="#505050" stroke-width="1.00"/>
  <text x="390.45" y="557.00" font-size="10.0" fill="#323232" text-anchor="middle" font-family="sans-serif">5</text>
  <line x1="454.55" y1="540.00" x2="454.55" y2="545.00" stroke="#505050" stroke-width="1.00"/>
  <text x="454.55" y="557.00" font-size="10.0" fill="#323232" text-anchor="middle" font-family="sans-serif">6</text>
  <line x1="518.64" y1="540.00" x2="518.64" y2="545.00" stroke="#505050" stroke-width="1.00"/>
  <text x="518.64" y="557.00" font-size="10.0" fill="#323232" text-anchor="middle" font-family="sans-serif">7</text>
  <line x1="582.73" y1="540.00" x2="582.73" y2="545.00" stroke="#505050" stroke-width="1.00"/>
  <text x="582.73" y="557.00" font-size="10.0" fill="#323232" text-anchor="middle" font-family="sans-serif">8</text>
  <line x1="646.82" y1="540.00" x2="646.82" y2="545.00" stroke="#505050" stroke-width="1.00"/>
  <text x="646.82" y="557.00" font-size="10.0" fill="#323232" text-anchor="middle" font-family="sans-serif">9</text>
  <line x1="710.91" y1="540.00" x2="710.91" y2="545.00" stroke="#505050" stroke-width="1.00"/>
  <text x="710.91" y="557.00" font-size="10.0" fill="#323232" text-anchor="middle" font-family="sans-serif">10</text>
  <line x1="775.00" y1="540.00" x2="775.00" y2="545.00" stroke="#505050" stroke-width="1.00"/>
  <text x="775.00" y="557.00" font-size="10.0" fill="#323232" text-anchor="middle" font-family="sans-serif">11</text>
  <line x1="65.00" y1="540.00" x2="70.00" y2="540.00" stroke="#505050" stroke-width="1.00"/>
  <text x="61.00" y="543.50" font-size="10.0" fill="#323232" text-anchor="end" font-family="sans-serif">0</text>
  <line x1="65.00" y1="498.75" x2="70.00" y2="498.75" stroke="#505050" stroke-width="1.00"/>
  <text x="61.00" y="502.25" font-size="10.0" fill="#323232" text-anchor="end" font-family="sans-serif">0.020</text>
  <line x1="65.00" y1="457.50" x2="70.00" y2="457.50" stroke="#505050" stroke-width="1.00"/>
  <text x="61.00" y="461.00" font-size="10.0" fill="#323232" text-anchor="end" font-family="sans-serif">0.040</text>
  <line x1="65.00" y1="416.25" x2="70.00" y2="416.25" stroke="#505050" stroke-width="1.00"/>
  <text x="61.00" y="419.75" font-size="10.0" fill="#323232" text-anchor="end" font-family="sans-serif">0.060</text>
  <line x1="65.00" y1="375.00" x2="70.00" y2="375.00" stroke="#505050" stroke-width="1.00"/>
  <text x="61.00" y="378.50" font-size="10.0" fill="#323232" text-anchor="end" font-family="sans-serif">0.080</text>
  <line x1="65.00" y1="333.75" x2="70.00" y2="333.75" stroke="#505050" stroke-width="1.00"/>
  <text x="61.00" y="337.25" font-size="10.0" fill="#323232" text-anchor="end" font-family="sans-serif">0.100</text>
  <line x1="65.00" y1="292.50" x2="70.00" y2="292.50" stroke="#505050" stroke-width="1.00"/>
  <text x="61.00" y="296.00" font-size="10.0" fill="#323232" text-anchor="end" font-family="sans-serif">0.120</text>
  <line x1="65.00" y1="251.25" x2="70.00" y2="251.25" stroke="#505050" stroke-width="1.00"/>
  <text x="61.00" y="254.75" font-size="10.0" fill="#323232" text-anchor="end" font-family="sans-serif">0.140</text>
  <line x1="65.00" y1="210.00" x2="70.00" y2="210.00" stroke="#505050" stroke-width="1.00"/>
  <text x="61.00" y="213.50" font-size="10.0" fill="#323232" text-anchor="end" font-family="sans-serif">0.160</text>
  <line x1="65.00" y1="168.75" x2="70.00" y2="168.75" stroke="#505050" stroke-width="1.00"/>
  <text x="61.00" y="172.25" font-size="10.0" fill="#323232" text-anchor="end" font-family="sans-serif">0.180</text>
  <line x1="65.00" y1="127.50" x2="70.00" y2="127.50" stroke="#505050" stroke-width="1.00"/>
  <text x="61.00" y="131.00" font-size="10.0" fill="#323232" text-anchor="end" font-family="sans-serif">0.200</text>
  <line x1="65.00" y1="86.25" x2="70.00" y2="86.25" stroke="#505050" stroke-width="1.00"/>
  <text x="61.00" y="89.75" font-size="10.0" fill="#323232" text-anchor="end" font-family="sans-serif">0.220</text>
  <line x1="65.00" y1="45.00" x2="70.00" y2="45.00" stroke="#505050" stroke-width="1.00"/>
  <text x="61.00" y="48.50" font-size="10.0" fill="#323232" text-anchor="end" font-family="sans-serif">0.240</text>
  <polyline points="89.23,540.00 89.23,538.48 92.48,537.51 95.73,536.03 98.99,533.86 102.24,530.77 105.49,526.52 108.74,520.87 112.00,513.62 115.25,504.65 118.50,493.95 121.76,481.72 125.01,468.31 128.26,454.32 131.51,440.47 134.77,427.65 138.02,416.76 141.27,408.63 144.53,403.91 147.78,402.99 151.03,405.95 154.28,412.53 157.54,422.18 160.79,434.12 164.04,447.43 167.30,461.17 170.55,474.46 173.80,486.52 177.05,496.77 180.31,504.73 183.56,510.10 186.81,512.67 190.07,512.28 193.32,508.83 196.57,502.23 199.82,492.46 203.08,479.55 206.33,463.63 209.58,444.94 212.84,423.89 216.09,401.00 219.34,376.93 222.59,352.36 225.85,328.00 229.10,304.48 232.35,282.28 235.61,261.72 238.86,242.89 242.11,225.72 245.36,209.98 248.62,195.36 251.87,181.49 255.12,168.07 258.38,154.89 261.63,141.86 264.88,129.06 268.13,116.70 271.39,105.10 274.64,94.66 277.89,85.77 281.15,78.80 284.40,74.02 287.65,71.56 290.90,71.42 294.16,73.42 297.41,77.25 300.66,82.47 303.92,88.60 307.17,95.14 310.42,101.66 313.67,107.80 316.93,113.37 320.18,118.33 323.43,122.75 326.69,126.80 329.94,130.68 333.19,134.57 336.44,138.56 339.70,142.60 342.95,146.53 346.20,150.08 349.46,152.89 352.71,154.61 355.96,154.91 359.21,153.58 362.47,150.53 365.72,145.88 368.97,139.90 372.23,133.04 375.48,125.87 378.73,119.02 381.98,113.13 385.24,108.76 388.49,106.34 391.74,106.11 395.00,108.09 398.25,112.09 401.50,117.71 404.75,124.42 408.01,131.59 411.26,138.60 414.51,144.86 417.77,149.93 421.02,153.53 424.27,155.56 427.52,156.16 430.78,155.63 434.03,154.46 437.28,153.23 440.54,152.60 443.79,153.22 447.04,155.70 450.29,160.53 453.55,168.11 456.80,178.65 460.05,192.21 463.31,208.70 466.56,227.86 469.81,249.26 473.06,272.31 476.32,296.28 479.57,320.30 482.82,343.44 486.08,364.74 489.33,383.28 492.58,398.33 495.83,409.36 499.09,416.20 502.34,418.99 505.59,418.28 508.85,414.92 512.10,409.98 515.35,404.69 518.60,400.19 521.86,397.49 525.11,397.27 528.36,399.84 531.62,405.10 534.87,412.55 538.12,421.36 541.37,430.52 544.63,438.95 547.88,445.63 551.13,449.78 554.39,450.90 557.64,448.86 560.89,443.91 564.14,436.69 567.40,428.08 570.65,419.18 573.90,411.14 577.16,405.02 580.41,401.69 583.66,401.71 586.91,405.30 590.17,412.31 593.42,422.26 596.67,434.43 599.93,447.98 603.18,462.02 606.43,475.73 609.68,488.46 612.94,499.70 616.19,509.16 619.44,516.69 622.70,522.27 625.95,525.93 629.20,527.73 632.45,527.71 635.71,525.88 638.96,522.18 642.21,516.56 645.47,508.99 648.72,499.50 651.97,488.23 655.22,475.48 658.48,461.77 661.73,447.77 664.98,434.31 668.24,422.29 671.49,412.59 674.74,405.98 677.99,403.00 681.25,403.91 684.50,408.63 687.75,416.76 691.01,427.65 694.26,440.47 697.51,454.32 700.76,468.31 704.02,481.72 707.27,493.95 710.52,504.65 713.78,513.62 717.03,520.87 720.28,526.52 723.53,530.77 726.79,533.86 730.04,536.03 733.29,537.51 736.55,538.48 736.55,540.00" stroke="#1f77b4" stroke-width="0.00" fill="rgba(31,119,180,0.30)"/>
  <polyline points="89.23,538.48 92.48,537.51 95.73,536.03 98.99,533.86 102.24,530.77 105.49,526.52 108.74,520.87 112.00,513.62 115.25,504.65 118.50,493.95 121.76,481.72 125.01,468.31 128.26,454.32 131.51,440.47 134.77,427.65 138.02,416.76 141.27,408.63 144.53,403.91 147.78,402.99 151.03,405.95 154.28,412.53 157.54,422.18 160.79,434.12 164.04,447.43 167.30,461.17 170.55,474.46 173.80,486.52 177.05,496.77 180.31,504.73 183.56,510.10 186.81,512.67 190.07,512.28 193.32,508.83 196.57,502.23 199.82,492.46 203.08,479.55 206.33,463.63 209.58,444.94 212.84,423.89 216.09,401.00 219.34,376.93 222.59,352.36 225.85,328.00 229.10,304.48 232.35,282.28 235.61,261.72 238.86,242.89 242.11,225.72 245.36,209.98 248.62,195.36 251.87,181.49 255.12,168.07 258.38,154.89 261.63,141.86 264.88,129.06 268.13,116.70 271.39,105.10 274.64,94.66 277.89,85.77 281.15,78.80 284.40,74.02 287.65,71.56 290.90,71.42 294.16,73.42 297.41,77.25 300.66,82.47 303.92,88.60 307.17,95.14 310.42,101.66 313.67,107.80 316.93,113.37 320.18,118.33 323.43,122.75 326.69,126.80 329.94,130.68 333.19,134.57 336.44,138.56 339.70,142.60 342.95,146.53 346.20,150.08 349.46,152.89 352.71,154.61 355.96,154.91 359.21,153.58 362.47,150.53 365.72,145.88 368.97,139.90 372.23,133.04 375.48,125.87 378.73,119.02 381.98,113.13 385.24,108.76 388.49,106.34 391.74,106.11 395.00,108.09 398.25,112.09 401.50,117.71 404.75,124.42 408.01,131.59 411.26,138.60 414.51,144.86 417.77,149.93 421.02,153.53 424.27,155.56 427.52,156.16 430.78,155.63 434.03,154.46 437.28,153.23 440.54,152.60 443.79,153.22 447.04,155.70 450.29,160.53 453.55,168.11 456.80,178.65 460.05,192.21 463.31,208.70 466.56,227.86 469.81,249.26 473.06,272.31 476.32,296.28 479.57,320.30 482.82,343.44 486.08,364.74 489.33,383.28 492.58,398.33 495.83,409.36 499.09,416.20 502.34,418.99 505.59,418.28 508.85,414.92 512.10,409.98 515.35,404.69 518.60,400.19 521.86,397.49 525.11,397.27 528.36,399.84 531.62,405.10 534.87,412.55 538.12,421.36 541.37,430.52 544.63,438.95 547.88,445.63 551.13,449.78 554.39,450.90 557.64,448.86 560.89,443.91 564.14,436.69 567.40,428.08 570.65,419.18 573.90,411.14 577.16,405.02 580.41,401.69 583.66,401.71 586.91,405.30 590.17,412.31 593.42,422.26 596.67,434.43 599.93,447.98 603.18,462.02 606.43,475.73 609.68,488.46 612.94,499.70 616.19,509.16 619.44,516.69 622.70,522.27 625.95,525.93 629.20,527.73 632.45,527.71 635.71,525.88 638.96,522.18 642.21,516.56 645.47,508.99 648.72,499.50 651.97,488.23 655.22,475.48 658.48,461.77 661.73,447.77 664.98,434.31 668.24,422.29 671.49,412.59 674.74,405.98 677.99,403.00 681.25,403.91 684.50,408.63 687.75,416.76 691.01,427.65 694.26,440.47 697.51,454.32 700.76,468.31 704.02,481.72 707.27,493.95 710.52,504.65 713.78,513.62 717.03,520.87 720.28,526.52 723.53,530.77 726.79,533.86 730.04,536.03 733.29,537.51 736.55,538.48" stroke="#1f77b4" stroke-width="2.00" fill="none"/>
  <text x="422.50" y="35.00" font-size="16.0" fill="#323232" text-anchor="middle" font-family="sans-serif">Density bw=0.3 (tight)</text>
</svg>
