<svg xmlns="http://www.w3.org/2000/svg" width="800" height="600" viewBox="0 0 800 600">
  <rect x="0.00" y="0.00" width="800.00" height="600.00" fill="#ffffff"/>
  <rect x="70.00" y="45.00" width="705.00" height="495.00" fill="#fcfcfc"/>
  <line x1="70.00" y1="540.00" x2="775.00" y2="540.00" stroke="#e6e6e6" stroke-width="0.40"/>
  <line x1="70.00" y1="478.12" x2="775.00" y2="478.12" stroke="#e6e6e6" stroke-width="0.40"/>
  <line x1="70.00" y1="416.25" x2="775.00" y2="416.25" stroke="#e6e6e6" stroke-width="0.40"/>
  <line x1="70.00" y1="354.38" x2="775.00" y2="354.38" stroke="#e6e6e6" stroke-width="0.40"/>
  <line x1="70.00" y1="292.50" x2="775.00" y2="292.50" stroke="#e6e6e6" stroke-width="0.40"/>
  <line x1="70.00" y1="230.62" x2="775.00" y2="230.62" stroke="#e6e6e6" stroke-width="0.40"/>
  <line x1="70.00" y1="168.75" x2="775.00" y2="168.75" stroke="#e6e6e6" stroke-width="0.40"/>
  <line x1="70.00" y1="106.87" x2="775.00" y2="106.87" stroke="#e6e6e6" stroke-width="0.40"/>
  <line x1="70.00" y1="45.00" x2="775.00" y2="45.00" stroke="#e6e6e6" stroke-width="0.40"/>
  <line x1="70.00" y1="45.00" x2="70.00" y2="540.00" stroke="#e6e6e6" stroke-width="0.40"/>
  <line x1="134.09" y1="45.00" x2="134.09" y2="540.00" stroke="#e6e6e6" stroke-width="0.40"/>
  <line x1="198.18" y1="45.00" x2="198.18" y2="540.00" stroke="#e6e6e6" stroke-width="0.40"/>
  <line x1="262.27" y1="45.00" x2="262.27" y2="540.00" stroke="#e6e6e6" stroke-width="0.40"/>
  <line x1="326.36" y1="45.00" x2="326.36" y2="540.00" stroke="#e6e6e6" stroke-width="0.40"/>
  <line x1="390.45" y1="45.00" x2="390.45" y2="540.00" stroke="#e6e6e6" stroke-width="0.40"/>
  <line x1="454.55" y1="45.00" x2="454.55" y2="540.00" stroke="#e6e6e6" stroke-width="0.40"/>
  <line x1="518.64" y1="45.00" x2="518.64" y2="540.00" stroke="#e6e6e6" stroke-width="0.40"/>
  <line x1="582.73" y1="45.00" x2="582.73" y2="540.00" stroke="#e6e6e6" stroke-width="0.40"/>
  <line x1="646.82" y1="45.00" x2="646.82" y2="540.00" stroke="#e6e6e6" stroke-width="0.40"/>
  <line x1="710.91" y1="45.00" x2="710.91" y2="540.00" stroke="#e6e6e6" stroke-width="0.40"/>
  <line x1="775.00" y1="45.00" x2="775.00" y2="540.00" stroke="#e6e6e6" stroke-width="0.40"/>
  <line x1="70.00" y1="540.00" x2="775.00" y2="540.00" stroke="#505050" stroke-width="1.00"/>
  <line x1="70.00" y1="45.00" x2="70.00" y2="540.00" stroke="#505050" stroke-width="1.00"/>
  <line x1="70.00" y1="540.00" x2="70.00" y2="545.00" stroke="#505050" stroke-width="1.00"/>
  <text x="70.00" y="557.00" font-size="10.0" fill="#323232" text-anchor="middle" font-family="sans-serif">-6</text>
  <line x1="134.09" y1="540.00" x2="134.09" y2="545.00" stroke="#505050" stroke-width="1.00"/>
  <text x="134.09" y="557.00" font-size="10.0" fill="#323232" text-anchor="middle" font-family="sans-serif">-4</text>
  <line x1="198.18" y1="540.00" x2="198.18" y2="545.00" stroke="#505050" stroke-width="1.00"/>
  <text x="198.18" y="557.00" font-size="10.0" fill="#323232" text-anchor="middle" font-family="sans-serif">-2</text>
  <line x1="262.27" y1="540.00" x2="262.27" y2="545.00" stroke="#505050" stroke-width="1.00"/>
  <text x="262.27" y="557.00" font-size="10.0" fill="#323232" text-anchor="middle" font-family="sans-serif">0</text>
  <line x1="326.36" y1="540.00" x2="326.36" y2="545.00" stroke="#505050" stroke-width="1.00"/>
  <text x="326.36" y="557.00" font-size="10.0" fill="#323232" text-anchor="middle" font-family="sans-serif">2</text>
  <line x1="390.45" y1="540.00" x2="390.45" y2="545.00" stroke="#505050" stroke-width="1.00"/>
  <text x="390.45" y="557.00" font-size="10.0" fill="#323232" text-anchor="middle" font-family="sans-serif">4</text>
  <line x1="454.55" y1="540.00" x2="454.55" y2="545.00" stroke="#505050" stroke-width="1.00"/>
  <text x="454.55" y="557.00" font-size="10.0" fill="#323232" text-anchor="middle" font-family="sans-serif">6</text>
  <line x1="518.64" y1="540.00" x2="518.64" y2="545.00" stroke="#505050" stroke-width="1.00"/>
  <text x="518.64" y="557.00" font-size="10.0" fill="#323232" text-anchor="middle" font-family="sans-serif">8</text>
  <line x1="582.73" y1="540.00" x2="582.73" y2="545.00" stroke="#505050" stroke-width="1.00"/>
  <text x="582.73" y="557.00" font-size="10.0" fill="#323232" text-anchor="middle" font-family="sans-serif">10</text>
  <line x1="646.82" y1="540.00" x2="646.82" y2="545.00" stroke="#505050" stroke-width="1.00"/>
  <text x="646.82" y="557.00" font-size="10.0" fill="#323232" text-anchor="middle" font-family="sans-serif">12</text>
  <line x1="710.91" y1="540.00" x2="710.91" y2="545.00" stroke="#505050" stroke-width="1.00"/>
  <text x="710.91" y="557.00" font-size="10.0" fill="#323232" text-anchor="middle" font-family="sans-serif">14</text>
  <line x1="775.00" y1="540.00" x2="775.00" y2="545.00" stroke="#505050" stroke-width="1.00"/>
  <text x="775.00" y="557.00" font-size="10.0" fill="#323232" text-anchor="middle" font-family="sans-serif">16</text>
  <line x1="65.00" y1="540.00" x2="70.00" y2="540.00" stroke="#505050" stroke-width="1.00"/>
  <text x="61.00" y="543.50" font-size="10.0" fill="#323232" text-anchor="end" font-family="sans-serif">0</text>
  <line x1="65.00" y1="478.12" x2="70.00" y2="478.12" stroke="#505050" stroke-width="1.00"/>
  <text x="61.00" y="481.62" font-size="10.0" fill="#323232" text-anchor="end" font-family="sans-serif">0.020</text>
  <line x1="65.00" y1="416.25" x2="70.00" y2="416.25" stroke="#505050" stroke-width="1.00"/>
  <text x="61.00" y="419.75" font-size="10.0" fill="#323232" text-anchor="end" font-family="sans-serif">0.040</text>
  <line x1="65.00" y1="354.38" x2="70.00" y2="354.38" stroke="#505050" stroke-width="1.00"/>
  <text x="61.00" y="357.88" font-size="10.0" fill="#323232" text-anchor="end" font-family="sans-serif">0.060</text>
  <line x1="65.00" y1="292.50" x2="70.00" y2="292.50" stroke="#505050" stroke-width="1.00"/>
  <text x="61.00" y="296.00" font-size="10.0" fill="#323232" text-anchor="end" font-family="sans-serif">0.080</text>
  <line x1="65.00" y1="230.62" x2="70.00" y2="230.62" stroke="#505050" stroke-width="1.00"/>
  <text x="61.00" y="234.12" font-size="10.0" fill="#323232" text-anchor="end" font-family="sans-serif">0.100</text>
  <line x1="65.00" y1="168.75" x2="70.00" y2="168.75" stroke="#505050" stroke-width="1.00"/>
  <text x="61.00" y="172.25" font-size="10.0" fill="#323232" text-anchor="end" font-family="sans-serif">0.120</text>
  <line x1="65.00" y1="106.87" x2="70.00" y2="106.87" stroke="#505050" stroke-width="1.00"/>
  <text x="61.00" y="110.37" font-size="10.0" fill="#323232" text-anchor="end" font-family="sans-serif">0.140</text>
  <line x1="65.00" y1="45.00" x2="70.00" y2="45.00" stroke="#505050" stroke-width="1.00"/>
  <text x="61.00" y="48.50" font-size="10.0" fill="#323232" text-anchor="end" font-family="sans-serif">0.160</text>
  <polyline points="108.45,540.00 108.45,539.56 111.72,539.48 114.99,539.39 118.26,539.29 121.53,539.17 124.80,539.04 128.07,538.88 131.34,538.70 134.61,538.50 137.88,538.26 141.14,538.00 144.41,537.70 147.68,537.36 150.95,536.97 154.22,536.54 157.49,536.06 160.76,535.51 164.03,534.90 167.30,534.22 170.56,533.46 173.83,532.62 177.10,531.68 180.37,530.65 183.64,529.50 186.91,528.24 190.18,526.85 193.45,525.33 196.72,523.66 199.99,521.83 203.25,519.84 206.52,517.67 209.79,515.31 213.06,512.76 216.33,509.99 219.60,507.00 222.87,503.78 226.14,500.32 229.41,496.60 232.67,492.62 235.94,488.37 239.21,483.83 242.48,479.00 245.75,473.87 249.02,468.43 252.29,462.68 255.56,456.61 258.83,450.21 262.10,443.49 265.36,436.45 268.63,429.08 271.90,421.38 275.17,413.37 278.44,405.04 281.71,396.40 284.98,387.47 288.25,378.26 291.52,368.77 294.79,359.03 298.05,349.05 301.32,338.86 304.59,328.48 307.86,317.92 311.13,307.23 314.40,296.42 317.67,285.53 320.94,274.59 324.21,263.64 327.47,252.70 330.74,241.82 334.01,231.03 337.28,220.37 340.55,209.87 343.82,199.59 347.09,189.54 350.36,179.78 353.63,170.35 356.90,161.27 360.16,152.58 363.43,144.33 366.70,136.54 369.97,129.24 373.24,122.47 376.51,116.24 379.78,110.59 383.05,105.54 386.32,101.11 389.58,97.31 392.85,94.16 396.12,91.66 399.39,89.83 402.66,88.67 405.93,88.18 409.20,88.36 412.47,89.19 415.74,90.69 419.01,92.82 422.27,95.58 425.54,98.96 428.81,102.92 432.08,107.45 435.35,112.53 438.62,118.12 441.89,124.21 445.16,130.75 448.43,137.72 451.70,145.09 454.96,152.82 458.23,160.88 461.50,169.24 464.77,177.85 468.04,186.70 471.31,195.73 474.58,204.93 477.85,214.25 481.12,223.66 484.38,233.14 487.65,242.65 490.92,252.17 494.19,261.67 497.46,271.12 500.73,280.51 504.00,289.80 507.27,298.99 510.54,308.04 513.81,316.95 517.07,325.71 520.34,334.29 523.61,342.69 526.88,350.89 530.15,358.90 533.42,366.71 536.69,374.30 539.96,381.68 543.23,388.84 546.49,395.79 549.76,402.51 553.03,409.03 556.30,415.32 559.57,421.41 562.84,427.28 566.11,432.95 569.38,438.41 572.65,443.68 575.92,448.75 579.18,453.63 582.45,458.32 585.72,462.82 588.99,467.15 592.26,471.31 595.53,475.30 598.80,479.12 602.07,482.78 605.34,486.28 608.61,489.63 611.87,492.82 615.14,495.88 618.41,498.79 621.68,501.56 624.95,504.19 628.22,506.70 631.49,509.07 634.76,511.32 638.03,513.45 641.29,515.46 644.56,517.36 647.83,519.14 651.10,520.82 654.37,522.40 657.64,523.87 660.91,525.25 664.18,526.54 667.45,527.73 670.72,528.85 673.98,529.88 677.25,530.83 680.52,531.72 683.79,532.53 687.06,533.28 690.33,533.96 693.60,534.59 696.87,535.16 700.14,535.68 703.40,536.15 706.67,536.58 709.94,536.97 713.21,537.32 716.48,537.64 719.75,537.92 723.02,538.17 726.29,538.40 729.56,538.60 732.83,538.78 736.09,538.94 739.36,539.08 742.63,539.20 745.90,539.31 749.17,539.40 752.44,539.49 755.71,539.56 758.98,539.62 758.98,540.00" stroke="#1f77b4" stroke-width="0.00" fill="rgba(31,119,180,0.30)"/>
  <polyline points="108.45,539.56 111.72,539.48 114.99,539.39 118.26,539.29 121.53,539.17 124.80,539.04 128.07,538.88 131.34,538.70 134.61,538.50 137.88,538.26 141.14,538.00 144.41,537.70 147.68,537.36 150.95,536.97 154.22,536.54 157.49,536.06 160.76,535.51 164.03,534.90 167.30,534.22 170.56,533.46 173.83,532.62 177.10,531.68 180.37,530.65 183.64,529.50 186.91,528.24 190.18,526.85 193.45,525.33 196.72,523.66 199.99,521.83 203.25,519.84 206.52,517.67 209.79,515.31 213.06,512.76 216.33,509.99 219.60,507.00 222.87,503.78 226.14,500.32 229.41,496.60 232.67,492.62 235.94,488.37 239.21,483.83 242.48,479.00 245.75,473.87 249.02,468.43 252.29,462.68 255.56,456.61 258.83,450.21 262.10,443.49 265.36,436.45 268.63,429.08 271.90,421.38 275.17,413.37 278.44,405.04 281.71,396.40 284.98,387.47 288.25,378.26 291.52,368.77 294.79,359.03 298.05,349.05 301.32,338.86 304.59,328.48 307.86,317.92 311.13,307.23 314.40,296.42 317.67,285.53 320.94,274.59 324.21,263.64 327.47,252.70 330.74,241.82 334.01,231.03 337.28,220.37 340.55,209.87 343.82,199.59 347.09,189.54 350.36,179.78 353.63,170.35 356.90,161.27 360.16,152.58 363.43,144.33 366.70,136.54 369.97,129.24 373.24,122.47 376.51,116.24 379.78,110.59 383.05,105.54 386.32,101.11 389.58,97.31 392.85,94.16 396.12,91.66 399.39,89.83 402.66,88.67 405.93,88.18 409.20,88.36 412.47,89.19 415.74,90.69 419.01,92.82 422.27,95.58 425.54,98.96 428.81,102.92 432.08,107.45 435.35,112.53 438.62,118.12 441.89,124.21 445.16,130.75 448.43,137.72 451.70,145.09 454.96,152.82 458.23,160.88 461.50,169.24 464.77,177.85 468.04,186.70 471.31,195.73 474.58,204.93 477.85,214.25 481.12,223.66 484.38,233.14 487.65,242.65 490.92,252.17 494.19,261.67 497.46,271.12 500.73,280.51 504.00,289.80 507.27,298.99 510.54,308.04 513.81,316.95 517.07,325.71 520.34,334.29 523.61,342.69 526.88,350.89 530.15,358.90 533.42,366.71 536.69,374.30 539.96,381.68 543.23,388.84 546.49,395.79 549.76,402.51 553.03,409.03 556.30,415.32 559.57,421.41 562.84,427.28 566.11,432.95 569.38,438.41 572.65,443.68 575.92,448.75 579.18,453.63 582.45,458.32 585.72,462.82 588.99,467.15 592.26,471.31 595.53,475.30 598.80,479.12 602.07,482.78 605.34,486.28 608.61,489.63 611.87,492.82 615.14,495.88 618.41,498.79 621.68,501.56 624.95,504.19 628.22,506.70 631.49,509.07 634.76,511.32 638.03,513.45 641.29,515.46 644.56,517.36 647.83,519.14 651.10,520.82 654.37,522.40 657.64,523.87 660.91,525.25 664.18,526.54 667.45,527.73 670.72,528.85 673.98,529.88 677.25,530.83 680.52,531.72 683.79,532.53 687.06,533.28 690.33,533.96 693.60,534.59 696.87,535.16 700.14,535.68 703.40,536.15 706.67,536.58 709.94,536.97 713.21,537.32 716.48,537.64 719.75,537.92 723.02,538.17 726.29,538.40 729.56,538.60 732.83,538.78 736.09,538.94 739.36,539.08 742.63,539.20 745.90,539.31 749.17,539.40 752.44,539.49 755.71,539.56 758.98,539.62" stroke="#1f77b4" stroke-width="2.00" fill="none"/>
  <text x="422.50" y="35.00" font-size="16.0" fill="#323232" text-anchor="middle" font-family="sans-serif">Density bw=2.0 (smooth)</text>
</svg>
