<svg xmlns="http://www.w3.org/2000/svg" width="800" height="600" viewBox="0 0 800 600">
  <rect x="0.00" y="0.00" width="800.00" height="600.00" fill="#ffffff"/>
  <rect x="70.00" y="45.00" width="705.00" height="495.00" fill="#fcfcfc"/>
  <line x1="70.00" y1="540.00" x2="775.00" y2="540.00" stroke="#e6e6e6" stroke-width="0.40"/>
  <line x1="70.00" y1="490.50" x2="775.00" y2="490.50" stroke="#e6e6e6" stroke-width="0.40"/>
  <line x1="70.00" y1="441.00" x2="775.00" y2="441.00" stroke="#e6e6e6" stroke-width="0.40"/>
  <line x1="70.00" y1="391.50" x2="775.00" y2="391.50" stroke="#e6e6e6" stroke-width="0.40"/>
  <line x1="70.00" y1="342.00" x2="775.00" y2="342.00" stroke="#e6e6e6" stroke-width="0.40"/>
  <line x1="70.00" y1="292.50" x2="775.00" y2="292.50" stroke="#e6e6e6" stroke-width="0.40"/>
  <line x1="70.00" y1="243.00" x2="775.00" y2="243.00" stroke="#e6e6e6" stroke-width="0.40"/>
  <line x1="70.00" y1="193.50" x2="775.00" y2="193.50" stroke="#e6e6e6" stroke-width="0.40"/>
  <line x1="70.00" y1="144.00" x2="775.00" y2="144.00" stroke="#e6e6e6" stroke-width="0.40"/>
  <line x1="70.00" y1="94.50" x2="775.00" y2="94.50" stroke="#e6e6e6" stroke-width="0.40"/>
  <line x1="70.00" y1="45.00" x2="775.00" y2="45.00" stroke="#e6e6e6" stroke-width="0.40"/>
  <line x1="70.00" y1="45.00" x2="70.00" y2="540.00" stroke="#e6e6e6" stroke-width="0.40"/>
  <line x1="148.33" y1="45.00" x2="148.33" y2="540.00" stroke="#e6e6e6" stroke-width="0.40"/>
  <line x1="226.67" y1="45.00" x2="226.67" y2="540.00" stroke="#e6e6e6" stroke-width="0.40"/>
  <line x1="305.00" y1="45.00" x2="305.00" y2="540.00" stroke="#e6e6e6" stroke-width="0.40"/>
  <line x1="383.33" y1="45.00" x2="383.33" y2="540.00" stroke="#e6e6e6" stroke-width="0.40"/>
  <line x1="461.67" y1="45.00" x2="461.67" y2="540.00" stroke="#e6e6e6" stroke-width="0.40"/>
  <line x1="540.00" y1="45.00" x2="540.00" y2="540.00" stroke="#e6e6e6" stroke-width="0.40"/>
  <line x1="618.33" y1="45.00" x2="618.33" y2="540.00" stroke="#e6e6e6" stroke-width="0.40"/>
  <line x1="696.67" y1="45.00" x2="696.67" y2="540.00" stroke="#e6e6e6" stroke-width="0.40"/>
  <line x1="775.00" y1="45.00" x2="775.00" y2="540.00" stroke="#e6e6e6" stroke-width="0.40"/>
  <line x1="70.00" y1="540.00" x2="775.00" y2="540.00" stroke="#505050" stroke-width="1.00"/>
  <line x1="70.00" y1="45.00" x2="70.00" y2="540.00" stroke="#505050" stroke-width="1.00"/>
  <line x1="70.00" y1="540.00" x2="70.00" y2="545.00" stroke="#505050" stroke-width="1.00"/>
  <text x="70.00" y="557.00" font-size="10.0" fill="#323232" text-anchor="middle" font-family="sans-serif">1</text>
  <line x1="148.33" y1="540.00" x2="148.33" y2="545.00" stroke="#505050" stroke-width="1.00"/>
  <text x="148.33" y="557.00" font-size="10.0" fill="#323232" text-anchor="middle" font-family="sans-serif">2</text>
  <line x1="226.67" y1="540.00" x2="226.67" y2="545.00" stroke="#505050" stroke-width="1.00"/>
  <text x="226.67" y="557.00" font-size="10.0" fill="#323232" text-anchor="middle" font-family="sans-serif">3</text>
  <line x1="305.00" y1="540.00" x2="305.00" y2="545.00" stroke="#505050" stroke-width="1.00"/>
  <text x="305.00" y="557.00" font-size="10.0" fill="#323232" text-anchor="middle" font-family="sans-serif">4</text>
  <line x1="383.33" y1="540.00" x2="383.33" y2="545.00" stroke="#505050" stroke-width="1.00"/>
  <text x="383.33" y="557.00" font-size="10.0" fill="#323232" text-anchor="middle" font-family="sans-serif">5</text>
  <line x1="461.67" y1="540.00" x2="461.67" y2="545.00" stroke="#505050" stroke-width="1.00"/>
  <text x="461.67" y="557.00" font-size="10.0" fill="#323232" text-anchor="middle" font-family="sans-serif">6</text>
  <line x1="540.00" y1="540.00" x2="540.00" y2="545.00" stroke="#505050" stroke-width="1.00"/>
  <text x="540.00" y="557.00" font-size="10.0" fill="#323232" text-anchor="middle" font-family="sans-serif">7</text>
  <line x1="618.33" y1="540.00" x2="618.33" y2="545.00" stroke="#505050" stroke-width="1.00"/>
  <text x="618.33" y="557.00" font-size="10.0" fill="#323232" text-anchor="middle" font-family="sans-serif">8</text>
  <line x1="696.67" y1="540.00" x2="696.67" y2="545.00" stroke="#505050" stroke-width="1.00"/>
  <text x="696.67" y="557.00" font-size="10.0" fill="#323232" text-anchor="middle" font-family="sans-serif">9</text>
  <line x1="775.00" y1="540.00" x2="775.00" y2="545.00" stroke="#505050" stroke-width="1.00"/>
  <text x="775.00" y="557.00" font-size="10.0" fill="#323232" text-anchor="middle" font-family="sans-serif">10</text>
  <line x1="65.00" y1="540.00" x2="70.00" y2="540.00" stroke="#505050" stroke-width="1.00"/>
  <text x="61.00" y="543.50" font-size="10.0" fill="#323232" text-anchor="end" font-family="sans-serif">2</text>
  <line x1="65.00" y1="490.50" x2="70.00" y2="490.50" stroke="#505050" stroke-width="1.00"/>
  <text x="61.00" y="494.00" font-size="10.0" fill="#323232" text-anchor="end" font-family="sans-serif">3</text>
  <line x1="65.00" y1="441.00" x2="70.00" y2="441.00" stroke="#505050" stroke-width="1.00"/>
  <text x="61.00" y="444.50" font-size="10.0" fill="#323232" text-anchor="end" font-family="sans-serif">4</text>
  <line x1="65.00" y1="391.50" x2="70.00" y2="391.50" stroke="#505050" stroke-width="1.00"/>
  <text x="61.00" y="395.00" font-size="10.0" fill="#323232" text-anchor="end" font-family="sans-serif">5</text>
  <line x1="65.00" y1="342.00" x2="70.00" y2="342.00" stroke="#505050" stroke-width="1.00"/>
  <text x="61.00" y="345.50" font-size="10.0" fill="#323232" text-anchor="end" font-family="sans-serif">6</text>
  <line x1="65.00" y1="292.50" x2="70.00" y2="292.50" stroke="#505050" stroke-width="1.00"/>
  <text x="61.00" y="296.00" font-size="10.0" fill="#323232" text-anchor="end" font-family="sans-serif">7</text>
  <line x1="65.00" y1="243.00" x2="70.00" y2="243.00" stroke="#505050" stroke-width="1.00"/>
  <text x="61.00" y="246.50" font-size="10.0" fill="#323232" text-anchor="end" font-family="sans-serif">8</text>
  <line x1="65.00" y1="193.50" x2="70.00" y2="193.50" stroke="#505050" stroke-width="1.00"/>
  <text x="61.00" y="197.00" font-size="10.0" fill="#323232" text-anchor="end" font-family="sans-serif">9</text>
  <line x1="65.00" y1="144.00" x2="70.00" y2="144.00" stroke="#505050" stroke-width="1.00"/>
  <text x="61.00" y="147.50" font-size="10.0" fill="#323232" text-anchor="end" font-family="sans-serif">10</text>
  <line x1="65.00" y1="94.50" x2="70.00" y2="94.50" stroke="#505050" stroke-width="1.00"/>
  <text x="61.00" y="98.00" font-size="10.0" fill="#323232" text-anchor="end" font-family="sans-serif">11</text>
  <line x1="65.00" y1="45.00" x2="70.00" y2="45.00" stroke="#505050" stroke-width="1.00"/>
  <text x="61.00" y="48.50" font-size="10.0" fill="#323232" text-anchor="end" font-family="sans-serif">12</text>
  <circle cx="70.00" cy="525.15" r="4.00" fill="#1f77b4"/>
  <circle cx="148.33" cy="436.05" r="4.00" fill="#1f77b4"/>
  <circle cx="226.67" cy="450.90" r="4.00" fill="#1f77b4"/>
  <circle cx="305.00" cy="282.60" r="4.00" fill="#1f77b4"/>
  <circle cx="383.33" cy="317.25" r="4.00" fill="#1f77b4"/>
  <circle cx="461.67" cy="198.45" r="4.00" fill="#1f77b4"/>
  <circle cx="540.00" cy="252.90" r="4.00" fill="#1f77b4"/>
  <circle cx="618.33" cy="139.05" r="4.00" fill="#1f77b4"/>
  <circle cx="696.67" cy="168.75" r="4.00" fill="#1f77b4"/>
  <circle cx="775.00" cy="79.65" r="4.00" fill="#1f77b4"/>
  <polyline points="70.00,525.15 148.33,436.05 226.67,450.90 305.00,282.60 383.33,317.25 461.67,198.45 540.00,252.90 618.33,139.05 696.67,168.75 775.00,79.65" stroke="#ff7f0e" stroke-width="2.00" fill="none"/>
  <rect x="222.67" y="229.00" width="74.00" height="18.00" fill="rgba(252,252,252,0.85)"/>
  <text x="226.67" y="243.00" font-size="10.0" fill="#323232" text-anchor="start" font-family="sans-serif">A text note</text>
  <rect x="671.00" y="51.00" width="98.00" height="31.00" fill="rgba(252,252,252,0.85)"/>
  <text x="765.00" y="65.00" font-size="10.0" fill="#323232" text-anchor="end" font-family="sans-serif">y = 0.95x + 1.5</text>
  <text x="765.00" y="79.00" font-size="10.0" fill="#323232" text-anchor="end" font-family="sans-serif">R² = 0.9400</text>
  <rect x="623.00" y="79.00" width="146.00" height="18.00" fill="rgba(252,252,252,0.85)"/>
  <text x="765.00" y="93.00" font-size="10.0" fill="#323232" text-anchor="end" font-family="sans-serif">95% CI: [2.300, 11.300]</text>
  <rect x="707.00" y="93.00" width="62.00" height="18.00" fill="rgba(252,252,252,0.85)"/>
  <text x="765.00" y="107.00" font-size="10.0" fill="#323232" text-anchor="end" font-family="sans-serif">p = 0.001</text>
  <line x1="540.00" y1="45.00" x2="540.00" y2="540.00" stroke="#808080" stroke-width="1.00"/>
  <rect x="539.00" y="41.00" width="43.70" height="16.50" fill="rgba(252,252,252,0.85)"/>
  <text x="543.00" y="53.50" font-size="8.5" fill="#808080" text-anchor="start" font-family="sans-serif">Event X</text>
  <rect x="761.00" y="108.00" width="99.80" height="17.00" fill="rgba(252,252,252,0.85)"/>
  <text x="765.00" y="121.00" font-size="9.0" fill="#808080" text-anchor="start" font-family="sans-serif">Note: preliminary</text>
  <rect x="76.00" y="518.00" width="94.40" height="16.00" fill="rgba(252,252,252,0.85)"/>
  <text x="80.00" y="530.00" font-size="8.0" fill="#808080" text-anchor="start" font-family="sans-serif">Source: simulation</text>
  <rect x="776.00" y="61.65" width="29.60" height="17.00" fill="rgba(252,252,252,0.85)"/>
  <text x="780.00" y="74.65" font-size="9.0" fill="#323232" text-anchor="start" font-family="sans-serif">Peak</text>
  <text x="422.50" y="35.00" font-size="16.0" fill="#323232" text-anchor="middle" font-family="sans-serif">ALL Annotations Combined</text>
  <text x="422.50" y="52.60" font-size="12.0" fill="#808080" text-anchor="middle" font-family="sans-serif">Every annotation type on one plot</text>
  <rect x="699.00" y="55.00" width="66.00" height="48.00" fill="rgba(255,255,255,0.90)" stroke="#e5e5e5" stroke-width="0.50"/>
  <circle cx="711.00" cy="71.00" r="4.00" fill="#1f77b4"/>
  <text x="721.00" y="74.50" font-size="10.0" fill="#323232" text-anchor="start" font-family="sans-serif">Points</text>
  <line x1="707.00" y1="87.00" x2="715.00" y2="87.00" stroke="#ff7f0e" stroke-width="2.00"/>
  <text x="721.00" y="90.50" font-size="10.0" fill="#323232" text-anchor="start" font-family="sans-serif">Line</text>
</svg>
