<svg xmlns="http://www.w3.org/2000/svg" width="800" height="600" viewBox="0 0 800 600">
  <rect x="0.00" y="0.00" width="800.00" height="600.00" fill="#ffffff"/>
  <rect x="70.00" y="45.00" width="705.00" height="495.00" fill="#fcfcfc"/>
  <line x1="70.00" y1="540.00" x2="775.00" y2="540.00" stroke="#e6e6e6" stroke-width="0.40"/>
  <line x1="70.00" y1="490.50" x2="775.00" y2="490.50" stroke="#e6e6e6" stroke-width="0.40"/>
  <line x1="70.00" y1="441.00" x2="775.00" y2="441.00" stroke="#e6e6e6" stroke-width="0.40"/>
  <line x1="70.00" y1="391.50" x2="775.00" y2="391.50" stroke="#e6e6e6" stroke-width="0.40"/>
  <line x1="70.00" y1="342.00" x2="775.00" y2="342.00" stroke="#e6e6e6" stroke-width="0.40"/>
  <line x1="70.00" y1="292.50" x2="775.00" y2="292.50" stroke="#e6e6e6" stroke-width="0.40"/>
  <line x1="70.00" y1="243.00" x2="775.00" y2="243.00" stroke="#e6e6e6" stroke-width="0.40"/>
  <line x1="70.00" y1="193.50" x2="775.00" y2="193.50" stroke="#e6e6e6" stroke-width="0.40"/>
  <line x1="70.00" y1="144.00" x2="775.00" y2="144.00" stroke="#e6e6e6" stroke-width="0.40"/>
  <line x1="70.00" y1="94.50" x2="775.00" y2="94.50" stroke="#e6e6e6" stroke-width="0.40"/>
  <line x1="70.00" y1="45.00" x2="775.00" y2="45.00" stroke="#e6e6e6" stroke-width="0.40"/>
  <line x1="70.00" y1="45.00" x2="70.00" y2="540.00" stroke="#e6e6e6" stroke-width="0.40"/>
  <line x1="187.50" y1="45.00" x2="187.50" y2="540.00" stroke="#e6e6e6" stroke-width="0.40"/>
  <line x1="305.00" y1="45.00" x2="305.00" y2="540.00" stroke="#e6e6e6" stroke-width="0.40"/>
  <line x1="422.50" y1="45.00" x2="422.50" y2="540.00" stroke="#e6e6e6" stroke-width="0.40"/>
  <line x1="540.00" y1="45.00" x2="540.00" y2="540.00" stroke="#e6e6e6" stroke-width="0.40"/>
  <line x1="657.50" y1="45.00" x2="657.50" y2="540.00" stroke="#e6e6e6" stroke-width="0.40"/>
  <line x1="775.00" y1="45.00" x2="775.00" y2="540.00" stroke="#e6e6e6" stroke-width="0.40"/>
  <line x1="70.00" y1="540.00" x2="775.00" y2="540.00" stroke="#505050" stroke-width="1.00"/>
  <line x1="70.00" y1="45.00" x2="70.00" y2="540.00" stroke="#505050" stroke-width="1.00"/>
  <line x1="70.00" y1="540.00" x2="70.00" y2="545.00" stroke="#505050" stroke-width="1.00"/>
  <text x="70.00" y="557.00" font-size="10.0" fill="#323232" text-anchor="middle" font-family="sans-serif">0</text>
  <line x1="187.50" y1="540.00" x2="187.50" y2="545.00" stroke="#505050" stroke-width="1.00"/>
  <text x="187.50" y="557.00" font-size="10.0" fill="#323232" text-anchor="middle" font-family="sans-serif">20</text>
  <line x1="305.00" y1="540.00" x2="305.00" y2="545.00" stroke="#505050" stroke-width="1.00"/>
  <text x="305.00" y="557.00" font-size="10.0" fill="#323232" text-anchor="middle" font-family="sans-serif">40</text>
  <line x1="422.50" y1="540.00" x2="422.50" y2="545.00" stroke="#505050" stroke-width="1.00"/>
  <text x="422.50" y="557.00" font-size="10.0" fill="#323232" text-anchor="middle" font-family="sans-serif">60</text>
  <line x1="540.00" y1="540.00" x2="540.00" y2="545.00" stroke="#505050" stroke-width="1.00"/>
  <text x="540.00" y="557.00" font-size="10.0" fill="#323232" text-anchor="middle" font-family="sans-serif">80</text>
  <line x1="657.50" y1="540.00" x2="657.50" y2="545.00" stroke="#505050" stroke-width="1.00"/>
  <text x="657.50" y="557.00" font-size="10.0" fill="#323232" text-anchor="middle" font-family="sans-serif">100</text>
  <line x1="775.00" y1="540.00" x2="775.00" y2="545.00" stroke="#505050" stroke-width="1.00"/>
  <text x="775.00" y="557.00" font-size="10.0" fill="#323232" text-anchor="middle" font-family="sans-serif">120</text>
  <line x1="65.00" y1="540.00" x2="70.00" y2="540.00" stroke="#505050" stroke-width="1.00"/>
  <text x="61.00" y="543.50" font-size="10.0" fill="#323232" text-anchor="end" font-family="sans-serif">0.250</text>
  <line x1="65.00" y1="490.50" x2="70.00" y2="490.50" stroke="#505050" stroke-width="1.00"/>
  <text x="61.00" y="494.00" font-size="10.0" fill="#323232" text-anchor="end" font-family="sans-serif">0.300</text>
  <line x1="65.00" y1="441.00" x2="70.00" y2="441.00" stroke="#505050" stroke-width="1.00"/>
  <text x="61.00" y="444.50" font-size="10.0" fill="#323232" text-anchor="end" font-family="sans-serif">0.350</text>
  <line x1="65.00" y1="391.50" x2="70.00" y2="391.50" stroke="#505050" stroke-width="1.00"/>
  <text x="61.00" y="395.00" font-size="10.0" fill="#323232" text-anchor="end" font-family="sans-serif">0.400</text>
  <line x1="65.00" y1="342.00" x2="70.00" y2="342.00" stroke="#505050" stroke-width="1.00"/>
  <text x="61.00" y="345.50" font-size="10.0" fill="#323232" text-anchor="end" font-family="sans-serif">0.450</text>
  <line x1="65.00" y1="292.50" x2="70.00" y2="292.50" stroke="#505050" stroke-width="1.00"/>
  <text x="61.00" y="296.00" font-size="10.0" fill="#323232" text-anchor="end" font-family="sans-serif">0.500</text>
  <line x1="65.00" y1="243.00" x2="70.00" y2="243.00" stroke="#505050" stroke-width="1.00"/>
  <text x="61.00" y="246.50" font-size="10.0" fill="#323232" text-anchor="end" font-family="sans-serif">0.550</text>
  <line x1="65.00" y1="193.50" x2="70.00" y2="193.50" stroke="#505050" stroke-width="1.00"/>
  <text x="61.00" y="197.00" font-size="10.0" fill="#323232" text-anchor="end" font-family="sans-serif">0.600</text>
  <line x1="65.00" y1="144.00" x2="70.00" y2="144.00" stroke="#505050" stroke-width="1.00"/>
  <text x="61.00" y="147.50" font-size="10.0" fill="#323232" text-anchor="end" font-family="sans-serif">0.650</text>
  <line x1="65.00" y1="94.50" x2="70.00" y2="94.50" stroke="#505050" stroke-width="1.00"/>
  <text x="61.00" y="98.00" font-size="10.0" fill="#323232" text-anchor="end" font-family="sans-serif">0.700</text>
  <line x1="65.00" y1="45.00" x2="70.00" y2="45.00" stroke="#505050" stroke-width="1.00"/>
  <text x="61.00" y="48.50" font-size="10.0" fill="#323232" text-anchor="end" font-family="sans-serif">0.750</text>
  <polyline points="70.00,362.68 75.88,285.12 81.75,433.67 87.62,396.75 93.50,289.79 99.38,265.07 105.25,352.47 111.12,314.11 117.00,237.84 122.88,291.32 128.75,146.28 134.62,278.98 140.50,117.95 146.38,297.31 152.25,178.23 158.12,236.55 164.00,268.96 169.88,293.19 175.75,156.49 181.62,289.14 187.50,278.54 193.38,411.99 199.25,256.00 205.12,395.66 211.00,373.94 216.88,210.89 222.75,194.29 228.62,224.36 234.50,206.61 240.38,170.92 246.25,359.86 252.13,223.06 258.00,525.89 263.88,298.08 269.75,232.68 275.62,336.74 281.50,407.94 287.38,69.10 293.25,99.32 299.12,284.08 305.00,299.96 310.88,201.57 316.75,268.06 322.62,365.94 328.50,258.93 334.38,459.34 340.25,225.74 346.12,274.84 352.00,125.12 357.88,259.18 363.75,353.72 369.62,254.77 375.50,306.96 381.38,348.29 387.25,360.00 393.12,296.95 399.00,242.05 404.88,304.55 410.75,373.12 416.62,413.81 422.50,155.18 428.38,260.37 434.25,231.56 440.12,396.13 446.00,278.92 451.88,337.58 457.75,137.38 463.62,171.12 469.50,262.01 475.37,201.91 481.25,261.27 487.12,338.04 493.00,102.09 498.87,267.40 504.75,311.76 510.62,135.43 516.50,236.63 522.38,154.11 528.25,265.72 534.12,245.61 540.00,125.29 545.88,267.90 551.75,323.69 557.62,215.37 563.50,288.40 569.38,319.68 575.25,288.69 581.12,303.13 587.00,227.71 592.88,386.26 598.75,354.41 604.62,326.20 610.50,214.34 616.38,232.18 622.25,190.38 628.12,329.15 634.00,327.61 639.88,299.79 645.75,309.92 651.62,315.30 657.50,233.38 663.38,182.98 669.25,408.47 675.12,282.41 681.00,236.08 686.88,275.18 692.75,294.37 698.62,397.46 704.50,251.43 710.38,169.21 716.25,286.82 722.12,168.44 728.00,183.97 733.88,267.97 739.75,296.25 745.62,139.46 751.50,322.01 757.38,306.99 763.25,311.13 769.12,224.67" stroke="#1f77b4" stroke-width="2.00" fill="none"/>
  <text x="422.50" y="35.00" font-size="16.0" fill="#323232" text-anchor="middle" font-family="sans-serif">CJC-Lang Chess RL v2.3 — loss</text>
  <text x="422.50" y="595.00" font-size="12.0" fill="#323232" text-anchor="middle" font-family="sans-serif">episode</text>
  <text x="15.00" y="292.50" font-size="12.0" fill="#323232" text-anchor="middle" font-family="sans-serif" transform="rotate(-90.0,15.00,292.50)">loss</text>
</svg>
