<?xml version="1.0" encoding="UTF-8"?>
<svg xmlns="http://www.w3.org/2000/svg" viewBox="0 0 1200 675" width="1200" height="675" font-family="ui-monospace, Menlo, Consolas, monospace">
  <style>
    .title    { font-size: 24px; font-weight: bold; fill: #1a1a1a; }
    .subtitle { font-size: 13px; fill: #555; }
    .axis     { stroke: #888; stroke-width: 1.5; fill: none; }
    .grid     { stroke: #ddd; stroke-width: 1; stroke-dasharray: 2,3; }
    .label    { font-size: 12px; fill: #333; }
    .axis-label { font-size: 13px; fill: #555; font-weight: bold; }
    .value    { font-size: 11px; fill: #fff; font-weight: bold; }
    .bar      { fill: #1976d2; }
    .bar-dead { fill: #c62828; }
    .bar-syn  { fill: #66bb6a; }
    .floor    { stroke: #f57c00; stroke-width: 2; stroke-dasharray: 4,4; }
    .point    { fill: #1976d2; stroke: #0d47a1; stroke-width: 0.8; }
    .diagonal { stroke: #888; stroke-width: 1.5; stroke-dasharray: 3,3; }
    .footer   { font-size: 10px; fill: #999; }
  </style>
  <rect width="100%" height="100%" fill="#fafafa" />
  <text x="40" y="46" class="title">Wisconsin BC per-leaf calibration — Real BC seed=1</text>
  <text x="40" y="68" class="subtitle">10 populated leaves with test samples · x=mean predicted prob · y=empirical accuracy · point area ∝ n_test · dashed = perfect calibration</text>
  <line x1="160" y1="130" x2="160" y2="580" class="axis" />
  <line x1="160" y1="580" x2="1120" y2="580" class="axis" />
  <line x1="160" y1="580" x2="1120" y2="580" class="grid" />
  <text x="152" y="584" text-anchor="end" class="label">0.00</text>
  <line x1="160" y1="130" x2="160" y2="580" class="grid" />
  <text x="160" y="596" text-anchor="middle" class="label">0.00</text>
  <line x1="160" y1="468" x2="1120" y2="468" class="grid" />
  <text x="152" y="472" text-anchor="end" class="label">0.25</text>
  <line x1="400" y1="130" x2="400" y2="580" class="grid" />
  <text x="400" y="596" text-anchor="middle" class="label">0.25</text>
  <line x1="160" y1="355" x2="1120" y2="355" class="grid" />
  <text x="152" y="359" text-anchor="end" class="label">0.50</text>
  <line x1="640" y1="130" x2="640" y2="580" class="grid" />
  <text x="640" y="596" text-anchor="middle" class="label">0.50</text>
  <line x1="160" y1="243" x2="1120" y2="243" class="grid" />
  <text x="152" y="247" text-anchor="end" class="label">0.75</text>
  <line x1="880" y1="130" x2="880" y2="580" class="grid" />
  <text x="880" y="596" text-anchor="middle" class="label">0.75</text>
  <line x1="160" y1="130" x2="1120" y2="130" class="grid" />
  <text x="152" y="134" text-anchor="end" class="label">1.00</text>
  <line x1="1120" y1="130" x2="1120" y2="580" class="grid" />
  <text x="1120" y="596" text-anchor="middle" class="label">1.00</text>
  <line x1="160" y1="580" x2="1120" y2="130" class="diagonal" />
  <circle cx="162" cy="130" r="13.0" fill="#f57c00" fill-opacity="0.6" stroke="#1a1a1a" stroke-width="0.8" />
  <text x="162" y="134" text-anchor="middle" class="label" font-size="10" fill="#1a1a1a">L15</text>
  <circle cx="160" cy="130" r="4.3" fill="#f57c00" fill-opacity="0.6" stroke="#1a1a1a" stroke-width="0.8" />
  <text x="160" y="134" text-anchor="middle" class="label" font-size="10" fill="#1a1a1a">L16</text>
  <circle cx="501" cy="280" r="5.3" fill="#f57c00" fill-opacity="0.6" stroke="#1a1a1a" stroke-width="0.8" />
  <text x="501" y="284" text-anchor="middle" class="label" font-size="10" fill="#1a1a1a">L18</text>
  <circle cx="160" cy="130" r="4.3" fill="#f57c00" fill-opacity="0.6" stroke="#1a1a1a" stroke-width="0.8" />
  <text x="160" y="134" text-anchor="middle" class="label" font-size="10" fill="#1a1a1a">L19</text>
  <circle cx="543" cy="130" r="4.3" fill="#f57c00" fill-opacity="0.6" stroke="#1a1a1a" stroke-width="0.8" />
  <text x="543" y="134" text-anchor="middle" class="label" font-size="10" fill="#1a1a1a">L22</text>
  <circle cx="225" cy="130" r="5.6" fill="#f57c00" fill-opacity="0.6" stroke="#1a1a1a" stroke-width="0.8" />
  <text x="225" y="134" text-anchor="middle" class="label" font-size="10" fill="#1a1a1a">L23</text>
  <circle cx="251" cy="355" r="5.6" fill="#f57c00" fill-opacity="0.6" stroke="#1a1a1a" stroke-width="0.8" />
  <text x="251" y="359" text-anchor="middle" class="label" font-size="10" fill="#1a1a1a">L26</text>
  <circle cx="237" cy="280" r="5.3" fill="#f57c00" fill-opacity="0.6" stroke="#1a1a1a" stroke-width="0.8" />
  <text x="237" y="284" text-anchor="middle" class="label" font-size="10" fill="#1a1a1a">L27</text>
  <circle cx="657" cy="355" r="4.8" fill="#66bb6a" fill-opacity="0.6" stroke="#1a1a1a" stroke-width="0.8" />
  <text x="657" y="359" text-anchor="middle" class="label" font-size="10" fill="#1a1a1a">L29</text>
  <circle cx="806" cy="155" r="10.9" fill="#f57c00" fill-opacity="0.6" stroke="#1a1a1a" stroke-width="0.8" />
  <text x="806" y="159" text-anchor="middle" class="label" font-size="10" fill="#1a1a1a">L30</text>
  <text x="640" y="612" text-anchor="middle" class="axis-label">mean predicted probability (ensemble)</text>
  <text x="100" y="355" text-anchor="middle" class="axis-label" transform="rotate(-90 100 355)">empirical test accuracy</text>
  <text x="40" y="657" class="footer">CJC-Lang ABNG · Phase 0.9 baseline · 2026-05-16 · github.com/sethorus30 (rendered deterministically from `cargo test --ignored baseline_wisconsin_bc_produce_artifacts`)</text>
</svg>
