<?xml version="1.0" encoding="UTF-8"?>
<svg xmlns="http://www.w3.org/2000/svg" viewBox="0 0 1200 675" width="1200" height="675" font-family="ui-monospace, Menlo, Consolas, monospace">
  <style>
    .title    { font-size: 24px; font-weight: bold; fill: #1a1a1a; }
    .subtitle { font-size: 13px; fill: #555; }
    .axis     { stroke: #888; stroke-width: 1.5; fill: none; }
    .grid     { stroke: #ddd; stroke-width: 1; stroke-dasharray: 2,3; }
    .label    { font-size: 12px; fill: #333; }
    .axis-label { font-size: 13px; fill: #555; font-weight: bold; }
    .value    { font-size: 11px; fill: #fff; font-weight: bold; }
    .bar      { fill: #1976d2; }
    .bar-dead { fill: #c62828; }
    .bar-syn  { fill: #66bb6a; }
    .floor    { stroke: #f57c00; stroke-width: 2; stroke-dasharray: 4,4; }
    .point    { fill: #1976d2; stroke: #0d47a1; stroke-width: 0.8; }
    .diagonal { stroke: #888; stroke-width: 1.5; stroke-dasharray: 3,3; }
    .footer   { font-size: 10px; fill: #999; }
  </style>
  <rect width="100%" height="100%" fill="#fafafa" />
  <text x="40" y="46" class="title">Wisconsin BC per-seed wall-clock — Real BC, leaf+root ensemble</text>
  <text x="40" y="68" class="subtitle">15 seeds · total 4998 ms · per-seed max 1454 ms · NON-DETERMINISTIC (clock readings vary)</text>
  <line x1="120" y1="130" x2="120" y2="580" class="axis" />
  <line x1="120" y1="580" x2="1120" y2="580" class="axis" />
  <line x1="120" y1="580" x2="1120" y2="580" class="grid" />
  <text x="112" y="584" text-anchor="end" class="label">0</text>
  <line x1="120" y1="490" x2="1120" y2="490" class="grid" />
  <text x="112" y="494" text-anchor="end" class="label">300</text>
  <line x1="120" y1="400" x2="1120" y2="400" class="grid" />
  <text x="112" y="404" text-anchor="end" class="label">600</text>
  <line x1="120" y1="310" x2="1120" y2="310" class="grid" />
  <text x="112" y="314" text-anchor="end" class="label">900</text>
  <line x1="120" y1="220" x2="1120" y2="220" class="grid" />
  <text x="112" y="224" text-anchor="end" class="label">1200</text>
  <line x1="120" y1="130" x2="1120" y2="130" class="grid" />
  <text x="112" y="134" text-anchor="end" class="label">1500</text>
  <rect x="130" y="536" width="46" height="44" class="bar" />
  <text x="153" y="596" text-anchor="middle" class="label">1</text>
  <text x="153" y="530" text-anchor="middle" class="label" fill="#0d47a1">147</text>
  <rect x="196" y="537" width="46" height="43" class="bar" />
  <text x="219" y="596" text-anchor="middle" class="label">2</text>
  <text x="219" y="531" text-anchor="middle" class="label" fill="#0d47a1">145</text>
  <rect x="262" y="535" width="46" height="45" class="bar" />
  <text x="285" y="596" text-anchor="middle" class="label">3</text>
  <text x="285" y="529" text-anchor="middle" class="label" fill="#0d47a1">150</text>
  <rect x="328" y="538" width="46" height="42" class="bar" />
  <text x="351" y="596" text-anchor="middle" class="label">4</text>
  <text x="351" y="532" text-anchor="middle" class="label" fill="#0d47a1">142</text>
  <rect x="394" y="541" width="46" height="39" class="bar" />
  <text x="417" y="596" text-anchor="middle" class="label">5</text>
  <text x="417" y="535" text-anchor="middle" class="label" fill="#0d47a1">133</text>
  <rect x="460" y="487" width="46" height="93" class="bar" />
  <text x="483" y="596" text-anchor="middle" class="label">6</text>
  <text x="483" y="481" text-anchor="middle" class="label" fill="#0d47a1">310</text>
  <rect x="526" y="527" width="46" height="53" class="bar" />
  <text x="549" y="596" text-anchor="middle" class="label">7</text>
  <text x="549" y="521" text-anchor="middle" class="label" fill="#0d47a1">178</text>
  <rect x="592" y="517" width="46" height="63" class="bar" />
  <text x="615" y="596" text-anchor="middle" class="label">8</text>
  <text x="615" y="511" text-anchor="middle" class="label" fill="#0d47a1">210</text>
  <rect x="658" y="526" width="46" height="54" class="bar" />
  <text x="681" y="596" text-anchor="middle" class="label">9</text>
  <text x="681" y="520" text-anchor="middle" class="label" fill="#0d47a1">182</text>
  <rect x="724" y="517" width="46" height="63" class="bar" />
  <text x="747" y="596" text-anchor="middle" class="label">10</text>
  <text x="747" y="511" text-anchor="middle" class="label" fill="#0d47a1">213</text>
  <rect x="790" y="502" width="46" height="78" class="bar" />
  <text x="813" y="596" text-anchor="middle" class="label">11</text>
  <text x="813" y="496" text-anchor="middle" class="label" fill="#0d47a1">261</text>
  <rect x="856" y="144" width="46" height="436" class="bar" />
  <text x="879" y="596" text-anchor="middle" class="label">12</text>
  <text x="879" y="138" text-anchor="middle" class="label" fill="#0d47a1">1454</text>
  <rect x="922" y="467" width="46" height="113" class="bar" />
  <text x="945" y="596" text-anchor="middle" class="label">13</text>
  <text x="945" y="461" text-anchor="middle" class="label" fill="#0d47a1">378</text>
  <rect x="988" y="526" width="46" height="54" class="bar" />
  <text x="1011" y="596" text-anchor="middle" class="label">14</text>
  <text x="1011" y="520" text-anchor="middle" class="label" fill="#0d47a1">182</text>
  <rect x="1054" y="307" width="46" height="273" class="bar" />
  <text x="1077" y="596" text-anchor="middle" class="label">15</text>
  <text x="1077" y="301" text-anchor="middle" class="label" fill="#0d47a1">913</text>
  <text x="620" y="612" text-anchor="middle" class="axis-label">seed</text>
  <text x="80" y="355" text-anchor="middle" class="axis-label" transform="rotate(-90 80 355)">wall-clock per trial (ms)</text>
  <text x="40" y="657" class="footer">CJC-Lang ABNG · Phase 0.9 baseline · 2026-05-16 · github.com/sethorus30 (rendered deterministically from `cargo test --ignored baseline_wisconsin_bc_produce_artifacts`)</text>
</svg>
