<?xml version="1.0" encoding="UTF-8"?>
<svg xmlns="http://www.w3.org/2000/svg" viewBox="0 0 1200 675" width="1200" height="675" font-family="ui-monospace, Menlo, Consolas, monospace">
  <style>
    .title    { font-size: 24px; font-weight: bold; fill: #1a1a1a; }
    .subtitle { font-size: 13px; fill: #555; }
    .axis     { stroke: #888; stroke-width: 1.5; fill: none; }
    .grid     { stroke: #ddd; stroke-width: 1; stroke-dasharray: 2,3; }
    .label    { font-size: 12px; fill: #333; }
    .axis-label { font-size: 13px; fill: #555; font-weight: bold; }
    .value    { font-size: 11px; fill: #fff; font-weight: bold; }
    .bar      { fill: #1976d2; }
    .bar-dead { fill: #c62828; }
    .bar-syn  { fill: #66bb6a; }
    .floor    { stroke: #f57c00; stroke-width: 2; stroke-dasharray: 4,4; }
    .point    { fill: #1976d2; stroke: #0d47a1; stroke-width: 0.8; }
    .diagonal { stroke: #888; stroke-width: 1.5; stroke-dasharray: 3,3; }
    .footer   { font-size: 10px; fill: #999; }
  </style>
  <rect width="100%" height="100%" fill="#fafafa" />
  <text x="40" y="46" class="title">Wisconsin BC route utilization — Real BC seed=1</text>
  <text x="40" y="68" class="subtitle">16 pre-allocated leaves · 12 populated · 4 dead routes · BLR fallback handles dead routes by walking up to a populated ancestor</text>
  <line x1="120" y1="130" x2="120" y2="580" class="axis" />
  <line x1="120" y1="580" x2="1120" y2="580" class="axis" />
  <line x1="120" y1="580" x2="1120" y2="580" class="grid" />
  <text x="112" y="584" text-anchor="end" class="label">0</text>
  <line x1="120" y1="490" x2="1120" y2="490" class="grid" />
  <text x="112" y="494" text-anchor="end" class="label">50</text>
  <line x1="120" y1="400" x2="1120" y2="400" class="grid" />
  <text x="112" y="404" text-anchor="end" class="label">100</text>
  <line x1="120" y1="310" x2="1120" y2="310" class="grid" />
  <text x="112" y="314" text-anchor="end" class="label">150</text>
  <line x1="120" y1="220" x2="1120" y2="220" class="grid" />
  <text x="112" y="224" text-anchor="end" class="label">200</text>
  <line x1="120" y1="130" x2="1120" y2="130" class="grid" />
  <text x="112" y="134" text-anchor="end" class="label">250</text>
  <rect x="129" y="172" width="43" height="408" class="bar" />
  <text x="150" y="596" text-anchor="middle" class="label">15</text>
  <text x="150" y="166" text-anchor="middle" class="label" fill="#0d47a1">227</text>
  <rect x="191" y="571" width="43" height="9" class="bar" />
  <text x="212" y="596" text-anchor="middle" class="label">16</text>
  <text x="212" y="565" text-anchor="middle" class="label" fill="#0d47a1">5</text>
  <rect x="253" y="572" width="43" height="8" class="bar-dead" />
  <text x="274" y="596" text-anchor="middle" class="label">17</text>
  <rect x="315" y="557" width="43" height="23" class="bar" />
  <text x="336" y="596" text-anchor="middle" class="label">18</text>
  <text x="336" y="551" text-anchor="middle" class="label" fill="#0d47a1">13</text>
  <rect x="377" y="559" width="43" height="21" class="bar" />
  <text x="398" y="596" text-anchor="middle" class="label">19</text>
  <text x="398" y="553" text-anchor="middle" class="label" fill="#0d47a1">12</text>
  <rect x="439" y="572" width="43" height="8" class="bar-dead" />
  <text x="460" y="596" text-anchor="middle" class="label">20</text>
  <rect x="501" y="572" width="43" height="8" class="bar-dead" />
  <text x="522" y="596" text-anchor="middle" class="label">21</text>
  <rect x="563" y="570" width="43" height="10" class="bar" />
  <text x="584" y="596" text-anchor="middle" class="label">22</text>
  <text x="584" y="564" text-anchor="middle" class="label" fill="#0d47a1">6</text>
  <rect x="625" y="553" width="43" height="27" class="bar" />
  <text x="646" y="596" text-anchor="middle" class="label">23</text>
  <text x="646" y="547" text-anchor="middle" class="label" fill="#0d47a1">15</text>
  <rect x="687" y="572" width="43" height="8" class="bar-dead" />
  <text x="708" y="596" text-anchor="middle" class="label">24</text>
  <rect x="749" y="575" width="43" height="5" class="bar" />
  <text x="770" y="596" text-anchor="middle" class="label">25</text>
  <text x="770" y="569" text-anchor="middle" class="label" fill="#0d47a1">3</text>
  <rect x="811" y="564" width="43" height="16" class="bar" />
  <text x="832" y="596" text-anchor="middle" class="label">26</text>
  <text x="832" y="558" text-anchor="middle" class="label" fill="#0d47a1">9</text>
  <rect x="873" y="537" width="43" height="43" class="bar" />
  <text x="894" y="596" text-anchor="middle" class="label">27</text>
  <text x="894" y="531" text-anchor="middle" class="label" fill="#0d47a1">24</text>
  <rect x="935" y="579" width="43" height="1" class="bar" />
  <text x="956" y="596" text-anchor="middle" class="label">28</text>
  <text x="956" y="573" text-anchor="middle" class="label" fill="#0d47a1">1</text>
  <rect x="997" y="573" width="43" height="7" class="bar" />
  <text x="1018" y="596" text-anchor="middle" class="label">29</text>
  <text x="1018" y="567" text-anchor="middle" class="label" fill="#0d47a1">4</text>
  <rect x="1059" y="337" width="43" height="243" class="bar" />
  <text x="1080" y="596" text-anchor="middle" class="label">30</text>
  <text x="1080" y="331" text-anchor="middle" class="label" fill="#0d47a1">135</text>
  <text x="620" y="612" text-anchor="middle" class="axis-label">leaf id (sorted by tree pre-allocation order)</text>
  <text x="80" y="355" text-anchor="middle" class="axis-label" transform="rotate(-90 80 355)">train samples routed to leaf</text>
  <text x="40" y="657" class="footer">CJC-Lang ABNG · Phase 0.9 baseline · 2026-05-16 · github.com/sethorus30 (rendered deterministically from `cargo test --ignored baseline_wisconsin_bc_produce_artifacts`)</text>
</svg>
