<?xml version="1.0" encoding="UTF-8"?>
<svg xmlns="http://www.w3.org/2000/svg" viewBox="0 0 880 580" width="880" height="580" font-family="ui-monospace, Menlo, Consolas, monospace">
  <style>
    .lbl { font-size: 11px; fill: #333; }
    .root { font-size: 12px; font-weight: bold; }
    .legend { font-size: 12px; fill: #444; }
    .edge { stroke: #888; stroke-width: 1; }
    .edge-path { stroke: #e94f37; stroke-width: 2; }
  </style>
  <rect width="100%" height="100%" fill="#fafafa" />
  <text x="20" y="22" font-size="14" font-weight="bold" fill="#222">A3 — Merkle Inclusion Proof for Audit Event 11 (N=16)</text>
  <line class="edge" x1="90.0" y1="350" x2="65.0" y2="450" />
  <line class="edge" x1="90.0" y1="350" x2="115.0" y2="450" />
  <line class="edge" x1="190.0" y1="350" x2="165.0" y2="450" />
  <line class="edge" x1="190.0" y1="350" x2="215.0" y2="450" />
  <line class="edge" x1="290.0" y1="350" x2="265.0" y2="450" />
  <line class="edge" x1="290.0" y1="350" x2="315.0" y2="450" />
  <line class="edge" x1="390.0" y1="350" x2="365.0" y2="450" />
  <line class="edge" x1="390.0" y1="350" x2="415.0" y2="450" />
  <line class="edge" x1="490.0" y1="350" x2="465.0" y2="450" />
  <line class="edge" x1="490.0" y1="350" x2="515.0" y2="450" />
  <line class="edge" x1="590.0" y1="350" x2="565.0" y2="450" />
  <line class="edge-path" x1="590.0" y1="350" x2="615.0" y2="450" />
  <line class="edge" x1="690.0" y1="350" x2="665.0" y2="450" />
  <line class="edge" x1="690.0" y1="350" x2="715.0" y2="450" />
  <line class="edge" x1="790.0" y1="350" x2="765.0" y2="450" />
  <line class="edge" x1="790.0" y1="350" x2="815.0" y2="450" />
  <line class="edge" x1="140.0" y1="250" x2="90.0" y2="350" />
  <line class="edge" x1="140.0" y1="250" x2="190.0" y2="350" />
  <line class="edge" x1="340.0" y1="250" x2="290.0" y2="350" />
  <line class="edge" x1="340.0" y1="250" x2="390.0" y2="350" />
  <line class="edge" x1="540.0" y1="250" x2="490.0" y2="350" />
  <line class="edge-path" x1="540.0" y1="250" x2="590.0" y2="350" />
  <line class="edge" x1="740.0" y1="250" x2="690.0" y2="350" />
  <line class="edge" x1="740.0" y1="250" x2="790.0" y2="350" />
  <line class="edge" x1="240.0" y1="150" x2="140.0" y2="250" />
  <line class="edge" x1="240.0" y1="150" x2="340.0" y2="250" />
  <line class="edge-path" x1="640.0" y1="150" x2="540.0" y2="250" />
  <line class="edge" x1="640.0" y1="150" x2="740.0" y2="250" />
  <line class="edge" x1="440.0" y1="50" x2="240.0" y2="150" />
  <line class="edge-path" x1="440.0" y1="50" x2="640.0" y2="150" />
  <circle cx="65.0" cy="450" r="12" fill="#4a90d9" stroke="#205a8c" stroke-width="1.5" />
  <text x="65.0" y="454" text-anchor="middle" class="lbl" fill="#fff">0</text>
  <circle cx="115.0" cy="450" r="12" fill="#4a90d9" stroke="#205a8c" stroke-width="1.5" />
  <text x="115.0" y="454" text-anchor="middle" class="lbl" fill="#fff">1</text>
  <circle cx="165.0" cy="450" r="12" fill="#4a90d9" stroke="#205a8c" stroke-width="1.5" />
  <text x="165.0" y="454" text-anchor="middle" class="lbl" fill="#fff">2</text>
  <circle cx="215.0" cy="450" r="12" fill="#4a90d9" stroke="#205a8c" stroke-width="1.5" />
  <text x="215.0" y="454" text-anchor="middle" class="lbl" fill="#fff">3</text>
  <circle cx="265.0" cy="450" r="12" fill="#4a90d9" stroke="#205a8c" stroke-width="1.5" />
  <text x="265.0" y="454" text-anchor="middle" class="lbl" fill="#fff">4</text>
  <circle cx="315.0" cy="450" r="12" fill="#4a90d9" stroke="#205a8c" stroke-width="1.5" />
  <text x="315.0" y="454" text-anchor="middle" class="lbl" fill="#fff">5</text>
  <circle cx="365.0" cy="450" r="12" fill="#4a90d9" stroke="#205a8c" stroke-width="1.5" />
  <text x="365.0" y="454" text-anchor="middle" class="lbl" fill="#fff">6</text>
  <circle cx="415.0" cy="450" r="12" fill="#4a90d9" stroke="#205a8c" stroke-width="1.5" />
  <text x="415.0" y="454" text-anchor="middle" class="lbl" fill="#fff">7</text>
  <circle cx="465.0" cy="450" r="12" fill="#4a90d9" stroke="#205a8c" stroke-width="1.5" />
  <text x="465.0" y="454" text-anchor="middle" class="lbl" fill="#fff">8</text>
  <circle cx="515.0" cy="450" r="12" fill="#4a90d9" stroke="#205a8c" stroke-width="1.5" />
  <text x="515.0" y="454" text-anchor="middle" class="lbl" fill="#fff">9</text>
  <circle cx="565.0" cy="450" r="12" fill="#f5a623" stroke="#a06a13" stroke-width="1.5" />
  <text x="565.0" y="454" text-anchor="middle" class="lbl" fill="#222">10</text>
  <circle cx="615.0" cy="450" r="12" fill="#e94f37" stroke="#b32d1c" stroke-width="1.5" />
  <text x="615.0" y="454" text-anchor="middle" class="lbl" fill="#fff">11</text>
  <circle cx="665.0" cy="450" r="12" fill="#4a90d9" stroke="#205a8c" stroke-width="1.5" />
  <text x="665.0" y="454" text-anchor="middle" class="lbl" fill="#fff">12</text>
  <circle cx="715.0" cy="450" r="12" fill="#4a90d9" stroke="#205a8c" stroke-width="1.5" />
  <text x="715.0" y="454" text-anchor="middle" class="lbl" fill="#fff">13</text>
  <circle cx="765.0" cy="450" r="12" fill="#4a90d9" stroke="#205a8c" stroke-width="1.5" />
  <text x="765.0" y="454" text-anchor="middle" class="lbl" fill="#fff">14</text>
  <circle cx="815.0" cy="450" r="12" fill="#4a90d9" stroke="#205a8c" stroke-width="1.5" />
  <text x="815.0" y="454" text-anchor="middle" class="lbl" fill="#fff">15</text>
  <circle cx="90.0" cy="350" r="14" fill="#4a90d9" stroke="#205a8c" stroke-width="1.5" />
  <text x="90.0" y="354" text-anchor="middle" class="lbl" fill="#fff">L1·0</text>
  <circle cx="190.0" cy="350" r="14" fill="#4a90d9" stroke="#205a8c" stroke-width="1.5" />
  <text x="190.0" y="354" text-anchor="middle" class="lbl" fill="#fff">L1·1</text>
  <circle cx="290.0" cy="350" r="14" fill="#4a90d9" stroke="#205a8c" stroke-width="1.5" />
  <text x="290.0" y="354" text-anchor="middle" class="lbl" fill="#fff">L1·2</text>
  <circle cx="390.0" cy="350" r="14" fill="#4a90d9" stroke="#205a8c" stroke-width="1.5" />
  <text x="390.0" y="354" text-anchor="middle" class="lbl" fill="#fff">L1·3</text>
  <circle cx="490.0" cy="350" r="14" fill="#f5a623" stroke="#a06a13" stroke-width="1.5" />
  <text x="490.0" y="354" text-anchor="middle" class="lbl" fill="#222">L1·4</text>
  <circle cx="590.0" cy="350" r="14" fill="#e94f37" stroke="#b32d1c" stroke-width="1.5" />
  <text x="590.0" y="354" text-anchor="middle" class="lbl" fill="#fff">L1·5</text>
  <circle cx="690.0" cy="350" r="14" fill="#4a90d9" stroke="#205a8c" stroke-width="1.5" />
  <text x="690.0" y="354" text-anchor="middle" class="lbl" fill="#fff">L1·6</text>
  <circle cx="790.0" cy="350" r="14" fill="#4a90d9" stroke="#205a8c" stroke-width="1.5" />
  <text x="790.0" y="354" text-anchor="middle" class="lbl" fill="#fff">L1·7</text>
  <circle cx="140.0" cy="250" r="14" fill="#4a90d9" stroke="#205a8c" stroke-width="1.5" />
  <text x="140.0" y="254" text-anchor="middle" class="lbl" fill="#fff">L2·0</text>
  <circle cx="340.0" cy="250" r="14" fill="#4a90d9" stroke="#205a8c" stroke-width="1.5" />
  <text x="340.0" y="254" text-anchor="middle" class="lbl" fill="#fff">L2·1</text>
  <circle cx="540.0" cy="250" r="14" fill="#e94f37" stroke="#b32d1c" stroke-width="1.5" />
  <text x="540.0" y="254" text-anchor="middle" class="lbl" fill="#fff">L2·2</text>
  <circle cx="740.0" cy="250" r="14" fill="#f5a623" stroke="#a06a13" stroke-width="1.5" />
  <text x="740.0" y="254" text-anchor="middle" class="lbl" fill="#222">L2·3</text>
  <circle cx="240.0" cy="150" r="14" fill="#f5a623" stroke="#a06a13" stroke-width="1.5" />
  <text x="240.0" y="154" text-anchor="middle" class="lbl" fill="#222">L3·0</text>
  <circle cx="640.0" cy="150" r="14" fill="#e94f37" stroke="#b32d1c" stroke-width="1.5" />
  <text x="640.0" y="154" text-anchor="middle" class="lbl" fill="#fff">L3·1</text>
  <circle cx="440.0" cy="50" r="14" fill="#2e7d32" stroke="#1b5e20" stroke-width="1.5" />
  <text x="440.0" y="54" text-anchor="middle" class="lbl" fill="#fff">root</text>
  <circle cx="40" cy="560" r="6" fill="#e94f37" />
  <text x="52" y="564" class="legend">proof path</text>
  <circle cx="160" cy="560" r="6" fill="#f5a623" />
  <text x="172" y="564" class="legend">witness sibling</text>
  <circle cx="320" cy="560" r="6" fill="#2e7d32" />
  <text x="332" y="564" class="legend">root</text>
  <circle cx="400" cy="560" r="6" fill="#4a90d9" />
  <text x="412" y="564" class="legend">non-witness</text>
</svg>
