<svg xmlns="http://www.w3.org/2000/svg" width="800" height="600" viewBox="0 0 800 600">
  <rect x="0.00" y="0.00" width="800.00" height="600.00" fill="#ffffff"/>
  <rect x="60.00" y="30.00" width="725.00" height="520.00" fill="#ffffff"/>
  <line x1="60.00" y1="550.00" x2="785.00" y2="550.00" stroke="#f0f0f0" stroke-width="0.30"/>
  <line x1="60.00" y1="492.22" x2="785.00" y2="492.22" stroke="#f0f0f0" stroke-width="0.30"/>
  <line x1="60.00" y1="434.44" x2="785.00" y2="434.44" stroke="#f0f0f0" stroke-width="0.30"/>
  <line x1="60.00" y1="376.67" x2="785.00" y2="376.67" stroke="#f0f0f0" stroke-width="0.30"/>
  <line x1="60.00" y1="318.89" x2="785.00" y2="318.89" stroke="#f0f0f0" stroke-width="0.30"/>
  <line x1="60.00" y1="261.11" x2="785.00" y2="261.11" stroke="#f0f0f0" stroke-width="0.30"/>
  <line x1="60.00" y1="203.33" x2="785.00" y2="203.33" stroke="#f0f0f0" stroke-width="0.30"/>
  <line x1="60.00" y1="145.56" x2="785.00" y2="145.56" stroke="#f0f0f0" stroke-width="0.30"/>
  <line x1="60.00" y1="87.78" x2="785.00" y2="87.78" stroke="#f0f0f0" stroke-width="0.30"/>
  <line x1="60.00" y1="30.00" x2="785.00" y2="30.00" stroke="#f0f0f0" stroke-width="0.30"/>
  <line x1="60.00" y1="30.00" x2="60.00" y2="550.00" stroke="#f0f0f0" stroke-width="0.30"/>
  <line x1="150.62" y1="30.00" x2="150.62" y2="550.00" stroke="#f0f0f0" stroke-width="0.30"/>
  <line x1="241.25" y1="30.00" x2="241.25" y2="550.00" stroke="#f0f0f0" stroke-width="0.30"/>
  <line x1="331.88" y1="30.00" x2="331.88" y2="550.00" stroke="#f0f0f0" stroke-width="0.30"/>
  <line x1="422.50" y1="30.00" x2="422.50" y2="550.00" stroke="#f0f0f0" stroke-width="0.30"/>
  <line x1="513.12" y1="30.00" x2="513.12" y2="550.00" stroke="#f0f0f0" stroke-width="0.30"/>
  <line x1="603.75" y1="30.00" x2="603.75" y2="550.00" stroke="#f0f0f0" stroke-width="0.30"/>
  <line x1="694.38" y1="30.00" x2="694.38" y2="550.00" stroke="#f0f0f0" stroke-width="0.30"/>
  <line x1="785.00" y1="30.00" x2="785.00" y2="550.00" stroke="#f0f0f0" stroke-width="0.30"/>
  <line x1="60.00" y1="550.00" x2="785.00" y2="550.00" stroke="#808080" stroke-width="0.50"/>
  <line x1="60.00" y1="30.00" x2="60.00" y2="550.00" stroke="#808080" stroke-width="0.50"/>
  <line x1="60.00" y1="550.00" x2="60.00" y2="554.00" stroke="#808080" stroke-width="0.50"/>
  <text x="60.00" y="565.00" font-size="9.0" fill="#808080" text-anchor="middle" font-family="sans-serif">1</text>
  <line x1="150.62" y1="550.00" x2="150.62" y2="554.00" stroke="#808080" stroke-width="0.50"/>
  <text x="150.62" y="565.00" font-size="9.0" fill="#808080" text-anchor="middle" font-family="sans-serif">1.50</text>
  <line x1="241.25" y1="550.00" x2="241.25" y2="554.00" stroke="#808080" stroke-width="0.50"/>
  <text x="241.25" y="565.00" font-size="9.0" fill="#808080" text-anchor="middle" font-family="sans-serif">2</text>
  <line x1="331.88" y1="550.00" x2="331.88" y2="554.00" stroke="#808080" stroke-width="0.50"/>
  <text x="331.88" y="565.00" font-size="9.0" fill="#808080" text-anchor="middle" font-family="sans-serif">2.50</text>
  <line x1="422.50" y1="550.00" x2="422.50" y2="554.00" stroke="#808080" stroke-width="0.50"/>
  <text x="422.50" y="565.00" font-size="9.0" fill="#808080" text-anchor="middle" font-family="sans-serif">3</text>
  <line x1="513.12" y1="550.00" x2="513.12" y2="554.00" stroke="#808080" stroke-width="0.50"/>
  <text x="513.12" y="565.00" font-size="9.0" fill="#808080" text-anchor="middle" font-family="sans-serif">3.50</text>
  <line x1="603.75" y1="550.00" x2="603.75" y2="554.00" stroke="#808080" stroke-width="0.50"/>
  <text x="603.75" y="565.00" font-size="9.0" fill="#808080" text-anchor="middle" font-family="sans-serif">4</text>
  <line x1="694.38" y1="550.00" x2="694.38" y2="554.00" stroke="#808080" stroke-width="0.50"/>
  <text x="694.38" y="565.00" font-size="9.0" fill="#808080" text-anchor="middle" font-family="sans-serif">4.50</text>
  <line x1="785.00" y1="550.00" x2="785.00" y2="554.00" stroke="#808080" stroke-width="0.50"/>
  <text x="785.00" y="565.00" font-size="9.0" fill="#808080" text-anchor="middle" font-family="sans-serif">5</text>
  <line x1="56.00" y1="550.00" x2="60.00" y2="550.00" stroke="#808080" stroke-width="0.50"/>
  <text x="52.00" y="553.15" font-size="9.0" fill="#808080" text-anchor="end" font-family="sans-serif">12</text>
  <line x1="56.00" y1="492.22" x2="60.00" y2="492.22" stroke="#808080" stroke-width="0.50"/>
  <text x="52.00" y="495.37" font-size="9.0" fill="#808080" text-anchor="end" font-family="sans-serif">14</text>
  <line x1="56.00" y1="434.44" x2="60.00" y2="434.44" stroke="#808080" stroke-width="0.50"/>
  <text x="52.00" y="437.59" font-size="9.0" fill="#808080" text-anchor="end" font-family="sans-serif">16</text>
  <line x1="56.00" y1="376.67" x2="60.00" y2="376.67" stroke="#808080" stroke-width="0.50"/>
  <text x="52.00" y="379.82" font-size="9.0" fill="#808080" text-anchor="end" font-family="sans-serif">18</text>
  <line x1="56.00" y1="318.89" x2="60.00" y2="318.89" stroke="#808080" stroke-width="0.50"/>
  <text x="52.00" y="322.04" font-size="9.0" fill="#808080" text-anchor="end" font-family="sans-serif">20</text>
  <line x1="56.00" y1="261.11" x2="60.00" y2="261.11" stroke="#808080" stroke-width="0.50"/>
  <text x="52.00" y="264.26" font-size="9.0" fill="#808080" text-anchor="end" font-family="sans-serif">22</text>
  <line x1="56.00" y1="203.33" x2="60.00" y2="203.33" stroke="#808080" stroke-width="0.50"/>
  <text x="52.00" y="206.48" font-size="9.0" fill="#808080" text-anchor="end" font-family="sans-serif">24</text>
  <line x1="56.00" y1="145.56" x2="60.00" y2="145.56" stroke="#808080" stroke-width="0.50"/>
  <text x="52.00" y="148.71" font-size="9.0" fill="#808080" text-anchor="end" font-family="sans-serif">26</text>
  <line x1="56.00" y1="87.78" x2="60.00" y2="87.78" stroke="#808080" stroke-width="0.50"/>
  <text x="52.00" y="90.93" font-size="9.0" fill="#808080" text-anchor="end" font-family="sans-serif">28</text>
  <line x1="56.00" y1="30.00" x2="60.00" y2="30.00" stroke="#808080" stroke-width="0.50"/>
  <text x="52.00" y="33.15" font-size="9.0" fill="#808080" text-anchor="end" font-family="sans-serif">30</text>
  <rect x="-12.50" y="550.00" width="145.00" height="0.00" fill="#e41a1c" stroke="#ffffff" stroke-width="1.00"/>
  <rect x="168.75" y="174.44" width="145.00" height="375.56" fill="#e41a1c" stroke="#ffffff" stroke-width="1.00"/>
  <rect x="350.00" y="376.67" width="145.00" height="173.33" fill="#e41a1c" stroke="#ffffff" stroke-width="1.00"/>
  <rect x="531.25" y="30.00" width="145.00" height="520.00" fill="#e41a1c" stroke="#ffffff" stroke-width="1.00"/>
  <rect x="712.50" y="261.11" width="145.00" height="288.89" fill="#e41a1c" stroke="#ffffff" stroke-width="1.00"/>
  <text x="422.50" y="20.00" font-size="14.0" fill="#808080" text-anchor="middle" font-family="sans-serif">Bar Chart</text>
  <text x="422.50" y="595.00" font-size="11.0" fill="#808080" text-anchor="middle" font-family="sans-serif">Category</text>
  <text x="15.00" y="290.00" font-size="11.0" fill="#808080" text-anchor="middle" font-family="sans-serif" transform="rotate(-90.0,15.00,290.00)">Count</text>
</svg>
