<svg xmlns="http://www.w3.org/2000/svg" width="800" height="600" viewBox="0 0 800 600">
  <rect x="0.00" y="0.00" width="800.00" height="600.00" fill="#ffffff"/>
  <rect x="70.00" y="40.00" width="710.00" height="500.00" fill="#ffffff"/>
  <line x1="70.00" y1="540.00" x2="780.00" y2="540.00" stroke="#e5e5e5" stroke-width="0.50"/>
  <line x1="70.00" y1="490.00" x2="780.00" y2="490.00" stroke="#e5e5e5" stroke-width="0.50"/>
  <line x1="70.00" y1="440.00" x2="780.00" y2="440.00" stroke="#e5e5e5" stroke-width="0.50"/>
  <line x1="70.00" y1="390.00" x2="780.00" y2="390.00" stroke="#e5e5e5" stroke-width="0.50"/>
  <line x1="70.00" y1="340.00" x2="780.00" y2="340.00" stroke="#e5e5e5" stroke-width="0.50"/>
  <line x1="70.00" y1="290.00" x2="780.00" y2="290.00" stroke="#e5e5e5" stroke-width="0.50"/>
  <line x1="70.00" y1="240.00" x2="780.00" y2="240.00" stroke="#e5e5e5" stroke-width="0.50"/>
  <line x1="70.00" y1="190.00" x2="780.00" y2="190.00" stroke="#e5e5e5" stroke-width="0.50"/>
  <line x1="70.00" y1="140.00" x2="780.00" y2="140.00" stroke="#e5e5e5" stroke-width="0.50"/>
  <line x1="70.00" y1="90.00" x2="780.00" y2="90.00" stroke="#e5e5e5" stroke-width="0.50"/>
  <line x1="70.00" y1="40.00" x2="780.00" y2="40.00" stroke="#e5e5e5" stroke-width="0.50"/>
  <line x1="70.00" y1="40.00" x2="70.00" y2="540.00" stroke="#e5e5e5" stroke-width="0.50"/>
  <line x1="171.43" y1="40.00" x2="171.43" y2="540.00" stroke="#e5e5e5" stroke-width="0.50"/>
  <line x1="272.86" y1="40.00" x2="272.86" y2="540.00" stroke="#e5e5e5" stroke-width="0.50"/>
  <line x1="374.29" y1="40.00" x2="374.29" y2="540.00" stroke="#e5e5e5" stroke-width="0.50"/>
  <line x1="475.71" y1="40.00" x2="475.71" y2="540.00" stroke="#e5e5e5" stroke-width="0.50"/>
  <line x1="577.14" y1="40.00" x2="577.14" y2="540.00" stroke="#e5e5e5" stroke-width="0.50"/>
  <line x1="678.57" y1="40.00" x2="678.57" y2="540.00" stroke="#e5e5e5" stroke-width="0.50"/>
  <line x1="780.00" y1="40.00" x2="780.00" y2="540.00" stroke="#e5e5e5" stroke-width="0.50"/>
  <line x1="70.00" y1="540.00" x2="780.00" y2="540.00" stroke="#404040" stroke-width="1.00"/>
  <line x1="70.00" y1="40.00" x2="70.00" y2="540.00" stroke="#404040" stroke-width="1.00"/>
  <line x1="70.00" y1="540.00" x2="70.00" y2="545.00" stroke="#404040" stroke-width="1.00"/>
  <text x="70.00" y="557.00" font-size="10.0" fill="#404040" text-anchor="middle" font-family="sans-serif">1</text>
  <line x1="171.43" y1="540.00" x2="171.43" y2="545.00" stroke="#404040" stroke-width="1.00"/>
  <text x="171.43" y="557.00" font-size="10.0" fill="#404040" text-anchor="middle" font-family="sans-serif">2</text>
  <line x1="272.86" y1="540.00" x2="272.86" y2="545.00" stroke="#404040" stroke-width="1.00"/>
  <text x="272.86" y="557.00" font-size="10.0" fill="#404040" text-anchor="middle" font-family="sans-serif">3</text>
  <line x1="374.29" y1="540.00" x2="374.29" y2="545.00" stroke="#404040" stroke-width="1.00"/>
  <text x="374.29" y="557.00" font-size="10.0" fill="#404040" text-anchor="middle" font-family="sans-serif">4</text>
  <line x1="475.71" y1="540.00" x2="475.71" y2="545.00" stroke="#404040" stroke-width="1.00"/>
  <text x="475.71" y="557.00" font-size="10.0" fill="#404040" text-anchor="middle" font-family="sans-serif">5</text>
  <line x1="577.14" y1="540.00" x2="577.14" y2="545.00" stroke="#404040" stroke-width="1.00"/>
  <text x="577.14" y="557.00" font-size="10.0" fill="#404040" text-anchor="middle" font-family="sans-serif">6</text>
  <line x1="678.57" y1="540.00" x2="678.57" y2="545.00" stroke="#404040" stroke-width="1.00"/>
  <text x="678.57" y="557.00" font-size="10.0" fill="#404040" text-anchor="middle" font-family="sans-serif">7</text>
  <line x1="780.00" y1="540.00" x2="780.00" y2="545.00" stroke="#404040" stroke-width="1.00"/>
  <text x="780.00" y="557.00" font-size="10.0" fill="#404040" text-anchor="middle" font-family="sans-serif">8</text>
  <line x1="65.00" y1="540.00" x2="70.00" y2="540.00" stroke="#404040" stroke-width="1.00"/>
  <text x="61.00" y="543.50" font-size="10.0" fill="#404040" text-anchor="end" font-family="sans-serif">0</text>
  <line x1="65.00" y1="490.00" x2="70.00" y2="490.00" stroke="#404040" stroke-width="1.00"/>
  <text x="61.00" y="493.50" font-size="10.0" fill="#404040" text-anchor="end" font-family="sans-serif">0.200</text>
  <line x1="65.00" y1="440.00" x2="70.00" y2="440.00" stroke="#404040" stroke-width="1.00"/>
  <text x="61.00" y="443.50" font-size="10.0" fill="#404040" text-anchor="end" font-family="sans-serif">0.400</text>
  <line x1="65.00" y1="390.00" x2="70.00" y2="390.00" stroke="#404040" stroke-width="1.00"/>
  <text x="61.00" y="393.50" font-size="10.0" fill="#404040" text-anchor="end" font-family="sans-serif">0.600</text>
  <line x1="65.00" y1="340.00" x2="70.00" y2="340.00" stroke="#404040" stroke-width="1.00"/>
  <text x="61.00" y="343.50" font-size="10.0" fill="#404040" text-anchor="end" font-family="sans-serif">0.800</text>
  <line x1="65.00" y1="290.00" x2="70.00" y2="290.00" stroke="#404040" stroke-width="1.00"/>
  <text x="61.00" y="293.50" font-size="10.0" fill="#404040" text-anchor="end" font-family="sans-serif">1</text>
  <line x1="65.00" y1="240.00" x2="70.00" y2="240.00" stroke="#404040" stroke-width="1.00"/>
  <text x="61.00" y="243.50" font-size="10.0" fill="#404040" text-anchor="end" font-family="sans-serif">1.20</text>
  <line x1="65.00" y1="190.00" x2="70.00" y2="190.00" stroke="#404040" stroke-width="1.00"/>
  <text x="61.00" y="193.50" font-size="10.0" fill="#404040" text-anchor="end" font-family="sans-serif">1.40</text>
  <line x1="65.00" y1="140.00" x2="70.00" y2="140.00" stroke="#404040" stroke-width="1.00"/>
  <text x="61.00" y="143.50" font-size="10.0" fill="#404040" text-anchor="end" font-family="sans-serif">1.60</text>
  <line x1="65.00" y1="90.00" x2="70.00" y2="90.00" stroke="#404040" stroke-width="1.00"/>
  <text x="61.00" y="93.50" font-size="10.0" fill="#404040" text-anchor="end" font-family="sans-serif">1.80</text>
  <line x1="65.00" y1="40.00" x2="70.00" y2="40.00" stroke="#404040" stroke-width="1.00"/>
  <text x="61.00" y="43.50" font-size="10.0" fill="#404040" text-anchor="end" font-family="sans-serif">2</text>
  <rect x="90.29" y="290.00" width="68.97" height="250.00" fill="#e41a1c" stroke="#ffffff" stroke-width="1.00"/>
  <rect x="159.26" y="290.00" width="68.97" height="250.00" fill="#e41a1c" stroke="#ffffff" stroke-width="1.00"/>
  <rect x="228.23" y="40.00" width="68.97" height="500.00" fill="#e41a1c" stroke="#ffffff" stroke-width="1.00"/>
  <rect x="297.20" y="40.00" width="68.97" height="500.00" fill="#e41a1c" stroke="#ffffff" stroke-width="1.00"/>
  <rect x="366.17" y="40.00" width="68.97" height="500.00" fill="#e41a1c" stroke="#ffffff" stroke-width="1.00"/>
  <rect x="435.14" y="40.00" width="68.97" height="500.00" fill="#e41a1c" stroke="#ffffff" stroke-width="1.00"/>
  <rect x="504.11" y="290.00" width="68.97" height="250.00" fill="#e41a1c" stroke="#ffffff" stroke-width="1.00"/>
  <rect x="573.09" y="40.00" width="68.97" height="500.00" fill="#e41a1c" stroke="#ffffff" stroke-width="1.00"/>
  <rect x="642.06" y="290.00" width="68.97" height="250.00" fill="#e41a1c" stroke="#ffffff" stroke-width="1.00"/>
  <rect x="711.03" y="290.00" width="68.97" height="250.00" fill="#e41a1c" stroke="#ffffff" stroke-width="1.00"/>
  <text x="425.00" y="30.00" font-size="16.0" fill="#404040" text-anchor="middle" font-family="sans-serif">Distribution</text>
  <text x="425.00" y="595.00" font-size="12.0" fill="#404040" text-anchor="middle" font-family="sans-serif">Value</text>
  <text x="15.00" y="290.00" font-size="12.0" fill="#404040" text-anchor="middle" font-family="sans-serif" transform="rotate(-90.0,15.00,290.00)">Frequency</text>
</svg>
