<svg xmlns="http://www.w3.org/2000/svg" width="800" height="600" viewBox="0 0 800 600">
  <rect x="0.00" y="0.00" width="800.00" height="600.00" fill="#ffffff"/>
  <rect x="70.00" y="40.00" width="710.00" height="500.00" fill="#ffffff"/>
  <line x1="70.00" y1="540.00" x2="780.00" y2="540.00" stroke="#e5e5e5" stroke-width="0.50"/>
  <line x1="70.00" y1="490.00" x2="780.00" y2="490.00" stroke="#e5e5e5" stroke-width="0.50"/>
  <line x1="70.00" y1="440.00" x2="780.00" y2="440.00" stroke="#e5e5e5" stroke-width="0.50"/>
  <line x1="70.00" y1="390.00" x2="780.00" y2="390.00" stroke="#e5e5e5" stroke-width="0.50"/>
  <line x1="70.00" y1="340.00" x2="780.00" y2="340.00" stroke="#e5e5e5" stroke-width="0.50"/>
  <line x1="70.00" y1="290.00" x2="780.00" y2="290.00" stroke="#e5e5e5" stroke-width="0.50"/>
  <line x1="70.00" y1="240.00" x2="780.00" y2="240.00" stroke="#e5e5e5" stroke-width="0.50"/>
  <line x1="70.00" y1="190.00" x2="780.00" y2="190.00" stroke="#e5e5e5" stroke-width="0.50"/>
  <line x1="70.00" y1="140.00" x2="780.00" y2="140.00" stroke="#e5e5e5" stroke-width="0.50"/>
  <line x1="70.00" y1="90.00" x2="780.00" y2="90.00" stroke="#e5e5e5" stroke-width="0.50"/>
  <line x1="70.00" y1="40.00" x2="780.00" y2="40.00" stroke="#e5e5e5" stroke-width="0.50"/>
  <line x1="70.00" y1="40.00" x2="70.00" y2="540.00" stroke="#e5e5e5" stroke-width="0.50"/>
  <line x1="141.00" y1="40.00" x2="141.00" y2="540.00" stroke="#e5e5e5" stroke-width="0.50"/>
  <line x1="212.00" y1="40.00" x2="212.00" y2="540.00" stroke="#e5e5e5" stroke-width="0.50"/>
  <line x1="283.00" y1="40.00" x2="283.00" y2="540.00" stroke="#e5e5e5" stroke-width="0.50"/>
  <line x1="354.00" y1="40.00" x2="354.00" y2="540.00" stroke="#e5e5e5" stroke-width="0.50"/>
  <line x1="425.00" y1="40.00" x2="425.00" y2="540.00" stroke="#e5e5e5" stroke-width="0.50"/>
  <line x1="496.00" y1="40.00" x2="496.00" y2="540.00" stroke="#e5e5e5" stroke-width="0.50"/>
  <line x1="567.00" y1="40.00" x2="567.00" y2="540.00" stroke="#e5e5e5" stroke-width="0.50"/>
  <line x1="638.00" y1="40.00" x2="638.00" y2="540.00" stroke="#e5e5e5" stroke-width="0.50"/>
  <line x1="709.00" y1="40.00" x2="709.00" y2="540.00" stroke="#e5e5e5" stroke-width="0.50"/>
  <line x1="780.00" y1="40.00" x2="780.00" y2="540.00" stroke="#e5e5e5" stroke-width="0.50"/>
  <line x1="70.00" y1="540.00" x2="780.00" y2="540.00" stroke="#404040" stroke-width="1.00"/>
  <line x1="70.00" y1="40.00" x2="70.00" y2="540.00" stroke="#404040" stroke-width="1.00"/>
  <line x1="70.00" y1="540.00" x2="70.00" y2="545.00" stroke="#404040" stroke-width="1.00"/>
  <text x="70.00" y="557.00" font-size="10.0" fill="#404040" text-anchor="middle" font-family="sans-serif">0</text>
  <line x1="141.00" y1="540.00" x2="141.00" y2="545.00" stroke="#404040" stroke-width="1.00"/>
  <text x="141.00" y="557.00" font-size="10.0" fill="#404040" text-anchor="middle" font-family="sans-serif">1</text>
  <line x1="212.00" y1="540.00" x2="212.00" y2="545.00" stroke="#404040" stroke-width="1.00"/>
  <text x="212.00" y="557.00" font-size="10.0" fill="#404040" text-anchor="middle" font-family="sans-serif">2</text>
  <line x1="283.00" y1="540.00" x2="283.00" y2="545.00" stroke="#404040" stroke-width="1.00"/>
  <text x="283.00" y="557.00" font-size="10.0" fill="#404040" text-anchor="middle" font-family="sans-serif">3</text>
  <line x1="354.00" y1="540.00" x2="354.00" y2="545.00" stroke="#404040" stroke-width="1.00"/>
  <text x="354.00" y="557.00" font-size="10.0" fill="#404040" text-anchor="middle" font-family="sans-serif">4</text>
  <line x1="425.00" y1="540.00" x2="425.00" y2="545.00" stroke="#404040" stroke-width="1.00"/>
  <text x="425.00" y="557.00" font-size="10.0" fill="#404040" text-anchor="middle" font-family="sans-serif">5</text>
  <line x1="496.00" y1="540.00" x2="496.00" y2="545.00" stroke="#404040" stroke-width="1.00"/>
  <text x="496.00" y="557.00" font-size="10.0" fill="#404040" text-anchor="middle" font-family="sans-serif">6</text>
  <line x1="567.00" y1="540.00" x2="567.00" y2="545.00" stroke="#404040" stroke-width="1.00"/>
  <text x="567.00" y="557.00" font-size="10.0" fill="#404040" text-anchor="middle" font-family="sans-serif">7</text>
  <line x1="638.00" y1="540.00" x2="638.00" y2="545.00" stroke="#404040" stroke-width="1.00"/>
  <text x="638.00" y="557.00" font-size="10.0" fill="#404040" text-anchor="middle" font-family="sans-serif">8</text>
  <line x1="709.00" y1="540.00" x2="709.00" y2="545.00" stroke="#404040" stroke-width="1.00"/>
  <text x="709.00" y="557.00" font-size="10.0" fill="#404040" text-anchor="middle" font-family="sans-serif">9</text>
  <line x1="780.00" y1="540.00" x2="780.00" y2="545.00" stroke="#404040" stroke-width="1.00"/>
  <text x="780.00" y="557.00" font-size="10.0" fill="#404040" text-anchor="middle" font-family="sans-serif">10</text>
  <line x1="65.00" y1="540.00" x2="70.00" y2="540.00" stroke="#404040" stroke-width="1.00"/>
  <text x="61.00" y="543.50" font-size="10.0" fill="#404040" text-anchor="end" font-family="sans-serif">0</text>
  <line x1="65.00" y1="490.00" x2="70.00" y2="490.00" stroke="#404040" stroke-width="1.00"/>
  <text x="61.00" y="493.50" font-size="10.0" fill="#404040" text-anchor="end" font-family="sans-serif">10</text>
  <line x1="65.00" y1="440.00" x2="70.00" y2="440.00" stroke="#404040" stroke-width="1.00"/>
  <text x="61.00" y="443.50" font-size="10.0" fill="#404040" text-anchor="end" font-family="sans-serif">20</text>
  <line x1="65.00" y1="390.00" x2="70.00" y2="390.00" stroke="#404040" stroke-width="1.00"/>
  <text x="61.00" y="393.50" font-size="10.0" fill="#404040" text-anchor="end" font-family="sans-serif">30</text>
  <line x1="65.00" y1="340.00" x2="70.00" y2="340.00" stroke="#404040" stroke-width="1.00"/>
  <text x="61.00" y="343.50" font-size="10.0" fill="#404040" text-anchor="end" font-family="sans-serif">40</text>
  <line x1="65.00" y1="290.00" x2="70.00" y2="290.00" stroke="#404040" stroke-width="1.00"/>
  <text x="61.00" y="293.50" font-size="10.0" fill="#404040" text-anchor="end" font-family="sans-serif">50</text>
  <line x1="65.00" y1="240.00" x2="70.00" y2="240.00" stroke="#404040" stroke-width="1.00"/>
  <text x="61.00" y="243.50" font-size="10.0" fill="#404040" text-anchor="end" font-family="sans-serif">60</text>
  <line x1="65.00" y1="190.00" x2="70.00" y2="190.00" stroke="#404040" stroke-width="1.00"/>
  <text x="61.00" y="193.50" font-size="10.0" fill="#404040" text-anchor="end" font-family="sans-serif">70</text>
  <line x1="65.00" y1="140.00" x2="70.00" y2="140.00" stroke="#404040" stroke-width="1.00"/>
  <text x="61.00" y="143.50" font-size="10.0" fill="#404040" text-anchor="end" font-family="sans-serif">80</text>
  <line x1="65.00" y1="90.00" x2="70.00" y2="90.00" stroke="#404040" stroke-width="1.00"/>
  <text x="61.00" y="93.50" font-size="10.0" fill="#404040" text-anchor="end" font-family="sans-serif">90</text>
  <line x1="65.00" y1="40.00" x2="70.00" y2="40.00" stroke="#404040" stroke-width="1.00"/>
  <text x="61.00" y="43.50" font-size="10.0" fill="#404040" text-anchor="end" font-family="sans-serif">100</text>
  <polyline points="70.00,540.00 141.00,535.00 212.00,520.00 283.00,495.00 354.00,460.00 425.00,415.00 496.00,360.00 567.00,295.00 638.00,220.00 709.00,135.00 780.00,40.00" stroke="#e41a1c" stroke-width="2.00" fill="none"/>
  <text x="425.00" y="30.00" font-size="16.0" fill="#404040" text-anchor="middle" font-family="sans-serif">Quadratic Curve</text>
  <text x="425.00" y="595.00" font-size="12.0" fill="#404040" text-anchor="middle" font-family="sans-serif">x</text>
  <text x="15.00" y="290.00" font-size="12.0" fill="#404040" text-anchor="middle" font-family="sans-serif" transform="rotate(-90.0,15.00,290.00)">x^2</text>
</svg>
