<svg xmlns="http://www.w3.org/2000/svg" width="800" height="600" viewBox="0 0 800 600">
  <rect x="0.00" y="0.00" width="800.00" height="600.00" fill="#ffffff"/>
  <rect x="70.00" y="40.00" width="710.00" height="500.00" fill="#ffffff"/>
  <line x1="70.00" y1="540.00" x2="780.00" y2="540.00" stroke="#e5e5e5" stroke-width="0.50"/>
  <line x1="70.00" y1="484.44" x2="780.00" y2="484.44" stroke="#e5e5e5" stroke-width="0.50"/>
  <line x1="70.00" y1="428.89" x2="780.00" y2="428.89" stroke="#e5e5e5" stroke-width="0.50"/>
  <line x1="70.00" y1="373.33" x2="780.00" y2="373.33" stroke="#e5e5e5" stroke-width="0.50"/>
  <line x1="70.00" y1="317.78" x2="780.00" y2="317.78" stroke="#e5e5e5" stroke-width="0.50"/>
  <line x1="70.00" y1="262.22" x2="780.00" y2="262.22" stroke="#e5e5e5" stroke-width="0.50"/>
  <line x1="70.00" y1="206.67" x2="780.00" y2="206.67" stroke="#e5e5e5" stroke-width="0.50"/>
  <line x1="70.00" y1="151.11" x2="780.00" y2="151.11" stroke="#e5e5e5" stroke-width="0.50"/>
  <line x1="70.00" y1="95.56" x2="780.00" y2="95.56" stroke="#e5e5e5" stroke-width="0.50"/>
  <line x1="70.00" y1="40.00" x2="780.00" y2="40.00" stroke="#e5e5e5" stroke-width="0.50"/>
  <line x1="70.00" y1="40.00" x2="70.00" y2="540.00" stroke="#e5e5e5" stroke-width="0.50"/>
  <line x1="158.75" y1="40.00" x2="158.75" y2="540.00" stroke="#e5e5e5" stroke-width="0.50"/>
  <line x1="247.50" y1="40.00" x2="247.50" y2="540.00" stroke="#e5e5e5" stroke-width="0.50"/>
  <line x1="336.25" y1="40.00" x2="336.25" y2="540.00" stroke="#e5e5e5" stroke-width="0.50"/>
  <line x1="425.00" y1="40.00" x2="425.00" y2="540.00" stroke="#e5e5e5" stroke-width="0.50"/>
  <line x1="513.75" y1="40.00" x2="513.75" y2="540.00" stroke="#e5e5e5" stroke-width="0.50"/>
  <line x1="602.50" y1="40.00" x2="602.50" y2="540.00" stroke="#e5e5e5" stroke-width="0.50"/>
  <line x1="691.25" y1="40.00" x2="691.25" y2="540.00" stroke="#e5e5e5" stroke-width="0.50"/>
  <line x1="780.00" y1="40.00" x2="780.00" y2="540.00" stroke="#e5e5e5" stroke-width="0.50"/>
  <line x1="70.00" y1="540.00" x2="780.00" y2="540.00" stroke="#404040" stroke-width="1.00"/>
  <line x1="70.00" y1="40.00" x2="70.00" y2="540.00" stroke="#404040" stroke-width="1.00"/>
  <line x1="70.00" y1="540.00" x2="70.00" y2="545.00" stroke="#404040" stroke-width="1.00"/>
  <text x="70.00" y="557.00" font-size="10.0" fill="#404040" text-anchor="middle" font-family="sans-serif">1</text>
  <line x1="158.75" y1="540.00" x2="158.75" y2="545.00" stroke="#404040" stroke-width="1.00"/>
  <text x="158.75" y="557.00" font-size="10.0" fill="#404040" text-anchor="middle" font-family="sans-serif">1.50</text>
  <line x1="247.50" y1="540.00" x2="247.50" y2="545.00" stroke="#404040" stroke-width="1.00"/>
  <text x="247.50" y="557.00" font-size="10.0" fill="#404040" text-anchor="middle" font-family="sans-serif">2</text>
  <line x1="336.25" y1="540.00" x2="336.25" y2="545.00" stroke="#404040" stroke-width="1.00"/>
  <text x="336.25" y="557.00" font-size="10.0" fill="#404040" text-anchor="middle" font-family="sans-serif">2.50</text>
  <line x1="425.00" y1="540.00" x2="425.00" y2="545.00" stroke="#404040" stroke-width="1.00"/>
  <text x="425.00" y="557.00" font-size="10.0" fill="#404040" text-anchor="middle" font-family="sans-serif">3</text>
  <line x1="513.75" y1="540.00" x2="513.75" y2="545.00" stroke="#404040" stroke-width="1.00"/>
  <text x="513.75" y="557.00" font-size="10.0" fill="#404040" text-anchor="middle" font-family="sans-serif">3.50</text>
  <line x1="602.50" y1="540.00" x2="602.50" y2="545.00" stroke="#404040" stroke-width="1.00"/>
  <text x="602.50" y="557.00" font-size="10.0" fill="#404040" text-anchor="middle" font-family="sans-serif">4</text>
  <line x1="691.25" y1="540.00" x2="691.25" y2="545.00" stroke="#404040" stroke-width="1.00"/>
  <text x="691.25" y="557.00" font-size="10.0" fill="#404040" text-anchor="middle" font-family="sans-serif">4.50</text>
  <line x1="780.00" y1="540.00" x2="780.00" y2="545.00" stroke="#404040" stroke-width="1.00"/>
  <text x="780.00" y="557.00" font-size="10.0" fill="#404040" text-anchor="middle" font-family="sans-serif">5</text>
  <line x1="65.00" y1="540.00" x2="70.00" y2="540.00" stroke="#404040" stroke-width="1.00"/>
  <text x="61.00" y="543.50" font-size="10.0" fill="#404040" text-anchor="end" font-family="sans-serif">2</text>
  <line x1="65.00" y1="484.44" x2="70.00" y2="484.44" stroke="#404040" stroke-width="1.00"/>
  <text x="61.00" y="487.94" font-size="10.0" fill="#404040" text-anchor="end" font-family="sans-serif">3</text>
  <line x1="65.00" y1="428.89" x2="70.00" y2="428.89" stroke="#404040" stroke-width="1.00"/>
  <text x="61.00" y="432.39" font-size="10.0" fill="#404040" text-anchor="end" font-family="sans-serif">4</text>
  <line x1="65.00" y1="373.33" x2="70.00" y2="373.33" stroke="#404040" stroke-width="1.00"/>
  <text x="61.00" y="376.83" font-size="10.0" fill="#404040" text-anchor="end" font-family="sans-serif">5</text>
  <line x1="65.00" y1="317.78" x2="70.00" y2="317.78" stroke="#404040" stroke-width="1.00"/>
  <text x="61.00" y="321.28" font-size="10.0" fill="#404040" text-anchor="end" font-family="sans-serif">6</text>
  <line x1="65.00" y1="262.22" x2="70.00" y2="262.22" stroke="#404040" stroke-width="1.00"/>
  <text x="61.00" y="265.72" font-size="10.0" fill="#404040" text-anchor="end" font-family="sans-serif">7</text>
  <line x1="65.00" y1="206.67" x2="70.00" y2="206.67" stroke="#404040" stroke-width="1.00"/>
  <text x="61.00" y="210.17" font-size="10.0" fill="#404040" text-anchor="end" font-family="sans-serif">8</text>
  <line x1="65.00" y1="151.11" x2="70.00" y2="151.11" stroke="#404040" stroke-width="1.00"/>
  <text x="61.00" y="154.61" font-size="10.0" fill="#404040" text-anchor="end" font-family="sans-serif">9</text>
  <line x1="65.00" y1="95.56" x2="70.00" y2="95.56" stroke="#404040" stroke-width="1.00"/>
  <text x="61.00" y="99.06" font-size="10.0" fill="#404040" text-anchor="end" font-family="sans-serif">10</text>
  <line x1="65.00" y1="40.00" x2="70.00" y2="40.00" stroke="#404040" stroke-width="1.00"/>
  <text x="61.00" y="43.50" font-size="10.0" fill="#404040" text-anchor="end" font-family="sans-serif">11</text>
  <circle cx="70.00" cy="534.44" r="4.00" fill="#e41a1c"/>
  <circle cx="247.50" cy="434.44" r="4.00" fill="#e41a1c"/>
  <circle cx="425.00" cy="306.67" r="4.00" fill="#e41a1c"/>
  <circle cx="602.50" cy="217.78" r="4.00" fill="#e41a1c"/>
  <circle cx="780.00" cy="90.00" r="4.00" fill="#e41a1c"/>
  <text x="425.00" y="30.00" font-size="16.0" fill="#404040" text-anchor="middle" font-family="sans-serif">Scatter Plot</text>
  <text x="425.00" y="595.00" font-size="12.0" fill="#404040" text-anchor="middle" font-family="sans-serif">X Axis</text>
  <text x="15.00" y="290.00" font-size="12.0" fill="#404040" text-anchor="middle" font-family="sans-serif" transform="rotate(-90.0,15.00,290.00)">Y Axis</text>
</svg>
