<svg xmlns="http://www.w3.org/2000/svg" width="800" height="600" viewBox="0 0 800 600">
  <rect x="0.00" y="0.00" width="800.00" height="600.00" fill="#ffffff"/>
  <rect x="70.00" y="40.00" width="710.00" height="500.00" fill="#ffffff"/>
  <line x1="70.00" y1="540.00" x2="780.00" y2="540.00" stroke="#e5e5e5" stroke-width="0.50"/>
  <line x1="70.00" y1="477.50" x2="780.00" y2="477.50" stroke="#e5e5e5" stroke-width="0.50"/>
  <line x1="70.00" y1="415.00" x2="780.00" y2="415.00" stroke="#e5e5e5" stroke-width="0.50"/>
  <line x1="70.00" y1="352.50" x2="780.00" y2="352.50" stroke="#e5e5e5" stroke-width="0.50"/>
  <line x1="70.00" y1="290.00" x2="780.00" y2="290.00" stroke="#e5e5e5" stroke-width="0.50"/>
  <line x1="70.00" y1="227.50" x2="780.00" y2="227.50" stroke="#e5e5e5" stroke-width="0.50"/>
  <line x1="70.00" y1="165.00" x2="780.00" y2="165.00" stroke="#e5e5e5" stroke-width="0.50"/>
  <line x1="70.00" y1="102.50" x2="780.00" y2="102.50" stroke="#e5e5e5" stroke-width="0.50"/>
  <line x1="70.00" y1="40.00" x2="780.00" y2="40.00" stroke="#e5e5e5" stroke-width="0.50"/>
  <line x1="70.00" y1="40.00" x2="70.00" y2="540.00" stroke="#e5e5e5" stroke-width="0.50"/>
  <line x1="158.75" y1="40.00" x2="158.75" y2="540.00" stroke="#e5e5e5" stroke-width="0.50"/>
  <line x1="247.50" y1="40.00" x2="247.50" y2="540.00" stroke="#e5e5e5" stroke-width="0.50"/>
  <line x1="336.25" y1="40.00" x2="336.25" y2="540.00" stroke="#e5e5e5" stroke-width="0.50"/>
  <line x1="425.00" y1="40.00" x2="425.00" y2="540.00" stroke="#e5e5e5" stroke-width="0.50"/>
  <line x1="513.75" y1="40.00" x2="513.75" y2="540.00" stroke="#e5e5e5" stroke-width="0.50"/>
  <line x1="602.50" y1="40.00" x2="602.50" y2="540.00" stroke="#e5e5e5" stroke-width="0.50"/>
  <line x1="691.25" y1="40.00" x2="691.25" y2="540.00" stroke="#e5e5e5" stroke-width="0.50"/>
  <line x1="780.00" y1="40.00" x2="780.00" y2="540.00" stroke="#e5e5e5" stroke-width="0.50"/>
  <line x1="70.00" y1="540.00" x2="780.00" y2="540.00" stroke="#404040" stroke-width="1.00"/>
  <line x1="70.00" y1="40.00" x2="70.00" y2="540.00" stroke="#404040" stroke-width="1.00"/>
  <line x1="70.00" y1="540.00" x2="70.00" y2="545.00" stroke="#404040" stroke-width="1.00"/>
  <text x="70.00" y="557.00" font-size="10.0" fill="#404040" text-anchor="middle" font-family="sans-serif">1</text>
  <line x1="158.75" y1="540.00" x2="158.75" y2="545.00" stroke="#404040" stroke-width="1.00"/>
  <text x="158.75" y="557.00" font-size="10.0" fill="#404040" text-anchor="middle" font-family="sans-serif">1.50</text>
  <line x1="247.50" y1="540.00" x2="247.50" y2="545.00" stroke="#404040" stroke-width="1.00"/>
  <text x="247.50" y="557.00" font-size="10.0" fill="#404040" text-anchor="middle" font-family="sans-serif">2</text>
  <line x1="336.25" y1="540.00" x2="336.25" y2="545.00" stroke="#404040" stroke-width="1.00"/>
  <text x="336.25" y="557.00" font-size="10.0" fill="#404040" text-anchor="middle" font-family="sans-serif">2.50</text>
  <line x1="425.00" y1="540.00" x2="425.00" y2="545.00" stroke="#404040" stroke-width="1.00"/>
  <text x="425.00" y="557.00" font-size="10.0" fill="#404040" text-anchor="middle" font-family="sans-serif">3</text>
  <line x1="513.75" y1="540.00" x2="513.75" y2="545.00" stroke="#404040" stroke-width="1.00"/>
  <text x="513.75" y="557.00" font-size="10.0" fill="#404040" text-anchor="middle" font-family="sans-serif">3.50</text>
  <line x1="602.50" y1="540.00" x2="602.50" y2="545.00" stroke="#404040" stroke-width="1.00"/>
  <text x="602.50" y="557.00" font-size="10.0" fill="#404040" text-anchor="middle" font-family="sans-serif">4</text>
  <line x1="691.25" y1="540.00" x2="691.25" y2="545.00" stroke="#404040" stroke-width="1.00"/>
  <text x="691.25" y="557.00" font-size="10.0" fill="#404040" text-anchor="middle" font-family="sans-serif">4.50</text>
  <line x1="780.00" y1="540.00" x2="780.00" y2="545.00" stroke="#404040" stroke-width="1.00"/>
  <text x="780.00" y="557.00" font-size="10.0" fill="#404040" text-anchor="middle" font-family="sans-serif">5</text>
  <line x1="65.00" y1="540.00" x2="70.00" y2="540.00" stroke="#404040" stroke-width="1.00"/>
  <text x="61.00" y="543.50" font-size="10.0" fill="#404040" text-anchor="end" font-family="sans-serif">1</text>
  <line x1="65.00" y1="477.50" x2="70.00" y2="477.50" stroke="#404040" stroke-width="1.00"/>
  <text x="61.00" y="481.00" font-size="10.0" fill="#404040" text-anchor="end" font-family="sans-serif">2</text>
  <line x1="65.00" y1="415.00" x2="70.00" y2="415.00" stroke="#404040" stroke-width="1.00"/>
  <text x="61.00" y="418.50" font-size="10.0" fill="#404040" text-anchor="end" font-family="sans-serif">3</text>
  <line x1="65.00" y1="352.50" x2="70.00" y2="352.50" stroke="#404040" stroke-width="1.00"/>
  <text x="61.00" y="356.00" font-size="10.0" fill="#404040" text-anchor="end" font-family="sans-serif">4</text>
  <line x1="65.00" y1="290.00" x2="70.00" y2="290.00" stroke="#404040" stroke-width="1.00"/>
  <text x="61.00" y="293.50" font-size="10.0" fill="#404040" text-anchor="end" font-family="sans-serif">5</text>
  <line x1="65.00" y1="227.50" x2="70.00" y2="227.50" stroke="#404040" stroke-width="1.00"/>
  <text x="61.00" y="231.00" font-size="10.0" fill="#404040" text-anchor="end" font-family="sans-serif">6</text>
  <line x1="65.00" y1="165.00" x2="70.00" y2="165.00" stroke="#404040" stroke-width="1.00"/>
  <text x="61.00" y="168.50" font-size="10.0" fill="#404040" text-anchor="end" font-family="sans-serif">7</text>
  <line x1="65.00" y1="102.50" x2="70.00" y2="102.50" stroke="#404040" stroke-width="1.00"/>
  <text x="61.00" y="106.00" font-size="10.0" fill="#404040" text-anchor="end" font-family="sans-serif">8</text>
  <line x1="65.00" y1="40.00" x2="70.00" y2="40.00" stroke="#404040" stroke-width="1.00"/>
  <text x="61.00" y="43.50" font-size="10.0" fill="#404040" text-anchor="end" font-family="sans-serif">9</text>
  <circle cx="70.00" cy="508.75" r="4.00" fill="#e41a1c"/>
  <circle cx="247.50" cy="402.50" r="4.00" fill="#e41a1c"/>
  <circle cx="425.00" cy="302.50" r="4.00" fill="#e41a1c"/>
  <circle cx="602.50" cy="196.25" r="4.00" fill="#e41a1c"/>
  <circle cx="780.00" cy="96.25" r="4.00" fill="#e41a1c"/>
  <polyline points="70.00,508.75 247.50,402.50 425.00,302.50 602.50,196.25 780.00,96.25" stroke="#377eb8" stroke-width="2.00" fill="none"/>
  <text x="425.00" y="30.00" font-size="16.0" fill="#404040" text-anchor="middle" font-family="sans-serif">Scatter + Line</text>
  <text x="425.00" y="595.00" font-size="12.0" fill="#404040" text-anchor="middle" font-family="sans-serif">x</text>
  <text x="15.00" y="290.00" font-size="12.0" fill="#404040" text-anchor="middle" font-family="sans-serif" transform="rotate(-90.0,15.00,290.00)">y</text>
</svg>
