<svg xmlns="http://www.w3.org/2000/svg" width="900" height="400" viewBox="0 0 900 400">
  <rect x="0.00" y="0.00" width="900.00" height="400.00" fill="#ffffff"/>
  <rect x="60.00" y="30.00" width="825.00" height="320.00" fill="#ffffff"/>
  <line x1="60.00" y1="350.00" x2="885.00" y2="350.00" stroke="#f0f0f0" stroke-width="0.30"/>
  <line x1="60.00" y1="310.00" x2="885.00" y2="310.00" stroke="#f0f0f0" stroke-width="0.30"/>
  <line x1="60.00" y1="270.00" x2="885.00" y2="270.00" stroke="#f0f0f0" stroke-width="0.30"/>
  <line x1="60.00" y1="230.00" x2="885.00" y2="230.00" stroke="#f0f0f0" stroke-width="0.30"/>
  <line x1="60.00" y1="190.00" x2="885.00" y2="190.00" stroke="#f0f0f0" stroke-width="0.30"/>
  <line x1="60.00" y1="150.00" x2="885.00" y2="150.00" stroke="#f0f0f0" stroke-width="0.30"/>
  <line x1="60.00" y1="110.00" x2="885.00" y2="110.00" stroke="#f0f0f0" stroke-width="0.30"/>
  <line x1="60.00" y1="70.00" x2="885.00" y2="70.00" stroke="#f0f0f0" stroke-width="0.30"/>
  <line x1="60.00" y1="30.00" x2="885.00" y2="30.00" stroke="#f0f0f0" stroke-width="0.30"/>
  <line x1="60.00" y1="30.00" x2="60.00" y2="350.00" stroke="#f0f0f0" stroke-width="0.30"/>
  <line x1="163.12" y1="30.00" x2="163.12" y2="350.00" stroke="#f0f0f0" stroke-width="0.30"/>
  <line x1="266.25" y1="30.00" x2="266.25" y2="350.00" stroke="#f0f0f0" stroke-width="0.30"/>
  <line x1="369.38" y1="30.00" x2="369.38" y2="350.00" stroke="#f0f0f0" stroke-width="0.30"/>
  <line x1="472.50" y1="30.00" x2="472.50" y2="350.00" stroke="#f0f0f0" stroke-width="0.30"/>
  <line x1="575.62" y1="30.00" x2="575.62" y2="350.00" stroke="#f0f0f0" stroke-width="0.30"/>
  <line x1="678.75" y1="30.00" x2="678.75" y2="350.00" stroke="#f0f0f0" stroke-width="0.30"/>
  <line x1="781.88" y1="30.00" x2="781.88" y2="350.00" stroke="#f0f0f0" stroke-width="0.30"/>
  <line x1="885.00" y1="30.00" x2="885.00" y2="350.00" stroke="#f0f0f0" stroke-width="0.30"/>
  <line x1="60.00" y1="350.00" x2="885.00" y2="350.00" stroke="#808080" stroke-width="0.50"/>
  <line x1="60.00" y1="30.00" x2="60.00" y2="350.00" stroke="#808080" stroke-width="0.50"/>
  <line x1="60.00" y1="350.00" x2="60.00" y2="354.00" stroke="#808080" stroke-width="0.50"/>
  <text x="60.00" y="365.00" font-size="9.0" fill="#808080" text-anchor="middle" font-family="sans-serif">1</text>
  <line x1="163.12" y1="350.00" x2="163.12" y2="354.00" stroke="#808080" stroke-width="0.50"/>
  <text x="163.12" y="365.00" font-size="9.0" fill="#808080" text-anchor="middle" font-family="sans-serif">1.50</text>
  <line x1="266.25" y1="350.00" x2="266.25" y2="354.00" stroke="#808080" stroke-width="0.50"/>
  <text x="266.25" y="365.00" font-size="9.0" fill="#808080" text-anchor="middle" font-family="sans-serif">2</text>
  <line x1="369.38" y1="350.00" x2="369.38" y2="354.00" stroke="#808080" stroke-width="0.50"/>
  <text x="369.38" y="365.00" font-size="9.0" fill="#808080" text-anchor="middle" font-family="sans-serif">2.50</text>
  <line x1="472.50" y1="350.00" x2="472.50" y2="354.00" stroke="#808080" stroke-width="0.50"/>
  <text x="472.50" y="365.00" font-size="9.0" fill="#808080" text-anchor="middle" font-family="sans-serif">3</text>
  <line x1="575.62" y1="350.00" x2="575.62" y2="354.00" stroke="#808080" stroke-width="0.50"/>
  <text x="575.62" y="365.00" font-size="9.0" fill="#808080" text-anchor="middle" font-family="sans-serif">3.50</text>
  <line x1="678.75" y1="350.00" x2="678.75" y2="354.00" stroke="#808080" stroke-width="0.50"/>
  <text x="678.75" y="365.00" font-size="9.0" fill="#808080" text-anchor="middle" font-family="sans-serif">4</text>
  <line x1="781.88" y1="350.00" x2="781.88" y2="354.00" stroke="#808080" stroke-width="0.50"/>
  <text x="781.88" y="365.00" font-size="9.0" fill="#808080" text-anchor="middle" font-family="sans-serif">4.50</text>
  <line x1="885.00" y1="350.00" x2="885.00" y2="354.00" stroke="#808080" stroke-width="0.50"/>
  <text x="885.00" y="365.00" font-size="9.0" fill="#808080" text-anchor="middle" font-family="sans-serif">5</text>
  <line x1="56.00" y1="350.00" x2="60.00" y2="350.00" stroke="#808080" stroke-width="0.50"/>
  <text x="52.00" y="353.15" font-size="9.0" fill="#808080" text-anchor="end" font-family="sans-serif">10</text>
  <line x1="56.00" y1="310.00" x2="60.00" y2="310.00" stroke="#808080" stroke-width="0.50"/>
  <text x="52.00" y="313.15" font-size="9.0" fill="#808080" text-anchor="end" font-family="sans-serif">12</text>
  <line x1="56.00" y1="270.00" x2="60.00" y2="270.00" stroke="#808080" stroke-width="0.50"/>
  <text x="52.00" y="273.15" font-size="9.0" fill="#808080" text-anchor="end" font-family="sans-serif">14</text>
  <line x1="56.00" y1="230.00" x2="60.00" y2="230.00" stroke="#808080" stroke-width="0.50"/>
  <text x="52.00" y="233.15" font-size="9.0" fill="#808080" text-anchor="end" font-family="sans-serif">16</text>
  <line x1="56.00" y1="190.00" x2="60.00" y2="190.00" stroke="#808080" stroke-width="0.50"/>
  <text x="52.00" y="193.15" font-size="9.0" fill="#808080" text-anchor="end" font-family="sans-serif">18</text>
  <line x1="56.00" y1="150.00" x2="60.00" y2="150.00" stroke="#808080" stroke-width="0.50"/>
  <text x="52.00" y="153.15" font-size="9.0" fill="#808080" text-anchor="end" font-family="sans-serif">20</text>
  <line x1="56.00" y1="110.00" x2="60.00" y2="110.00" stroke="#808080" stroke-width="0.50"/>
  <text x="52.00" y="113.15" font-size="9.0" fill="#808080" text-anchor="end" font-family="sans-serif">22</text>
  <line x1="56.00" y1="70.00" x2="60.00" y2="70.00" stroke="#808080" stroke-width="0.50"/>
  <text x="52.00" y="73.15" font-size="9.0" fill="#808080" text-anchor="end" font-family="sans-serif">24</text>
  <line x1="56.00" y1="30.00" x2="60.00" y2="30.00" stroke="#808080" stroke-width="0.50"/>
  <text x="52.00" y="33.15" font-size="9.0" fill="#808080" text-anchor="end" font-family="sans-serif">26</text>
  <rect x="-22.50" y="350.00" width="165.00" height="0.00" fill="#e41a1c" stroke="#ffffff" stroke-width="1.00"/>
  <rect x="183.75" y="150.00" width="165.00" height="200.00" fill="#e41a1c" stroke="#ffffff" stroke-width="1.00"/>
  <rect x="390.00" y="250.00" width="165.00" height="100.00" fill="#e41a1c" stroke="#ffffff" stroke-width="1.00"/>
  <rect x="596.25" y="50.00" width="165.00" height="300.00" fill="#e41a1c" stroke="#ffffff" stroke-width="1.00"/>
  <rect x="802.50" y="190.00" width="165.00" height="160.00" fill="#e41a1c" stroke="#ffffff" stroke-width="1.00"/>
  <text x="472.50" y="20.00" font-size="14.0" fill="#808080" text-anchor="middle" font-family="sans-serif">Wide Bar Chart</text>
</svg>
